
                            <svg className='absolute -top-40 -left-20'
                                width="500"
                                height="500"
                                viewBox="0 0 1000 1000"
                                xmlns="http://www.w3.org/2000/svg"
                            >
                                <defs>


                                    <linearGradient id="linearGradientId" gradientTransform="rotate(0 0.5 0.5)">
                                        <stop offset="0%" stop-color="#FF0037" />
                                        <stop offset="100%" stop-color="#ff90a8" />
                                    </linearGradient>




                                    <clipPath id="shape">
                                        <path fill="currentColor" d="M873.5,626Q801,752,672.5,751Q544,750,401,834.5Q258,919,176,783.5Q94,648,101.5,503Q109,358,224,289Q339,220,447,204.5Q555,189,660.5,233Q766,277,856,388.5Q946,500,873.5,626Z"></path>
                                    </clipPath>
                                </defs>



                                <g clip-path="url(#shape)">
                                    <path fill="url(#linearGradientId)" d="M873.5,626Q801,752,672.5,751Q544,750,401,834.5Q258,919,176,783.5Q94,648,101.5,503Q109,358,224,289Q339,220,447,204.5Q555,189,660.5,233Q766,277,856,388.5Q946,500,873.5,626Z" />
                                </g>
                            </svg>