<svg width="360" height="360" viewBox="0 0 360 360" fill="none" xmlns="http://www.w3.org/2000/svg">
<path d="M86.8544 63.269C89.469 62.133 92.1384 61.061 94.8704 60.0623C111.406 54.0076 129.348 50.977 148.689 50.977C165.93 50.977 181.424 53.4263 195.173 58.3183C208.913 63.2103 221.089 70.0237 231.696 78.7623C242.296 87.501 251.44 97.5783 259.128 108.996L206.706 136.252C201.116 126.466 193.598 118.374 184.16 111.961C174.729 105.56 162.9 102.353 148.689 102.353C135.176 102.353 122.765 105.384 111.465 111.438C100.166 117.5 91.1984 126.18 84.557 137.478C77.9197 148.778 74.5957 162.585 74.5957 178.889C74.5957 194.969 77.7957 208.893 84.2104 220.656C90.6104 232.426 99.349 241.512 110.422 247.918C121.485 254.326 134.241 257.526 148.689 257.526C157.545 257.526 165.577 256.422 172.801 254.208C180.025 251.994 186.198 248.852 191.325 244.77C196.452 240.694 200.821 235.92 204.433 230.441C208.046 224.968 210.898 219.082 212.997 212.792H147.989V167.36H271.713C272.876 186.929 270.89 205.222 265.77 222.23C260.642 239.238 252.721 254.266 242.001 267.31C231.285 280.366 217.889 290.556 201.814 297.89C185.733 305.232 167.329 308.902 146.592 308.902C127.022 308.902 109.076 305.814 92.773 299.64C91.461 299.144 90.165 298.628 88.8864 298.1C112.836 315.394 142.261 325.59 174.064 325.59C254.504 325.59 319.713 260.38 319.713 179.94C319.713 99.4983 254.504 34.2903 174.064 34.2903C141.354 34.2903 111.165 45.073 86.8544 63.269" fill="url(#paint0_radial_263_230)"/>
<path d="M86.8544 63.269C89.469 62.133 92.1384 61.061 94.8704 60.0623C111.406 54.0076 129.348 50.977 148.689 50.977C165.93 50.977 181.424 53.4263 195.173 58.3183C208.913 63.2103 221.089 70.0237 231.696 78.7623C242.296 87.501 251.44 97.5783 259.128 108.996L206.706 136.252C201.116 126.466 193.598 118.374 184.16 111.961C174.729 105.56 162.9 102.353 148.689 102.353C135.176 102.353 122.765 105.384 111.465 111.438C100.166 117.5 91.1984 126.18 84.557 137.478C77.9197 148.778 74.5957 162.585 74.5957 178.889C74.5957 194.969 77.7957 208.893 84.2104 220.656C90.6104 232.426 99.349 241.512 110.422 247.918C121.485 254.326 134.241 257.526 148.689 257.526C157.545 257.526 165.577 256.422 172.801 254.208C180.025 251.994 186.198 248.852 191.325 244.77C196.452 240.694 200.821 235.92 204.433 230.441C208.046 224.968 210.898 219.082 212.997 212.792H147.989V167.36H271.713C272.876 186.929 270.89 205.222 265.77 222.23C260.642 239.238 252.721 254.266 242.001 267.31C231.285 280.366 217.889 290.556 201.814 297.89C185.733 305.232 167.329 308.902 146.592 308.902C127.022 308.902 109.076 305.814 92.773 299.64C91.461 299.144 90.165 298.628 88.8864 298.1C112.836 315.394 142.261 325.59 174.064 325.59C254.504 325.59 319.713 260.38 319.713 179.94C319.713 99.4983 254.504 34.2903 174.064 34.2903C141.354 34.2903 111.165 45.073 86.8544 63.269" fill="url(#paint1_radial_263_230)"/>
<path d="M74.5957 178.889C74.5957 194.969 77.7957 208.893 84.2104 220.656C90.6104 232.425 99.349 241.512 110.422 247.918C121.485 254.326 134.241 257.526 148.689 257.526C157.545 257.526 165.577 256.422 172.801 254.208C180.025 251.994 186.198 248.852 191.325 244.77C193.453 243.078 195.444 241.257 197.312 239.324C170.865 234.548 145.662 225.217 121.705 211.322C106.028 199.209 90.3477 187.097 74.6704 174.982C74.625 176.27 74.5957 177.569 74.5957 178.889" fill="url(#paint2_radial_263_230)"/>
<path d="M257.699 242.868C253.388 251.668 248.157 259.818 242.001 267.31C231.285 280.366 217.889 290.556 201.815 297.89C185.735 305.232 167.329 308.902 146.592 308.902C127.023 308.902 109.076 305.814 92.7734 299.64C91.4614 299.144 90.1654 298.628 88.8867 298.1C112.836 315.394 142.261 325.59 174.064 325.59C236.388 325.59 289.56 286.438 310.355 231.392C293.541 237.929 275.993 241.761 257.699 242.868Z" fill="url(#paint3_radial_263_230)"/>
<path d="M336.368 102.212C333.838 103.473 332.778 106.509 333.968 109.081C344.232 131.332 349.439 155.141 349.439 179.94C349.439 273.404 273.406 349.437 179.942 349.437C130.306 349.437 83.7138 327.651 51.8631 290.949C50.0471 288.869 48.2871 286.747 46.5844 284.571C44.6658 287.559 41.7404 289.832 38.2871 290.909C40.0218 293.125 41.8058 295.293 43.6524 297.415C77.4631 336.608 127.076 359.88 179.942 359.88C228.003 359.88 273.19 341.163 307.176 307.176C341.166 273.187 359.882 228.001 359.882 179.94C359.882 153.608 354.346 128.311 343.43 104.671C342.555 102.767 340.666 101.659 338.699 101.659C337.911 101.659 337.115 101.835 336.368 102.212" fill="url(#paint4_radial_263_230)"/>
<path d="M52.704 52.7027C18.7173 86.6894 0 131.876 0 179.94C0 193.345 1.47734 206.673 4.39734 219.639C5.04134 222.505 7.94667 224.263 10.7933 223.531C13.5333 222.828 15.1986 220.073 14.5773 217.315C11.8333 205.112 10.444 192.564 10.444 179.94C10.444 86.4787 86.48 10.4427 179.941 10.4427C218.217 10.4427 254.337 22.8907 284.395 46.4427L290.835 38.2226C258.923 13.2173 220.576 -7.01168e-06 179.941 -7.01168e-06C131.877 -7.01168e-06 86.6893 18.7174 52.704 52.7027" fill="url(#paint5_radial_263_230)"/>
<path d="M277.943 54.624C277.943 67.4707 288.395 77.9214 301.241 77.9214C314.086 77.9214 324.537 67.4707 324.537 54.624C324.537 41.7787 314.086 31.328 301.241 31.328C288.395 31.328 277.943 41.7787 277.943 54.624ZM285.978 54.624C285.978 46.208 292.825 39.3627 301.241 39.3627C309.657 39.3627 316.503 46.208 316.503 54.624C316.503 63.0414 309.657 69.8867 301.241 69.8867C292.825 69.8867 285.978 63.0414 285.978 54.624Z" fill="url(#paint6_radial_263_230)"/>
<path d="M10.4434 276.337C10.4434 289.181 20.894 299.633 33.7394 299.633C37.2807 299.633 40.6474 298.837 43.6514 297.415C46.858 295.904 49.6674 293.68 51.8621 290.949C55.0994 286.948 57.0354 281.872 57.0354 276.337C57.0354 263.492 46.5834 253.04 33.7394 253.04C20.894 253.04 10.4434 263.492 10.4434 276.337M18.4767 276.337C18.4767 267.917 25.3207 261.075 33.7394 261.075C42.158 261.075 49.002 267.917 49.002 276.337C49.002 279.365 48.118 282.193 46.5834 284.571C44.6647 287.559 41.7394 289.832 38.286 290.909C36.8487 291.357 35.322 291.599 33.7394 291.599C25.3207 291.599 18.4767 284.755 18.4767 276.337" fill="url(#paint7_radial_263_230)"/>
<defs>
<radialGradient id="paint0_radial_263_230" cx="0" cy="0" r="1" gradientUnits="userSpaceOnUse" gradientTransform="translate(156.467 140.554) rotate(14.547) scale(249.79 249.79)">
<stop stop-color="#00FFFF"/>
<stop offset="0.994413" stop-color="#0071BC"/>
<stop offset="1" stop-color="#0071BC"/>
</radialGradient>
<radialGradient id="paint1_radial_263_230" cx="0" cy="0" r="1" gradientUnits="userSpaceOnUse" gradientTransform="translate(156.467 140.554) rotate(14.547) scale(249.79 249.79)">
<stop stop-color="#00FFFF"/>
<stop offset="0.994413" stop-color="#0071BC"/>
<stop offset="1" stop-color="#0071BC"/>
</radialGradient>
<radialGradient id="paint2_radial_263_230" cx="0" cy="0" r="1" gradientUnits="userSpaceOnUse" gradientTransform="translate(185.542 123.722) rotate(106.294) scale(207.26 207.26)">
<stop stop-color="#00FFFF"/>
<stop offset="0.994413" stop-color="#0071BC"/>
<stop offset="1" stop-color="#0071BC"/>
</radialGradient>
<radialGradient id="paint3_radial_263_230" cx="0" cy="0" r="1" gradientUnits="userSpaceOnUse" gradientTransform="translate(185.542 123.722) rotate(106.294) scale(207.26 207.26)">
<stop stop-color="#00FFFF"/>
<stop offset="0.994413" stop-color="#0071BC"/>
<stop offset="1" stop-color="#0071BC"/>
</radialGradient>
<radialGradient id="paint4_radial_263_230" cx="0" cy="0" r="1" gradientUnits="userSpaceOnUse" gradientTransform="translate(223.799 184.933) rotate(13.6987) scale(252.012 252.012)">
<stop stop-color="#36013F"/>
<stop offset="0.994413" stop-color="#662D91"/>
<stop offset="1" stop-color="#662D91"/>
</radialGradient>
<radialGradient id="paint5_radial_263_230" cx="0" cy="0" r="1" gradientUnits="userSpaceOnUse" gradientTransform="translate(223.799 184.933) rotate(13.6987) scale(252.012 252.012)">
<stop stop-color="#36013F"/>
<stop offset="0.994413" stop-color="#662D91"/>
<stop offset="1" stop-color="#662D91"/>
</radialGradient>
<radialGradient id="paint6_radial_263_230" cx="0" cy="0" r="1" gradientUnits="userSpaceOnUse" gradientTransform="translate(223.799 184.933) rotate(13.6987) scale(252.012)">
<stop stop-color="#36013F"/>
<stop offset="0.994413" stop-color="#662D91"/>
<stop offset="1" stop-color="#662D91"/>
</radialGradient>
<radialGradient id="paint7_radial_263_230" cx="0" cy="0" r="1" gradientUnits="userSpaceOnUse" gradientTransform="translate(223.798 184.933) rotate(13.6987) scale(252.012 252.012)">
<stop stop-color="#36013F"/>
<stop offset="0.994413" stop-color="#662D91"/>
<stop offset="1" stop-color="#662D91"/>
</radialGradient>
</defs>
</svg>
