<svg width="1608" height="360" viewBox="0 0 1608 360" fill="none" xmlns="http://www.w3.org/2000/svg">
<path d="M87.0341 63.3291C89.6487 62.1931 92.318 61.121 95.05 60.1224C111.586 54.0677 129.527 51.0371 148.869 51.0371C166.11 51.0371 181.603 53.4864 195.353 58.3784C209.093 63.2704 221.269 70.0837 231.875 78.8224C242.475 87.5611 251.619 97.6384 259.307 109.056L206.886 136.312C201.295 126.526 193.778 118.434 184.339 112.021C174.909 105.62 163.079 102.413 148.869 102.413C135.355 102.413 122.945 105.444 111.645 111.498C100.346 117.56 91.3781 126.24 84.7367 137.538C78.0994 148.838 74.7754 162.645 74.7754 178.949C74.7754 195.029 77.9754 208.953 84.3901 220.716C90.7901 232.486 99.5287 241.572 110.602 247.978C121.665 254.386 134.421 257.586 148.869 257.586C157.725 257.586 165.757 256.482 172.981 254.268C180.205 252.054 186.378 248.912 191.505 244.83C196.631 240.754 201.001 235.98 204.613 230.501C208.226 225.028 211.078 219.142 213.177 212.852H148.169V167.42H271.893C273.055 186.989 271.07 205.282 265.95 222.29C260.822 239.298 252.901 254.326 242.181 267.37C231.465 280.426 218.069 290.616 201.994 297.95C185.913 305.292 167.509 308.962 146.771 308.962C127.202 308.962 109.255 305.874 92.9527 299.7C91.6407 299.204 90.3447 298.688 89.066 298.16C113.015 315.454 142.441 325.65 174.243 325.65C254.683 325.65 319.893 260.44 319.893 180C319.893 99.5584 254.683 34.3504 174.243 34.3504C141.534 34.3504 111.345 45.1331 87.0341 63.3291" fill="url(#paint0_radial_260_83)"/>
<path d="M87.0341 63.3291C89.6487 62.1931 92.318 61.121 95.05 60.1224C111.586 54.0677 129.527 51.0371 148.869 51.0371C166.11 51.0371 181.603 53.4864 195.353 58.3784C209.093 63.2704 221.269 70.0837 231.875 78.8224C242.475 87.5611 251.619 97.6384 259.307 109.056L206.886 136.312C201.295 126.526 193.778 118.434 184.339 112.021C174.909 105.62 163.079 102.413 148.869 102.413C135.355 102.413 122.945 105.444 111.645 111.498C100.346 117.56 91.3781 126.24 84.7367 137.538C78.0994 148.838 74.7754 162.645 74.7754 178.949C74.7754 195.029 77.9754 208.953 84.3901 220.716C90.7901 232.486 99.5287 241.572 110.602 247.978C121.665 254.386 134.421 257.586 148.869 257.586C157.725 257.586 165.757 256.482 172.981 254.268C180.205 252.054 186.378 248.912 191.505 244.83C196.631 240.754 201.001 235.98 204.613 230.501C208.226 225.028 211.078 219.142 213.177 212.852H148.169V167.42H271.893C273.055 186.989 271.07 205.282 265.95 222.29C260.822 239.298 252.901 254.326 242.181 267.37C231.465 280.426 218.069 290.616 201.994 297.95C185.913 305.292 167.509 308.962 146.771 308.962C127.202 308.962 109.255 305.874 92.9527 299.7C91.6407 299.204 90.3447 298.688 89.066 298.16C113.015 315.454 142.441 325.65 174.243 325.65C254.683 325.65 319.893 260.44 319.893 180C319.893 99.5584 254.683 34.3504 174.243 34.3504C141.534 34.3504 111.345 45.1331 87.0341 63.3291" fill="url(#paint1_radial_260_83)"/>
<path d="M74.7754 178.949C74.7754 195.029 77.9754 208.953 84.3901 220.716C90.7901 232.485 99.5287 241.572 110.602 247.978C121.665 254.386 134.421 257.586 148.869 257.586C157.725 257.586 165.757 256.482 172.981 254.268C180.205 252.054 186.378 248.912 191.505 244.83C193.633 243.138 195.623 241.317 197.491 239.384C171.045 234.608 145.842 225.277 121.885 211.382C106.207 199.269 90.5274 187.157 74.8501 175.042C74.8047 176.33 74.7754 177.629 74.7754 178.949" fill="url(#paint2_radial_260_83)"/>
<path d="M257.878 242.928C253.568 251.728 248.337 259.878 242.181 267.37C231.465 280.426 218.069 290.616 201.994 297.95C185.914 305.292 167.509 308.962 146.772 308.962C127.202 308.962 109.256 305.874 92.9531 299.7C91.6411 299.204 90.3451 298.688 89.0664 298.16C113.016 315.454 142.441 325.65 174.244 325.65C236.568 325.65 289.74 286.498 310.534 231.452C293.721 237.989 276.173 241.821 257.878 242.928Z" fill="url(#paint3_radial_260_83)"/>
<path d="M336.548 102.272C334.017 103.533 332.957 106.569 334.148 109.141C344.412 131.392 349.619 155.201 349.619 180C349.619 273.464 273.585 349.497 180.121 349.497C130.485 349.497 83.8935 327.711 52.0428 291.009C50.2268 288.929 48.4668 286.807 46.7641 284.631C44.8455 287.619 41.9201 289.892 38.4668 290.969C40.2015 293.185 41.9854 295.353 43.8321 297.475C77.6428 336.668 127.256 359.94 180.121 359.94C228.183 359.94 273.369 341.223 307.356 307.236C341.345 273.247 360.061 228.061 360.061 180C360.061 153.668 354.525 128.371 343.609 104.731C342.735 102.827 340.845 101.719 338.879 101.719C338.091 101.719 337.295 101.895 336.548 102.272" fill="white"/>
<path d="M52.8837 52.7628C18.897 86.7494 0.179688 131.936 0.179688 180C0.179688 193.405 1.65703 206.733 4.57703 219.699C5.22103 222.565 8.12636 224.323 10.973 223.591C13.713 222.888 15.3783 220.133 14.757 217.375C12.013 205.172 10.6237 192.624 10.6237 180C10.6237 86.5387 86.6597 10.5028 180.121 10.5028C218.397 10.5028 254.517 22.9508 284.574 46.5028L291.014 38.2827C259.102 13.2774 220.756 0.0600516 180.121 0.0600516C132.057 0.0600516 86.869 18.7774 52.8837 52.7628" fill="white"/>
<path d="M278.123 54.6841C278.123 67.5307 288.575 77.9814 301.42 77.9814C314.266 77.9814 324.716 67.5307 324.716 54.6841C324.716 41.8388 314.266 31.3881 301.42 31.3881C288.575 31.3881 278.123 41.8388 278.123 54.6841ZM286.158 54.6841C286.158 46.2681 293.004 39.4228 301.42 39.4228C309.836 39.4228 316.683 46.2681 316.683 54.6841C316.683 63.1014 309.836 69.9468 301.42 69.9468C293.004 69.9468 286.158 63.1014 286.158 54.6841Z" fill="white"/>
<path d="M10.623 276.397C10.623 289.241 21.0737 299.693 33.9191 299.693C37.4604 299.693 40.8271 298.897 43.8311 297.475C47.0377 295.964 49.8471 293.74 52.0417 291.009C55.2791 287.008 57.215 281.932 57.215 276.397C57.215 263.552 46.7631 253.1 33.9191 253.1C21.0737 253.1 10.623 263.552 10.623 276.397M18.6564 276.397C18.6564 267.977 25.5004 261.135 33.9191 261.135C42.3377 261.135 49.1817 267.977 49.1817 276.397C49.1817 279.425 48.2977 282.253 46.7631 284.631C44.8444 287.619 41.9191 289.892 38.4657 290.969C37.0284 291.417 35.5017 291.659 33.9191 291.659C25.5004 291.659 18.6564 284.815 18.6564 276.397" fill="white"/>
<path d="M462.48 37.7868C450.506 42.1748 440.051 48.4121 431.115 56.5068C422.176 64.6014 415.262 74.3387 410.372 85.7227C405.479 97.1067 403.039 109.797 403.039 123.793C403.039 137.792 405.44 150.565 410.246 162.115C415.052 173.668 421.756 183.617 430.355 191.965C438.958 200.311 449.158 206.723 460.964 211.191C472.767 215.655 485.755 217.892 499.918 217.892C514.927 217.892 528.25 215.236 539.886 209.924C551.523 204.612 561.218 197.236 568.976 187.791C576.73 178.349 582.466 167.471 586.178 155.16C589.884 142.852 591.32 129.611 590.478 115.445H500.931V148.329H547.98C546.463 152.883 544.396 157.144 541.783 161.104C539.167 165.067 536.006 168.525 532.296 171.475C528.586 174.427 524.118 176.705 518.891 178.304C513.662 179.909 507.844 180.708 501.436 180.708C490.979 180.708 481.747 178.392 473.739 173.752C465.727 169.115 459.403 162.539 454.767 154.021C450.127 145.507 447.812 135.428 447.812 123.793C447.812 111.991 450.214 101.999 455.02 93.8174C459.826 85.6401 466.316 79.3601 474.498 74.9721C482.674 70.5894 491.654 68.3961 501.436 68.3961C511.72 68.3961 520.283 70.7147 527.112 75.3521C533.943 79.9907 539.38 85.8494 543.43 92.9334L581.372 73.2027C575.804 64.9401 569.184 57.6441 561.512 51.3201C553.838 44.9961 545.028 40.0641 535.08 36.5228C525.128 32.9815 513.916 31.2094 501.436 31.2094C487.436 31.2094 474.454 33.4041 462.48 37.7868" fill="url(#paint4_linear_260_83)"/>
<path d="M465.479 45.9611C454.611 49.9424 445.016 55.6637 436.959 62.9597C428.996 70.1704 422.744 78.9851 418.371 89.1584C413.974 99.3918 411.744 111.044 411.744 123.793C411.744 136.572 413.945 148.34 418.285 158.77C422.613 169.169 428.714 178.236 436.419 185.718C444.128 193.194 453.422 199.025 464.048 203.046C474.812 207.12 486.88 209.185 499.919 209.185C513.602 209.185 525.832 206.769 536.271 202.006C546.636 197.272 555.378 190.632 562.25 182.266C569.238 173.754 574.484 163.789 577.843 152.646C580.52 143.761 581.911 134.205 581.997 124.152H509.639V139.624H560.063L556.243 151.085C554.489 156.337 552.069 161.32 549.052 165.898C545.939 170.616 542.127 174.786 537.719 178.289C533.164 181.912 527.688 184.717 521.448 186.629C515.424 188.477 508.692 189.414 501.437 189.414C489.473 189.414 478.685 186.678 469.379 181.288C460 175.858 452.511 168.086 447.123 158.188C441.803 148.422 439.105 136.853 439.105 123.793C439.105 110.477 441.935 98.9064 447.514 89.4064C453.122 79.8664 460.816 72.4291 470.385 67.3011C479.805 62.2504 490.255 59.6891 501.437 59.6891C513.452 59.6891 523.735 62.5344 532.007 68.1491C537.548 71.9131 542.344 76.4237 546.331 81.609L568.246 70.2157C564.54 65.7904 560.436 61.7158 555.979 58.0411C549.119 52.3864 541.106 47.9091 532.163 44.7264C523.195 41.5344 512.856 39.9158 501.437 39.9158C488.536 39.9158 476.438 41.9491 465.479 45.9611" fill="url(#paint5_linear_260_83)"/>
<path d="M748.576 35.2586H735.928H707.596V212.327H735.928H748.576H825.221V177.167H748.576V136.441H820.162V102.037H748.576V70.4187H825.221V35.2586H748.576Z" fill="url(#paint6_linear_260_83)"/>
<path d="M716.303 43.9638V203.621H816.515V185.874H739.869V127.734H811.455V110.744H739.869V61.7105H816.515V43.9638H716.303Z" fill="url(#paint7_linear_260_83)"/>
<path d="M948.661 212.326H989.641V112.663L1112.07 221.181V35.2585H1070.84V134.923L948.661 26.4052V212.326Z" fill="url(#paint8_linear_260_83)"/>
<path d="M1079.55 43.9638V154.302L957.369 45.7824V203.621H980.935V93.3104L1103.36 201.829V43.9638H1079.55Z" fill="url(#paint9_linear_260_83)"/>
<path d="M1279.02 35.2586H1266.37H1238.04V212.327H1279.02V141.247H1343.02V106.845H1279.02V71.936H1345.55V35.2586H1279.02Z" fill="url(#paint10_linear_260_83)"/>
<path d="M1246.75 43.9638V203.621H1270.32V132.54H1334.31V115.552H1270.32V63.2304H1336.84V43.9638H1246.75Z" fill="url(#paint11_linear_260_83)"/>
<path d="M1564.86 35.2585V151.112C1564.86 160.052 1562.5 167.3 1557.78 172.867C1553.05 178.432 1545.89 181.213 1536.28 181.213C1526.83 181.213 1519.75 178.432 1515.03 172.867C1510.31 167.3 1507.94 160.052 1507.94 151.112V35.2585H1465.19V154.147C1465.19 165.277 1467 174.977 1470.63 183.239C1474.26 191.503 1479.32 198.289 1485.81 203.6C1492.3 208.913 1499.85 212.915 1508.45 215.615C1517.05 218.311 1526.32 219.663 1536.28 219.663C1546.22 219.663 1555.54 218.311 1564.23 215.615C1572.91 212.915 1580.5 208.913 1586.99 203.6C1593.48 198.289 1598.54 191.503 1602.17 183.239C1605.79 174.977 1607.61 165.277 1607.61 154.147V35.2585H1564.86Z" fill="url(#paint12_linear_260_83)"/>
<path d="M1573.57 43.9642V151.114C1573.57 162.123 1570.49 171.336 1564.41 178.5C1557.98 186.077 1548.51 189.92 1536.28 189.92C1524.2 189.92 1514.82 186.077 1508.38 178.497C1502.32 171.341 1499.24 162.127 1499.24 151.114V43.9642H1473.9V154.147C1473.9 164.023 1475.48 172.632 1478.61 179.743C1481.7 186.792 1485.86 192.392 1491.32 196.864C1496.92 201.44 1503.56 204.955 1511.05 207.308C1518.78 209.73 1527.26 210.958 1536.28 210.958C1545.29 210.958 1553.83 209.727 1561.64 207.302C1569.21 204.95 1575.89 201.438 1581.48 196.867C1586.87 192.454 1591.15 186.691 1594.2 179.737C1597.32 172.624 1598.9 164.013 1598.9 154.147V43.9642H1573.57Z" fill="url(#paint13_linear_260_83)"/>
<path d="M438.656 300.448L419.027 244.993H402.828L436.645 332.137L462.185 273.608L487.724 332.137L521.543 244.993H505.344L485.952 300.448L462.185 240.855L438.656 300.448Z" fill="white"/>
<path d="M586.81 244.993H573.094V327.763H581.724H623.466V315.464H586.81V289.451H621.099V277.391H586.81V257.291H623.466V244.993H586.81Z" fill="white"/>
<path d="M681.996 244.993V327.763H708.363C714.196 327.763 719.34 326.915 723.795 325.22C728.245 323.527 731.756 320.904 734.319 317.356C736.879 313.808 738.161 309.317 738.161 303.877C738.161 299.936 737.372 296.545 735.797 293.708C734.219 290.872 732.032 288.547 729.233 286.732C726.641 285.055 723.729 283.781 720.495 282.913C720.571 282.885 720.645 282.857 720.72 282.829C724.7 281.333 727.815 279.147 730.061 276.269C732.308 273.391 733.431 269.904 733.431 265.804C733.431 261.073 732.308 257.171 730.061 254.096C727.815 251.023 724.7 248.739 720.72 247.24C716.739 245.743 712.148 244.993 706.944 244.993H681.996ZM695.948 256.463H705.999C709.859 256.463 713.013 257.408 715.46 259.3C717.901 261.192 719.123 263.873 719.123 267.34C719.123 269.628 718.571 271.579 717.468 273.193C716.363 274.809 714.827 276.052 712.857 276.919C710.885 277.785 708.6 278.219 705.999 278.219H695.948V256.463ZM707.536 289.099C709.901 289.099 712.067 289.352 714.039 289.867C716.009 290.379 717.724 291.205 719.181 292.348C720.64 293.492 721.784 294.912 722.612 296.605C723.44 298.301 723.853 300.251 723.853 302.459C723.853 305.532 723.144 308.095 721.725 310.144C720.307 312.195 718.375 313.732 715.932 314.756C713.487 315.781 710.687 316.292 707.536 316.292H695.948V289.099H707.536Z" fill="white"/>
<path d="M806.916 246.352C803.013 248.205 799.92 250.807 797.635 254.156C795.347 257.508 794.205 261.391 794.205 265.804C794.205 269.665 794.955 272.957 796.453 275.677C797.949 278.396 799.841 280.684 802.128 282.535C804.413 284.388 806.817 285.925 809.341 287.147C811.863 288.369 814.148 289.333 816.199 290.043C819.665 291.305 822.72 292.585 825.363 293.885C828.003 295.187 830.072 296.765 831.571 298.616C833.067 300.469 833.817 302.932 833.817 306.005C833.817 309.24 832.632 311.879 830.269 313.928C827.904 315.979 824.831 317.003 821.045 317.003C817.892 317.003 815.055 316.351 812.532 315.051C810.009 313.749 807.704 311.897 805.616 309.493C803.527 307.089 801.575 304.312 799.763 301.157L789.357 308.369C791.171 312.155 793.615 315.661 796.689 318.893C799.763 322.128 803.369 324.707 807.508 326.637C811.647 328.571 816.159 329.536 821.045 329.536C824.593 329.536 828.003 328.963 831.275 327.823C834.544 326.68 837.481 325.063 840.083 322.973C842.684 320.884 844.733 318.304 846.232 315.229C847.728 312.155 848.479 308.687 848.479 304.823C848.479 301.197 847.868 298.045 846.645 295.364C845.421 292.685 843.788 290.339 841.737 288.328C839.687 286.319 837.423 284.645 834.939 283.303C832.457 281.964 829.992 280.861 827.549 279.992C823.136 278.417 819.548 276.881 816.789 275.381C814.031 273.885 812 272.289 810.699 270.593C809.399 268.899 808.749 266.987 808.749 264.857C808.749 262.493 809.655 260.423 811.471 258.649C813.281 256.877 816.119 255.989 819.983 255.989C822.74 255.989 825.164 256.52 827.253 257.587C829.341 258.649 831.175 260.068 832.752 261.841C834.329 263.616 835.629 265.529 836.655 267.577L848.005 261.192C846.587 258.276 844.635 255.476 842.153 252.796C839.669 250.119 836.613 247.911 832.989 246.175C829.363 244.443 825.105 243.575 820.217 243.575C815.253 243.575 810.819 244.503 806.916 246.352" fill="white"/>
<path d="M917.885 244.993H904.169V327.763H912.801H954.54V315.464H917.885V289.451H952.173V277.391H917.885V257.291H954.54V244.993H917.885Z" fill="white"/>
<path d="M1027.02 244.993H1013.07V327.763H1027.02V296.428H1035.54L1056.46 327.763H1073.25L1049.94 294.901C1051.46 294.447 1052.9 293.892 1054.28 293.236C1058.73 291.107 1062.18 288.112 1064.62 284.251C1067.06 280.387 1068.29 275.853 1068.29 270.652C1068.29 265.448 1067.06 260.937 1064.62 257.113C1062.18 253.289 1058.73 250.315 1054.28 248.185C1049.82 246.057 1044.6 244.993 1038.61 244.993H1027.02ZM1038.02 257.053C1041.17 257.053 1043.95 257.605 1046.36 258.709C1048.76 259.815 1050.63 261.391 1051.97 263.439C1053.31 265.489 1053.98 268.012 1053.98 271.007C1053.98 273.923 1053.31 276.427 1051.97 278.513C1050.63 280.604 1048.76 282.2 1046.36 283.303C1043.95 284.407 1041.17 284.959 1038.02 284.959H1027.02V257.053H1038.02Z" fill="white"/>
<path d="M1180.73 244.993L1156.38 303.167L1132.02 244.993H1115.94L1156.38 332.372L1196.82 244.993H1180.73Z" fill="white"/>
<path d="M1247.78 327.763H1261.84V244.993H1247.78V327.763Z" fill="white"/>
<path d="M1342.9 246.648C1337.66 248.698 1333.1 251.655 1329.24 255.517C1325.38 259.379 1322.36 263.933 1320.2 269.173C1318.03 274.417 1316.95 280.151 1316.95 286.376C1316.95 292.605 1318.03 298.341 1320.2 303.581C1322.36 308.825 1325.38 313.377 1329.24 317.237C1333.1 321.103 1337.66 324.057 1342.9 326.105C1348.14 328.155 1353.8 329.181 1359.87 329.181C1365.94 329.181 1370.98 328.432 1375 326.934C1379.02 325.437 1382.77 323.269 1386.24 320.431V303.877C1384.34 306.086 1382.12 308.074 1379.55 309.848C1376.99 311.621 1374.13 313.023 1370.98 314.047C1367.83 315.072 1364.28 315.581 1360.34 315.581C1355.3 315.581 1350.62 314.382 1346.33 311.976C1342.03 309.572 1338.56 306.165 1335.92 301.748C1333.28 297.335 1331.96 292.212 1331.96 286.376C1331.96 280.465 1333.28 275.322 1335.92 270.946C1338.56 266.572 1342.03 263.184 1346.33 260.779C1350.62 258.373 1355.3 257.17 1360.34 257.17C1364.28 257.17 1367.83 257.684 1370.98 258.709C1374.13 259.735 1376.99 261.133 1379.55 262.906C1382.12 264.678 1384.34 266.672 1386.24 268.879V252.323C1382.77 249.487 1379.02 247.319 1375 245.821C1370.98 244.325 1365.94 243.575 1359.87 243.575C1353.8 243.575 1348.14 244.601 1342.9 246.648" fill="white"/>
<path d="M1458.48 244.993H1444.76V327.763H1453.39H1495.13V315.464H1458.48V289.451H1492.77V277.391H1458.48V257.291H1495.13V244.993H1458.48Z" fill="white"/>
<path d="M1566.26 246.352C1562.36 248.205 1559.26 250.807 1556.97 254.156C1554.69 257.508 1553.55 261.391 1553.55 265.804C1553.55 269.665 1554.3 272.957 1555.79 275.677C1557.29 278.396 1559.18 280.684 1561.47 282.535C1563.75 284.388 1566.16 285.925 1568.68 287.147C1571.2 288.369 1573.49 289.333 1575.54 290.043C1579.01 291.305 1582.06 292.585 1584.7 293.885C1587.34 295.187 1589.41 296.765 1590.91 298.616C1592.41 300.469 1593.16 302.932 1593.16 306.005C1593.16 309.24 1591.97 311.879 1589.61 313.928C1587.25 315.979 1584.17 317.003 1580.39 317.003C1577.23 317.003 1574.4 316.351 1571.87 315.051C1569.35 313.749 1567.04 311.897 1564.96 309.493C1562.87 307.089 1560.92 304.312 1559.1 301.157L1548.7 308.369C1550.51 312.155 1552.95 315.661 1556.03 318.893C1559.1 322.128 1562.71 324.707 1566.85 326.637C1570.99 328.571 1575.5 329.536 1580.39 329.536C1583.93 329.536 1587.34 328.963 1590.62 327.823C1593.88 326.68 1596.82 325.063 1599.42 322.973C1602.02 320.884 1604.07 318.304 1605.57 315.229C1607.07 312.155 1607.82 308.687 1607.82 304.823C1607.82 301.197 1607.21 298.045 1605.99 295.364C1604.76 292.685 1603.13 290.339 1601.08 288.328C1599.03 286.319 1596.76 284.645 1594.28 283.303C1591.8 281.964 1589.33 280.861 1586.89 279.992C1582.47 278.417 1578.89 276.881 1576.13 275.381C1573.37 273.885 1571.34 272.289 1570.04 270.593C1568.74 268.899 1568.09 266.987 1568.09 264.857C1568.09 262.493 1569 260.423 1570.81 258.649C1572.62 256.877 1575.46 255.989 1579.32 255.989C1582.08 255.989 1584.5 256.52 1586.59 257.587C1588.68 258.649 1590.51 260.068 1592.09 261.841C1593.67 263.616 1594.97 265.529 1596 267.577L1607.35 261.192C1605.93 258.276 1603.98 255.476 1601.49 252.796C1599.01 250.119 1595.95 247.911 1592.33 246.175C1588.7 244.443 1584.45 243.575 1579.56 243.575C1574.59 243.575 1570.16 244.503 1566.26 246.352" fill="white"/>
<defs>
<radialGradient id="paint0_radial_260_83" cx="0" cy="0" r="1" gradientUnits="userSpaceOnUse" gradientTransform="translate(156.646 140.615) rotate(14.547) scale(249.79 249.79)">
<stop stop-color="#00FFFF"/>
<stop offset="0.994413" stop-color="#0071BC"/>
<stop offset="1" stop-color="#0071BC"/>
</radialGradient>
<radialGradient id="paint1_radial_260_83" cx="0" cy="0" r="1" gradientUnits="userSpaceOnUse" gradientTransform="translate(156.646 140.615) rotate(14.547) scale(249.79 249.79)">
<stop stop-color="#00FFFF"/>
<stop offset="0.994413" stop-color="#0071BC"/>
<stop offset="1" stop-color="#0071BC"/>
</radialGradient>
<radialGradient id="paint2_radial_260_83" cx="0" cy="0" r="1" gradientUnits="userSpaceOnUse" gradientTransform="translate(185.721 123.782) rotate(106.294) scale(207.26 207.26)">
<stop stop-color="#00FFFF"/>
<stop offset="0.994413" stop-color="#0071BC"/>
<stop offset="1" stop-color="#0071BC"/>
</radialGradient>
<radialGradient id="paint3_radial_260_83" cx="0" cy="0" r="1" gradientUnits="userSpaceOnUse" gradientTransform="translate(185.722 123.782) rotate(106.294) scale(207.26 207.26)">
<stop stop-color="#00FFFF"/>
<stop offset="0.994413" stop-color="#0071BC"/>
<stop offset="1" stop-color="#0071BC"/>
</radialGradient>
<linearGradient id="paint4_linear_260_83" x1="493.52" y1="75.5602" x2="505.958" y2="252.801" gradientUnits="userSpaceOnUse">
<stop stop-color="#00FFFF"/>
<stop offset="0.994413" stop-color="#0071BC"/>
<stop offset="1" stop-color="#0071BC"/>
</linearGradient>
<linearGradient id="paint5_linear_260_83" x1="491.738" y1="313.523" x2="501.769" y2="-57.6254" gradientUnits="userSpaceOnUse">
<stop stop-color="#00FFFF"/>
<stop offset="0.994413" stop-color="#0071BC"/>
<stop offset="1" stop-color="#0071BC"/>
</linearGradient>
<linearGradient id="paint6_linear_260_83" x1="761.703" y1="56.7403" x2="774.141" y2="233.981" gradientUnits="userSpaceOnUse">
<stop stop-color="#00FFFF"/>
<stop offset="0.994413" stop-color="#0071BC"/>
<stop offset="1" stop-color="#0071BC"/>
</linearGradient>
<linearGradient id="paint7_linear_260_83" x1="761.085" y1="320.803" x2="771.116" y2="-50.3457" gradientUnits="userSpaceOnUse">
<stop stop-color="#00FFFF"/>
<stop offset="0.994413" stop-color="#0071BC"/>
<stop offset="1" stop-color="#0071BC"/>
</linearGradient>
<linearGradient id="paint8_linear_260_83" x1="1024.37" y1="38.3077" x2="1036.81" y2="215.549" gradientUnits="userSpaceOnUse">
<stop stop-color="#00FFFF"/>
<stop offset="0.994413" stop-color="#0071BC"/>
<stop offset="1" stop-color="#0071BC"/>
</linearGradient>
<linearGradient id="paint9_linear_260_83" x1="1024.85" y1="327.931" x2="1034.88" y2="-43.217" gradientUnits="userSpaceOnUse">
<stop stop-color="#00FFFF"/>
<stop offset="0.994413" stop-color="#0071BC"/>
<stop offset="1" stop-color="#0071BC"/>
</linearGradient>
<linearGradient id="paint10_linear_260_83" x1="1284.51" y1="20.0518" x2="1296.95" y2="197.293" gradientUnits="userSpaceOnUse">
<stop stop-color="#00FFFF"/>
<stop offset="0.994413" stop-color="#0071BC"/>
<stop offset="1" stop-color="#0071BC"/>
</linearGradient>
<linearGradient id="paint11_linear_260_83" x1="1284.19" y1="334.94" x2="1294.22" y2="-36.2077" gradientUnits="userSpaceOnUse">
<stop stop-color="#00FFFF"/>
<stop offset="0.994413" stop-color="#0071BC"/>
<stop offset="1" stop-color="#0071BC"/>
</linearGradient>
<linearGradient id="paint12_linear_260_83" x1="1529.84" y1="2.83623" x2="1542.27" y2="180.077" gradientUnits="userSpaceOnUse">
<stop stop-color="#00FFFF"/>
<stop offset="0.994413" stop-color="#0071BC"/>
<stop offset="1" stop-color="#0071BC"/>
</linearGradient>
<linearGradient id="paint13_linear_260_83" x1="1529.86" y1="341.581" x2="1539.89" y2="-29.5675" gradientUnits="userSpaceOnUse">
<stop stop-color="#00FFFF"/>
<stop offset="0.994413" stop-color="#0071BC"/>
<stop offset="1" stop-color="#0071BC"/>
</linearGradient>
</defs>
</svg>
