<svg width="1635" height="433" viewBox="0 0 1635 433" fill="none" xmlns="http://www.w3.org/2000/svg">
<path d="M103.034 100.329C105.649 99.1931 108.318 98.121 111.05 97.1224C127.586 91.0677 145.527 88.0371 164.869 88.0371C182.11 88.0371 197.603 90.4864 211.353 95.3784C225.093 100.27 237.269 107.084 247.875 115.822C258.475 124.561 267.619 134.638 275.307 146.056L222.886 173.312C217.295 163.526 209.778 155.434 200.339 149.021C190.909 142.62 179.079 139.413 164.869 139.413C151.355 139.413 138.945 142.444 127.645 148.498C116.346 154.56 107.378 163.24 100.737 174.538C94.0994 185.838 90.7754 199.645 90.7754 215.949C90.7754 232.029 93.9754 245.953 100.39 257.716C106.79 269.486 115.529 278.572 126.602 284.978C137.665 291.386 150.421 294.586 164.869 294.586C173.725 294.586 181.757 293.482 188.981 291.268C196.205 289.054 202.378 285.912 207.505 281.83C212.631 277.754 217.001 272.98 220.613 267.501C224.226 262.028 227.078 256.142 229.177 249.852H164.169V204.42H287.893C289.055 223.989 287.07 242.282 281.95 259.29C276.822 276.298 268.901 291.326 258.181 304.37C247.465 317.426 234.069 327.616 217.994 334.95C201.913 342.292 183.509 345.962 162.771 345.962C143.202 345.962 125.255 342.874 108.953 336.7C107.641 336.204 106.345 335.688 105.066 335.16C129.015 352.454 158.441 362.65 190.243 362.65C270.683 362.65 335.893 297.44 335.893 217C335.893 136.558 270.683 71.3504 190.243 71.3504C157.534 71.3504 127.345 82.1331 103.034 100.329" fill="url(#paint0_radial_260_82)"/>
<path d="M103.034 100.329C105.649 99.1931 108.318 98.121 111.05 97.1224C127.586 91.0677 145.527 88.0371 164.869 88.0371C182.11 88.0371 197.603 90.4864 211.353 95.3784C225.093 100.27 237.269 107.084 247.875 115.822C258.475 124.561 267.619 134.638 275.307 146.056L222.886 173.312C217.295 163.526 209.778 155.434 200.339 149.021C190.909 142.62 179.079 139.413 164.869 139.413C151.355 139.413 138.945 142.444 127.645 148.498C116.346 154.56 107.378 163.24 100.737 174.538C94.0994 185.838 90.7754 199.645 90.7754 215.949C90.7754 232.029 93.9754 245.953 100.39 257.716C106.79 269.486 115.529 278.572 126.602 284.978C137.665 291.386 150.421 294.586 164.869 294.586C173.725 294.586 181.757 293.482 188.981 291.268C196.205 289.054 202.378 285.912 207.505 281.83C212.631 277.754 217.001 272.98 220.613 267.501C224.226 262.028 227.078 256.142 229.177 249.852H164.169V204.42H287.893C289.055 223.989 287.07 242.282 281.95 259.29C276.822 276.298 268.901 291.326 258.181 304.37C247.465 317.426 234.069 327.616 217.994 334.95C201.913 342.292 183.509 345.962 162.771 345.962C143.202 345.962 125.255 342.874 108.953 336.7C107.641 336.204 106.345 335.688 105.066 335.16C129.015 352.454 158.441 362.65 190.243 362.65C270.683 362.65 335.893 297.44 335.893 217C335.893 136.558 270.683 71.3504 190.243 71.3504C157.534 71.3504 127.345 82.1331 103.034 100.329" fill="url(#paint1_radial_260_82)"/>
<path d="M90.7754 215.949C90.7754 232.029 93.9754 245.953 100.39 257.716C106.79 269.485 115.529 278.572 126.602 284.978C137.665 291.386 150.421 294.586 164.869 294.586C173.725 294.586 181.757 293.482 188.981 291.268C196.205 289.054 202.378 285.912 207.505 281.83C209.633 280.138 211.623 278.317 213.491 276.384C187.045 271.608 161.842 262.277 137.885 248.382C122.207 236.269 106.527 224.157 90.8501 212.042C90.8047 213.33 90.7754 214.629 90.7754 215.949" fill="url(#paint2_radial_260_82)"/>
<path d="M273.878 279.928C269.568 288.728 264.337 296.878 258.181 304.37C247.465 317.426 234.069 327.616 217.994 334.95C201.914 342.292 183.509 345.962 162.772 345.962C143.202 345.962 125.256 342.874 108.953 336.7C107.641 336.204 106.345 335.688 105.066 335.16C129.016 352.454 158.441 362.65 190.244 362.65C252.568 362.65 305.74 323.498 326.534 268.452C309.721 274.989 292.173 278.821 273.878 279.928Z" fill="url(#paint3_radial_260_82)"/>
<path d="M352.548 139.272C350.017 140.533 348.957 143.569 350.148 146.141C360.412 168.392 365.619 192.201 365.619 217C365.619 310.464 289.585 386.497 196.121 386.497C146.485 386.497 99.8935 364.711 68.0428 328.009C66.2268 325.929 64.4668 323.807 62.7641 321.631C60.8455 324.619 57.9201 326.892 54.4668 327.969C56.2015 330.185 57.9854 332.353 59.8321 334.475C93.6428 373.668 143.256 396.94 196.121 396.94C244.183 396.94 289.369 378.223 323.356 344.236C357.345 310.247 376.061 265.061 376.061 217C376.061 190.668 370.525 165.371 359.609 141.731C358.735 139.827 356.845 138.719 354.879 138.719C354.091 138.719 353.295 138.895 352.548 139.272" fill="url(#paint4_radial_260_82)"/>
<path d="M68.8837 89.7628C34.897 123.749 16.1797 168.936 16.1797 217C16.1797 230.405 17.657 243.733 20.577 256.699C21.221 259.565 24.1264 261.323 26.973 260.591C29.713 259.888 31.3783 257.133 30.757 254.375C28.013 242.172 26.6237 229.624 26.6237 217C26.6237 123.539 102.66 47.5028 196.121 47.5028C234.397 47.5028 270.517 59.9508 300.574 83.5028L307.014 75.2827C275.102 50.2774 236.756 37.0601 196.121 37.0601C148.057 37.0601 102.869 55.7774 68.8837 89.7628" fill="url(#paint5_radial_260_82)"/>
<path d="M294.123 91.6841C294.123 104.531 304.575 114.981 317.42 114.981C330.266 114.981 340.716 104.531 340.716 91.6841C340.716 78.8388 330.266 68.3881 317.42 68.3881C304.575 68.3881 294.123 78.8388 294.123 91.6841ZM302.158 91.6841C302.158 83.2681 309.004 76.4228 317.42 76.4228C325.836 76.4228 332.683 83.2681 332.683 91.6841C332.683 100.101 325.836 106.947 317.42 106.947C309.004 106.947 302.158 100.101 302.158 91.6841Z" fill="url(#paint6_radial_260_82)"/>
<path d="M26.623 313.397C26.623 326.241 37.0737 336.693 49.9191 336.693C53.4604 336.693 56.8271 335.897 59.8311 334.475C63.0377 332.964 65.8471 330.74 68.0417 328.009C71.2791 324.008 73.215 318.932 73.215 313.397C73.215 300.552 62.7631 290.1 49.9191 290.1C37.0737 290.1 26.623 300.552 26.623 313.397M34.6564 313.397C34.6564 304.977 41.5004 298.135 49.9191 298.135C58.3377 298.135 65.1817 304.977 65.1817 313.397C65.1817 316.425 64.2977 319.253 62.7631 321.631C60.8444 324.619 57.9191 326.892 54.4657 327.969C53.0284 328.417 51.5017 328.659 49.9191 328.659C41.5004 328.659 34.6564 321.815 34.6564 313.397" fill="url(#paint7_radial_260_82)"/>
<path d="M478.48 74.7868C466.506 79.1748 456.051 85.4121 447.115 93.5068C438.176 101.601 431.262 111.339 426.372 122.723C421.479 134.107 419.039 146.797 419.039 160.793C419.039 174.792 421.44 187.565 426.246 199.115C431.052 210.668 437.756 220.617 446.355 228.965C454.958 237.311 465.158 243.723 476.964 248.191C488.767 252.655 501.755 254.892 515.918 254.892C530.927 254.892 544.25 252.236 555.886 246.924C567.523 241.612 577.218 234.236 584.976 224.791C592.73 215.349 598.466 204.471 602.178 192.16C605.884 179.852 607.32 166.611 606.478 152.445H516.931V185.329H563.98C562.463 189.883 560.396 194.144 557.783 198.104C555.167 202.067 552.006 205.525 548.296 208.475C544.586 211.427 540.118 213.705 534.891 215.304C529.662 216.909 523.844 217.708 517.436 217.708C506.979 217.708 497.747 215.392 489.739 210.752C481.727 206.115 475.403 199.539 470.767 191.021C466.127 182.507 463.812 172.428 463.812 160.793C463.812 148.991 466.214 138.999 471.02 130.817C475.826 122.64 482.316 116.36 490.498 111.972C498.674 107.589 507.654 105.396 517.436 105.396C527.72 105.396 536.283 107.715 543.112 112.352C549.943 116.991 555.38 122.849 559.43 129.933L597.372 110.203C591.804 101.94 585.184 94.6441 577.512 88.3201C569.838 81.9961 561.028 77.0641 551.08 73.5228C541.128 69.9815 529.916 68.2094 517.436 68.2094C503.436 68.2094 490.454 70.4041 478.48 74.7868" fill="url(#paint8_linear_260_82)"/>
<path d="M481.479 82.9611C470.611 86.9424 461.016 92.6637 452.959 99.9597C444.996 107.17 438.744 115.985 434.371 126.158C429.974 136.392 427.744 148.044 427.744 160.793C427.744 173.572 429.945 185.34 434.285 195.77C438.613 206.169 444.714 215.236 452.419 222.718C460.128 230.194 469.422 236.025 480.048 240.046C490.812 244.12 502.88 246.185 515.919 246.185C529.602 246.185 541.832 243.769 552.271 239.006C562.636 234.272 571.378 227.632 578.25 219.266C585.238 210.754 590.484 200.789 593.843 189.646C596.52 180.761 597.911 171.205 597.997 161.152H525.639V176.624H576.063L572.243 188.085C570.489 193.337 568.069 198.32 565.052 202.898C561.939 207.616 558.127 211.786 553.719 215.289C549.164 218.912 543.688 221.717 537.448 223.629C531.424 225.477 524.692 226.414 517.437 226.414C505.473 226.414 494.685 223.678 485.379 218.288C476 212.858 468.511 205.086 463.123 195.188C457.803 185.422 455.105 173.853 455.105 160.793C455.105 147.477 457.935 135.906 463.514 126.406C469.122 116.866 476.816 109.429 486.385 104.301C495.805 99.2504 506.255 96.6891 517.437 96.6891C529.452 96.6891 539.735 99.5344 548.007 105.149C553.548 108.913 558.344 113.424 562.331 118.609L584.246 107.216C580.54 102.79 576.436 98.7158 571.979 95.0411C565.119 89.3864 557.106 84.9091 548.163 81.7264C539.195 78.5344 528.856 76.9158 517.437 76.9158C504.536 76.9158 492.438 78.9491 481.479 82.9611" fill="url(#paint9_linear_260_82)"/>
<path d="M764.576 72.2586H751.928H723.596V249.327H751.928H764.576H841.221V214.167H764.576V173.441H836.162V139.037H764.576V107.419H841.221V72.2586H764.576Z" fill="url(#paint10_linear_260_82)"/>
<path d="M732.303 80.9638V240.621H832.515V222.874H755.869V164.734H827.455V147.744H755.869V98.7105H832.515V80.9638H732.303Z" fill="url(#paint11_linear_260_82)"/>
<path d="M964.661 249.326H1005.64V149.663L1128.07 258.181V72.2585H1086.84V171.923L964.661 63.4052V249.326Z" fill="url(#paint12_linear_260_82)"/>
<path d="M1095.55 80.9638V191.302L973.369 82.7824V240.621H996.935V130.31L1119.36 238.829V80.9638H1095.55Z" fill="url(#paint13_linear_260_82)"/>
<path d="M1295.02 72.2586H1282.37H1254.04V249.327H1295.02V178.247H1359.02V143.845H1295.02V108.936H1361.55V72.2586H1295.02Z" fill="url(#paint14_linear_260_82)"/>
<path d="M1262.75 80.9638V240.621H1286.32V169.54H1350.31V152.552H1286.32V100.23H1352.84V80.9638H1262.75Z" fill="url(#paint15_linear_260_82)"/>
<path d="M1580.86 72.2585V188.112C1580.86 197.052 1578.5 204.3 1573.78 209.867C1569.05 215.432 1561.89 218.213 1552.28 218.213C1542.83 218.213 1535.75 215.432 1531.03 209.867C1526.31 204.3 1523.94 197.052 1523.94 188.112V72.2585H1481.19V191.147C1481.19 202.277 1483 211.977 1486.63 220.239C1490.26 228.503 1495.32 235.289 1501.81 240.6C1508.3 245.913 1515.85 249.915 1524.45 252.615C1533.05 255.311 1542.32 256.663 1552.28 256.663C1562.22 256.663 1571.54 255.311 1580.23 252.615C1588.91 249.915 1596.5 245.913 1602.99 240.6C1609.48 235.289 1614.54 228.503 1618.17 220.239C1621.79 211.977 1623.61 202.277 1623.61 191.147V72.2585H1580.86Z" fill="url(#paint16_linear_260_82)"/>
<path d="M1589.57 80.9642V188.114C1589.57 199.123 1586.49 208.336 1580.41 215.5C1573.98 223.077 1564.51 226.92 1552.28 226.92C1540.2 226.92 1530.82 223.077 1524.38 215.497C1518.32 208.341 1515.24 199.127 1515.24 188.114V80.9642H1489.9V191.147C1489.9 201.023 1491.48 209.632 1494.61 216.743C1497.7 223.792 1501.86 229.392 1507.32 233.864C1512.92 238.44 1519.56 241.955 1527.05 244.308C1534.78 246.73 1543.26 247.958 1552.28 247.958C1561.29 247.958 1569.83 246.727 1577.64 244.302C1585.21 241.95 1591.89 238.438 1597.48 233.867C1602.87 229.454 1607.15 223.691 1610.2 216.737C1613.32 209.624 1614.9 201.013 1614.9 191.147V80.9642H1589.57Z" fill="url(#paint17_linear_260_82)"/>
<path d="M454.656 337.448L435.027 281.993H418.828L452.645 369.137L478.185 310.608L503.724 369.137L537.543 281.993H521.344L501.952 337.448L478.185 277.855L454.656 337.448Z" fill="url(#paint18_linear_260_82)"/>
<path d="M602.81 281.993H589.094V364.763H597.724H639.466V352.464H602.81V326.451H637.099V314.391H602.81V294.291H639.466V281.993H602.81Z" fill="url(#paint19_linear_260_82)"/>
<path d="M697.996 281.993V364.763H724.363C730.196 364.763 735.34 363.915 739.795 362.22C744.245 360.527 747.756 357.904 750.319 354.356C752.879 350.808 754.161 346.317 754.161 340.877C754.161 336.936 753.372 333.545 751.797 330.708C750.219 327.872 748.032 325.547 745.233 323.732C742.641 322.055 739.729 320.781 736.495 319.913C736.571 319.885 736.645 319.857 736.72 319.829C740.7 318.333 743.815 316.147 746.061 313.269C748.308 310.391 749.431 306.904 749.431 302.804C749.431 298.073 748.308 294.171 746.061 291.096C743.815 288.023 740.7 285.739 736.72 284.24C732.739 282.743 728.148 281.993 722.944 281.993H697.996ZM711.948 293.463H721.999C725.859 293.463 729.013 294.408 731.46 296.3C733.901 298.192 735.123 300.873 735.123 304.34C735.123 306.628 734.571 308.579 733.468 310.193C732.363 311.809 730.827 313.052 728.857 313.919C726.885 314.785 724.6 315.219 721.999 315.219H711.948V293.463ZM723.536 326.099C725.901 326.099 728.067 326.352 730.039 326.867C732.009 327.379 733.724 328.205 735.181 329.348C736.64 330.492 737.784 331.912 738.612 333.605C739.44 335.301 739.853 337.251 739.853 339.459C739.853 342.532 739.144 345.095 737.725 347.144C736.307 349.195 734.375 350.732 731.932 351.756C729.487 352.781 726.687 353.292 723.536 353.292H711.948V326.099H723.536Z" fill="url(#paint20_linear_260_82)"/>
<path d="M822.916 283.352C819.013 285.205 815.92 287.807 813.635 291.156C811.347 294.508 810.205 298.391 810.205 302.804C810.205 306.665 810.955 309.957 812.453 312.677C813.949 315.396 815.841 317.684 818.128 319.535C820.413 321.388 822.817 322.925 825.341 324.147C827.863 325.369 830.148 326.333 832.199 327.043C835.665 328.305 838.72 329.585 841.363 330.885C844.003 332.187 846.072 333.765 847.571 335.616C849.067 337.469 849.817 339.932 849.817 343.005C849.817 346.24 848.632 348.879 846.269 350.928C843.904 352.979 840.831 354.003 837.045 354.003C833.892 354.003 831.055 353.351 828.532 352.051C826.009 350.749 823.704 348.897 821.616 346.493C819.527 344.089 817.575 341.312 815.763 338.157L805.357 345.369C807.171 349.155 809.615 352.661 812.689 355.893C815.763 359.128 819.369 361.707 823.508 363.637C827.647 365.571 832.159 366.536 837.045 366.536C840.593 366.536 844.003 365.963 847.275 364.823C850.544 363.68 853.481 362.063 856.083 359.973C858.684 357.884 860.733 355.304 862.232 352.229C863.728 349.155 864.479 345.687 864.479 341.823C864.479 338.197 863.868 335.045 862.645 332.364C861.421 329.685 859.788 327.339 857.737 325.328C855.687 323.319 853.423 321.645 850.939 320.303C848.457 318.964 845.992 317.861 843.549 316.992C839.136 315.417 835.548 313.881 832.789 312.381C830.031 310.885 828 309.289 826.699 307.593C825.399 305.899 824.749 303.987 824.749 301.857C824.749 299.493 825.655 297.423 827.471 295.649C829.281 293.877 832.119 292.989 835.983 292.989C838.74 292.989 841.164 293.52 843.253 294.587C845.341 295.649 847.175 297.068 848.752 298.841C850.329 300.616 851.629 302.529 852.655 304.577L864.005 298.192C862.587 295.276 860.635 292.476 858.153 289.796C855.669 287.119 852.613 284.911 848.989 283.175C845.363 281.443 841.105 280.575 836.217 280.575C831.253 280.575 826.819 281.503 822.916 283.352" fill="url(#paint21_linear_260_82)"/>
<path d="M933.885 281.993H920.169V364.763H928.801H970.54V352.464H933.885V326.451H968.173V314.391H933.885V294.291H970.54V281.993H933.885Z" fill="url(#paint22_linear_260_82)"/>
<path d="M1043.02 281.993H1029.07V364.763H1043.02V333.428H1051.54L1072.46 364.763H1089.25L1065.94 331.901C1067.46 331.447 1068.9 330.892 1070.28 330.236C1074.73 328.107 1078.18 325.112 1080.62 321.251C1083.06 317.387 1084.29 312.853 1084.29 307.652C1084.29 302.448 1083.06 297.937 1080.62 294.113C1078.18 290.289 1074.73 287.315 1070.28 285.185C1065.82 283.057 1060.6 281.993 1054.61 281.993H1043.02ZM1054.02 294.053C1057.17 294.053 1059.95 294.605 1062.36 295.709C1064.76 296.815 1066.63 298.391 1067.97 300.439C1069.31 302.489 1069.98 305.012 1069.98 308.007C1069.98 310.923 1069.31 313.427 1067.97 315.513C1066.63 317.604 1064.76 319.2 1062.36 320.303C1059.95 321.407 1057.17 321.959 1054.02 321.959H1043.02V294.053H1054.02Z" fill="url(#paint23_linear_260_82)"/>
<path d="M1196.73 281.993L1172.38 340.167L1148.02 281.993H1131.94L1172.38 369.372L1212.82 281.993H1196.73Z" fill="url(#paint24_linear_260_82)"/>
<path d="M1263.78 364.763H1277.84V281.993H1263.78V364.763Z" fill="url(#paint25_linear_260_82)"/>
<path d="M1358.9 283.648C1353.66 285.698 1349.1 288.655 1345.24 292.517C1341.38 296.379 1338.36 300.933 1336.2 306.173C1334.03 311.417 1332.95 317.151 1332.95 323.376C1332.95 329.605 1334.03 335.341 1336.2 340.581C1338.36 345.825 1341.38 350.377 1345.24 354.237C1349.1 358.103 1353.66 361.057 1358.9 363.105C1364.14 365.155 1369.8 366.181 1375.87 366.181C1381.94 366.181 1386.98 365.432 1391 363.934C1395.02 362.437 1398.77 360.269 1402.24 357.431V340.877C1400.34 343.086 1398.12 345.074 1395.55 346.848C1392.99 348.621 1390.13 350.023 1386.98 351.047C1383.83 352.072 1380.28 352.581 1376.34 352.581C1371.3 352.581 1366.62 351.382 1362.33 348.976C1358.03 346.572 1354.56 343.165 1351.92 338.748C1349.28 334.335 1347.96 329.212 1347.96 323.376C1347.96 317.465 1349.28 312.322 1351.92 307.946C1354.56 303.572 1358.03 300.184 1362.33 297.779C1366.62 295.373 1371.3 294.17 1376.34 294.17C1380.28 294.17 1383.83 294.684 1386.98 295.709C1390.13 296.735 1392.99 298.133 1395.55 299.906C1398.12 301.678 1400.34 303.672 1402.24 305.879V289.323C1398.77 286.487 1395.02 284.319 1391 282.821C1386.98 281.325 1381.94 280.575 1375.87 280.575C1369.8 280.575 1364.14 281.601 1358.9 283.648" fill="url(#paint26_linear_260_82)"/>
<path d="M1474.48 281.993H1460.76V364.763H1469.39H1511.13V352.464H1474.48V326.451H1508.77V314.391H1474.48V294.291H1511.13V281.993H1474.48Z" fill="url(#paint27_linear_260_82)"/>
<path d="M1582.26 283.352C1578.36 285.205 1575.26 287.807 1572.97 291.156C1570.69 294.508 1569.55 298.391 1569.55 302.804C1569.55 306.665 1570.3 309.957 1571.79 312.677C1573.29 315.396 1575.18 317.684 1577.47 319.535C1579.75 321.388 1582.16 322.925 1584.68 324.147C1587.2 325.369 1589.49 326.333 1591.54 327.043C1595.01 328.305 1598.06 329.585 1600.7 330.885C1603.34 332.187 1605.41 333.765 1606.91 335.616C1608.41 337.469 1609.16 339.932 1609.16 343.005C1609.16 346.24 1607.97 348.879 1605.61 350.928C1603.25 352.979 1600.17 354.003 1596.39 354.003C1593.23 354.003 1590.4 353.351 1587.87 352.051C1585.35 350.749 1583.04 348.897 1580.96 346.493C1578.87 344.089 1576.92 341.312 1575.1 338.157L1564.7 345.369C1566.51 349.155 1568.95 352.661 1572.03 355.893C1575.1 359.128 1578.71 361.707 1582.85 363.637C1586.99 365.571 1591.5 366.536 1596.39 366.536C1599.93 366.536 1603.34 365.963 1606.62 364.823C1609.88 363.68 1612.82 362.063 1615.42 359.973C1618.02 357.884 1620.07 355.304 1621.57 352.229C1623.07 349.155 1623.82 345.687 1623.82 341.823C1623.82 338.197 1623.21 335.045 1621.99 332.364C1620.76 329.685 1619.13 327.339 1617.08 325.328C1615.03 323.319 1612.76 321.645 1610.28 320.303C1607.8 318.964 1605.33 317.861 1602.89 316.992C1598.47 315.417 1594.89 313.881 1592.13 312.381C1589.37 310.885 1587.34 309.289 1586.04 307.593C1584.74 305.899 1584.09 303.987 1584.09 301.857C1584.09 299.493 1585 297.423 1586.81 295.649C1588.62 293.877 1591.46 292.989 1595.32 292.989C1598.08 292.989 1600.5 293.52 1602.59 294.587C1604.68 295.649 1606.51 297.068 1608.09 298.841C1609.67 300.616 1610.97 302.529 1612 304.577L1623.35 298.192C1621.93 295.276 1619.98 292.476 1617.49 289.796C1615.01 287.119 1611.95 284.911 1608.33 283.175C1604.7 281.443 1600.45 280.575 1595.56 280.575C1590.59 280.575 1586.16 281.503 1582.26 283.352" fill="url(#paint28_linear_260_82)"/>
<defs>
<radialGradient id="paint0_radial_260_82" cx="0" cy="0" r="1" gradientUnits="userSpaceOnUse" gradientTransform="translate(172.646 177.615) rotate(14.547) scale(249.79 249.79)">
<stop stop-color="#00FFFF"/>
<stop offset="0.994413" stop-color="#0071BC"/>
<stop offset="1" stop-color="#0071BC"/>
</radialGradient>
<radialGradient id="paint1_radial_260_82" cx="0" cy="0" r="1" gradientUnits="userSpaceOnUse" gradientTransform="translate(172.646 177.615) rotate(14.547) scale(249.79 249.79)">
<stop stop-color="#00FFFF"/>
<stop offset="0.994413" stop-color="#0071BC"/>
<stop offset="1" stop-color="#0071BC"/>
</radialGradient>
<radialGradient id="paint2_radial_260_82" cx="0" cy="0" r="1" gradientUnits="userSpaceOnUse" gradientTransform="translate(201.721 160.782) rotate(106.294) scale(207.26 207.26)">
<stop stop-color="#00FFFF"/>
<stop offset="0.994413" stop-color="#0071BC"/>
<stop offset="1" stop-color="#0071BC"/>
</radialGradient>
<radialGradient id="paint3_radial_260_82" cx="0" cy="0" r="1" gradientUnits="userSpaceOnUse" gradientTransform="translate(201.722 160.782) rotate(106.294) scale(207.26 207.26)">
<stop stop-color="#00FFFF"/>
<stop offset="0.994413" stop-color="#0071BC"/>
<stop offset="1" stop-color="#0071BC"/>
</radialGradient>
<radialGradient id="paint4_radial_260_82" cx="0" cy="0" r="1" gradientUnits="userSpaceOnUse" gradientTransform="translate(239.979 221.993) rotate(13.6987) scale(252.012 252.012)">
<stop stop-color="#36013F"/>
<stop offset="0.994413" stop-color="#662D91"/>
<stop offset="1" stop-color="#662D91"/>
</radialGradient>
<radialGradient id="paint5_radial_260_82" cx="0" cy="0" r="1" gradientUnits="userSpaceOnUse" gradientTransform="translate(239.978 221.993) rotate(13.6987) scale(252.012 252.012)">
<stop stop-color="#36013F"/>
<stop offset="0.994413" stop-color="#662D91"/>
<stop offset="1" stop-color="#662D91"/>
</radialGradient>
<radialGradient id="paint6_radial_260_82" cx="0" cy="0" r="1" gradientUnits="userSpaceOnUse" gradientTransform="translate(239.979 221.993) rotate(13.6987) scale(252.012)">
<stop stop-color="#36013F"/>
<stop offset="0.994413" stop-color="#662D91"/>
<stop offset="1" stop-color="#662D91"/>
</radialGradient>
<radialGradient id="paint7_radial_260_82" cx="0" cy="0" r="1" gradientUnits="userSpaceOnUse" gradientTransform="translate(239.978 221.993) rotate(13.6987) scale(252.012 252.012)">
<stop stop-color="#36013F"/>
<stop offset="0.994413" stop-color="#662D91"/>
<stop offset="1" stop-color="#662D91"/>
</radialGradient>
<linearGradient id="paint8_linear_260_82" x1="509.52" y1="112.56" x2="521.958" y2="289.801" gradientUnits="userSpaceOnUse">
<stop stop-color="#00FFFF"/>
<stop offset="0.994413" stop-color="#0071BC"/>
<stop offset="1" stop-color="#0071BC"/>
</linearGradient>
<linearGradient id="paint9_linear_260_82" x1="507.738" y1="350.523" x2="517.769" y2="-20.6254" gradientUnits="userSpaceOnUse">
<stop stop-color="#00FFFF"/>
<stop offset="0.994413" stop-color="#0071BC"/>
<stop offset="1" stop-color="#0071BC"/>
</linearGradient>
<linearGradient id="paint10_linear_260_82" x1="777.703" y1="93.7403" x2="790.141" y2="270.981" gradientUnits="userSpaceOnUse">
<stop stop-color="#00FFFF"/>
<stop offset="0.994413" stop-color="#0071BC"/>
<stop offset="1" stop-color="#0071BC"/>
</linearGradient>
<linearGradient id="paint11_linear_260_82" x1="777.085" y1="357.803" x2="787.116" y2="-13.3457" gradientUnits="userSpaceOnUse">
<stop stop-color="#00FFFF"/>
<stop offset="0.994413" stop-color="#0071BC"/>
<stop offset="1" stop-color="#0071BC"/>
</linearGradient>
<linearGradient id="paint12_linear_260_82" x1="1040.37" y1="75.3077" x2="1052.81" y2="252.549" gradientUnits="userSpaceOnUse">
<stop stop-color="#00FFFF"/>
<stop offset="0.994413" stop-color="#0071BC"/>
<stop offset="1" stop-color="#0071BC"/>
</linearGradient>
<linearGradient id="paint13_linear_260_82" x1="1040.85" y1="364.931" x2="1050.88" y2="-6.21699" gradientUnits="userSpaceOnUse">
<stop stop-color="#00FFFF"/>
<stop offset="0.994413" stop-color="#0071BC"/>
<stop offset="1" stop-color="#0071BC"/>
</linearGradient>
<linearGradient id="paint14_linear_260_82" x1="1300.51" y1="57.0518" x2="1312.95" y2="234.293" gradientUnits="userSpaceOnUse">
<stop stop-color="#00FFFF"/>
<stop offset="0.994413" stop-color="#0071BC"/>
<stop offset="1" stop-color="#0071BC"/>
</linearGradient>
<linearGradient id="paint15_linear_260_82" x1="1300.19" y1="371.94" x2="1310.22" y2="0.792253" gradientUnits="userSpaceOnUse">
<stop stop-color="#00FFFF"/>
<stop offset="0.994413" stop-color="#0071BC"/>
<stop offset="1" stop-color="#0071BC"/>
</linearGradient>
<linearGradient id="paint16_linear_260_82" x1="1545.84" y1="39.8362" x2="1558.27" y2="217.077" gradientUnits="userSpaceOnUse">
<stop stop-color="#00FFFF"/>
<stop offset="0.994413" stop-color="#0071BC"/>
<stop offset="1" stop-color="#0071BC"/>
</linearGradient>
<linearGradient id="paint17_linear_260_82" x1="1545.86" y1="378.581" x2="1555.89" y2="7.43245" gradientUnits="userSpaceOnUse">
<stop stop-color="#00FFFF"/>
<stop offset="0.994413" stop-color="#0071BC"/>
<stop offset="1" stop-color="#0071BC"/>
</linearGradient>
<linearGradient id="paint18_linear_260_82" x1="480.79" y1="417.452" x2="478.391" y2="292.697" gradientUnits="userSpaceOnUse">
<stop stop-color="#36013F"/>
<stop offset="0.994413" stop-color="#662D91"/>
<stop offset="1" stop-color="#662D91"/>
</linearGradient>
<linearGradient id="paint19_linear_260_82" x1="616.039" y1="414.851" x2="613.64" y2="290.097" gradientUnits="userSpaceOnUse">
<stop stop-color="#36013F"/>
<stop offset="0.994413" stop-color="#662D91"/>
<stop offset="1" stop-color="#662D91"/>
</linearGradient>
<linearGradient id="paint20_linear_260_82" x1="727.233" y1="412.713" x2="724.834" y2="287.958" gradientUnits="userSpaceOnUse">
<stop stop-color="#36013F"/>
<stop offset="0.994413" stop-color="#662D91"/>
<stop offset="1" stop-color="#662D91"/>
</linearGradient>
<linearGradient id="paint21_linear_260_82" x1="836.39" y1="410.613" x2="833.991" y2="285.859" gradientUnits="userSpaceOnUse">
<stop stop-color="#36013F"/>
<stop offset="0.994413" stop-color="#662D91"/>
<stop offset="1" stop-color="#662D91"/>
</linearGradient>
<linearGradient id="paint22_linear_260_82" x1="946.992" y1="408.486" x2="944.592" y2="283.732" gradientUnits="userSpaceOnUse">
<stop stop-color="#36013F"/>
<stop offset="0.994413" stop-color="#662D91"/>
<stop offset="1" stop-color="#662D91"/>
</linearGradient>
<linearGradient id="paint23_linear_260_82" x1="1059.96" y1="406.314" x2="1057.56" y2="281.56" gradientUnits="userSpaceOnUse">
<stop stop-color="#36013F"/>
<stop offset="0.994413" stop-color="#662D91"/>
<stop offset="1" stop-color="#662D91"/>
</linearGradient>
<linearGradient id="paint24_linear_260_82" x1="1174.73" y1="404.107" x2="1172.33" y2="279.353" gradientUnits="userSpaceOnUse">
<stop stop-color="#36013F"/>
<stop offset="0.994413" stop-color="#662D91"/>
<stop offset="1" stop-color="#662D91"/>
</linearGradient>
<linearGradient id="paint25_linear_260_82" x1="1272.33" y1="402.23" x2="1269.93" y2="277.476" gradientUnits="userSpaceOnUse">
<stop stop-color="#36013F"/>
<stop offset="0.994413" stop-color="#662D91"/>
<stop offset="1" stop-color="#662D91"/>
</linearGradient>
<linearGradient id="paint26_linear_260_82" x1="1369.39" y1="400.363" x2="1366.99" y2="275.609" gradientUnits="userSpaceOnUse">
<stop stop-color="#36013F"/>
<stop offset="0.994413" stop-color="#662D91"/>
<stop offset="1" stop-color="#662D91"/>
</linearGradient>
<linearGradient id="paint27_linear_260_82" x1="1487.39" y1="398.094" x2="1484.99" y2="273.34" gradientUnits="userSpaceOnUse">
<stop stop-color="#36013F"/>
<stop offset="0.994413" stop-color="#662D91"/>
<stop offset="1" stop-color="#662D91"/>
</linearGradient>
<linearGradient id="paint28_linear_260_82" x1="1595.45" y1="396.016" x2="1593.05" y2="271.262" gradientUnits="userSpaceOnUse">
<stop stop-color="#36013F"/>
<stop offset="0.994413" stop-color="#662D91"/>
<stop offset="1" stop-color="#662D91"/>
</linearGradient>
</defs>
</svg>
