<svg width="1461" height="1001" viewBox="0 0 1461 1001" fill="none" xmlns="http://www.w3.org/2000/svg">
<path d="M1283.08 796.73C1285.64 802.46 1288.54 807.92 1292.94 812.18C1296.28 815.42 1301.45 817.62 1305.99 815.7C1311.75 813.26 1314.75 807.26 1320.03 804.17C1323.48 802.15 1328.72 802.23 1330.64 805.73C1331.63 807.53 1331.46 809.72 1331.26 811.77C1330.23 822.49 1317.15 857.22 1332.27 863.44C1338.46 865.98 1344.66 858.18 1350.66 857.39C1351.54 857.27 1352.56 857.28 1353.17 857.93C1353.58 858.36 1353.71 858.99 1353.79 859.58C1355.07 868.97 1349.3 877.64 1345.51 886.33C1343.37 891.25 1343.42 900.57 1351.22 896.42C1353.25 895.34 1355.26 893.84 1357.55 893.97C1362.1 894.23 1363.65 900.35 1362.72 904.82C1360.92 913.46 1355.1 920.09 1349.17 926.68C1340.43 936.4 1333.05 945.79 1334.47 959.55C1335.2 966.61 1340.16 980.17 1332.21 985C1324.24 989.84 1315.96 985.49 1308.73 979.75C1295.86 963.41 1286.87 943.9 1283.85 919.76C1277.15 881.7 1285.14 836.97 1283.08 796.73Z" fill="#37C1D3"/>
<path d="M1231.81 863.2C1233.76 858.8 1231.65 853.61 1228.65 849.85C1225.64 846.09 1221.73 843.06 1219.21 838.95C1210.99 825.55 1225.93 825.37 1233.88 819.74C1237.97 816.84 1240.11 811.78 1240.6 806.79C1241.28 799.98 1239.83 792.23 1238.07 785.64C1236.17 778.52 1233.42 770.17 1238.04 764.44C1248.13 751.92 1266.15 765.98 1272.63 775.24C1277.08 781.59 1279.79 789.39 1283.08 796.74C1285.14 836.98 1277.16 881.71 1283.87 919.76C1286.89 943.9 1295.88 963.41 1308.75 979.75C1304.29 976.21 1300.22 972.14 1296.89 969.36C1284.97 959.46 1272.23 950.19 1257.96 943.96C1250.94 940.89 1242.98 939.36 1236.42 935.35C1232.33 932.85 1228.81 929.06 1227.68 924.4C1224.54 911.44 1239.17 903.18 1222.86 893.76C1219.49 891.81 1215.86 889.97 1213.58 886.81C1204.45 874.18 1228.26 871.22 1231.81 863.2Z" fill="#78DFE8"/>
<path fill-rule="evenodd" clip-rule="evenodd" d="M1333.68 987.39C1330.8 989.14 1327.9 989.88 1325.03 989.88C1315.36 989.88 1306.14 981.48 1299.54 975.43L1299.49 975.384C1297.92 973.951 1296.44 972.608 1295.1 971.49C1285.31 963.36 1272.13 953.17 1256.85 946.5C1254.26 945.37 1251.55 944.46 1248.68 943.5L1248.68 943.499C1244.05 941.949 1239.27 940.35 1234.96 937.71C1229.71 934.5 1226.15 929.99 1224.95 925.02C1223.56 919.313 1225.17 914.365 1226.46 910.396L1226.46 910.39L1226.46 910.372C1228.46 904.223 1229.56 900.835 1221.45 896.15L1220.36 895.53L1220.33 895.516C1217.22 893.739 1213.68 891.721 1211.3 888.42C1209.09 885.36 1208.28 882.38 1208.91 879.56C1210.06 874.35 1215.58 871.26 1220.92 868.28C1224.39 866.34 1228.32 864.14 1229.25 862.04C1230.72 858.73 1228.77 854.47 1226.46 851.58C1225.34 850.19 1224.09 848.9 1222.76 847.53L1222.68 847.45C1220.62 845.315 1218.48 843.106 1216.82 840.4C1214.22 836.16 1213.44 832.6 1214.42 829.52C1215.89 824.92 1220.77 822.84 1225.49 820.84C1227.9 819.82 1230.39 818.76 1232.27 817.43C1235.32 815.27 1237.34 811.29 1237.82 806.5C1238.34 801.18 1237.52 794.4 1235.37 786.35L1234.95 784.78C1233.05 777.79 1230.69 769.09 1235.87 762.66C1239.17 758.57 1243.57 756.51 1248.67 756.67C1259.43 757.03 1270.5 767.25 1274.95 773.61C1278.45 778.62 1280.9 784.44 1283.27 790.07C1286.48 797.71 1289.51 804.92 1294.91 810.15C1297.48 812.64 1301.56 814.52 1304.91 813.1C1307.53 811.983 1309.6 809.851 1311.79 807.588L1311.81 807.57L1311.85 807.532C1313.84 805.464 1315.92 803.32 1318.62 801.74C1321.43 800.1 1325 799.59 1327.95 800.41C1330.26 801.05 1332.05 802.43 1333.12 804.38C1334.55 806.986 1334.27 809.868 1334.07 811.983L1334.07 812.04C1333.81 814.681 1332.92 818.486 1331.89 822.897L1331.87 822.99L1331.86 823.026C1328.89 835.74 1323.93 856.974 1333.35 860.85C1335.59 861.77 1338.21 860.39 1341.95 858.18C1344.6 856.61 1347.34 854.99 1350.31 854.6C1352.43 854.33 1354.09 854.79 1355.23 855.99C1356.19 857.01 1356.46 858.23 1356.59 859.19C1357.71 867.43 1354.12 874.84 1350.65 882L1350.51 882.279C1349.68 884.005 1348.85 885.722 1348.1 887.44C1346.76 890.52 1346.99 894.15 1347.66 894.62C1347.66 894.62 1347.66 894.62 1347.66 894.621C1347.72 894.635 1348.31 894.783 1349.92 893.93C1350.29 893.73 1350.67 893.52 1351.04 893.3C1352.83 892.27 1355.08 891.01 1357.73 891.15C1360 891.28 1361.96 892.34 1363.41 894.23C1365.51 896.97 1366.33 901.34 1365.49 905.37C1363.49 914.95 1357.01 922.17 1351.28 928.54C1342.85 937.91 1335.98 946.69 1337.28 959.25C1337.41 960.61 1337.73 962.23 1338.06 963.976L1338.1 964.17C1339.59 971.93 1341.63 982.56 1333.68 987.39ZM1331.69 959.83C1330.16 945 1338.11 934.79 1347.1 924.79C1352.61 918.66 1358.3 912.32 1359.97 904.23C1360.46 901.85 1360.03 899.08 1358.93 897.65C1358.36 896.91 1357.81 896.78 1357.39 896.76C1356.33 896.721 1355.17 897.389 1353.87 898.135L1353.81 898.17C1353.38 898.42 1352.96 898.66 1352.53 898.89C1347.8 901.4 1345.04 899.87 1343.81 898.73C1340.29 895.47 1341.39 888.69 1342.92 885.19C1343.7 883.406 1344.56 881.621 1345.42 879.828L1345.56 879.54C1348.78 872.91 1351.81 866.64 1351.02 860.17C1349.18 860.41 1347.05 861.67 1344.79 863.01C1340.76 865.4 1336.19 868.1 1331.19 866.04C1317.34 860.344 1322.77 837.125 1326.37 821.735L1326.38 821.7L1326.43 821.497C1327.4 817.333 1328.23 813.744 1328.45 811.5C1328.62 809.69 1328.72 808.11 1328.16 807.08C1327.84 806.48 1327.25 806.06 1326.43 805.83C1324.95 805.41 1322.93 805.73 1321.44 806.6C1319.39 807.8 1317.66 809.59 1315.83 811.49L1315.77 811.549C1313.3 814.101 1310.74 816.742 1307.08 818.29C1300.98 820.86 1294.59 817.7 1290.98 814.2C1284.77 808.192 1281.38 800.139 1278.1 792.346L1278.07 792.26C1275.72 786.65 1273.49 781.36 1270.33 776.84C1266.22 770.96 1256.72 762.57 1248.46 762.29C1245.19 762.19 1242.44 763.45 1240.23 766.19C1236.85 770.39 1238.63 776.96 1240.36 783.31L1240.79 784.91C1243.15 793.73 1244 800.98 1243.4 807.06C1242.76 813.47 1239.88 818.92 1235.5 822.02C1233.13 823.69 1230.36 824.87 1227.68 826.01L1227.67 826.013C1224.12 827.522 1220.46 829.081 1219.77 831.23C1219.21 832.98 1220.46 835.59 1221.61 837.46C1222.97 839.67 1224.83 841.59 1226.8 843.62L1226.96 843.789C1228.27 845.146 1229.62 846.544 1230.85 848.08C1235.18 853.49 1236.5 859.56 1234.39 864.33C1232.7 868.144 1228.32 870.592 1223.68 873.188L1223.66 873.2L1223.65 873.206C1219.59 875.474 1215 878.042 1214.39 880.79C1214.13 881.99 1214.6 883.41 1215.85 885.14C1217.53 887.46 1220.25 889.02 1223.14 890.66L1224.26 891.3C1236.32 898.27 1233.92 905.65 1231.8 912.15L1231.78 912.201C1230.61 915.825 1229.39 919.569 1230.4 923.72C1231.55 928.46 1235.58 931.53 1237.88 932.94C1241.62 935.237 1245.87 936.664 1250.37 938.174L1250.45 938.2L1250.46 938.202C1253.31 939.161 1256.26 940.151 1259.08 941.38C1275.01 948.33 1288.61 958.83 1298.68 967.19C1300.1 968.379 1301.65 969.789 1303.31 971.298L1303.31 971.3C1311.52 978.78 1321.75 988.08 1330.77 982.59C1335.37 979.799 1333.84 971.769 1332.6 965.299L1332.59 965.24C1332.2 963.23 1331.85 961.38 1331.69 959.83Z" fill="#1A4A67"/>
<path d="M1326.56 995.98C1326.89 995.98 1327.22 995.92 1327.55 995.8C1329 995.25 1329.74 993.63 1329.19 992.18L1269.34 833.04C1268.79 831.59 1267.17 830.85 1265.72 831.4C1264.27 831.95 1263.53 833.57 1264.08 835.02L1323.93 994.16C1324.36 995.29 1325.42 995.98 1326.56 995.98Z" fill="white"/>
<path d="M1284.18 885.96C1285.09 885.96 1285.98 885.52 1286.52 884.71C1287.38 883.42 1287.03 881.67 1285.74 880.81L1256.62 861.4C1255.32 860.54 1253.58 860.89 1252.72 862.18C1251.86 863.47 1252.21 865.22 1253.5 866.08L1282.62 885.49C1283.11 885.81 1283.65 885.96 1284.18 885.96Z" fill="white"/>
<path d="M1305.29 943.88C1306.2 943.88 1307.09 943.44 1307.63 942.63C1308.49 941.34 1308.14 939.59 1306.85 938.73L1277.73 919.32C1276.43 918.46 1274.69 918.81 1273.83 920.1C1272.97 921.39 1273.32 923.14 1274.61 924L1303.73 943.41C1304.21 943.73 1304.75 943.88 1305.29 943.88Z" fill="white"/>
<path d="M1298.32 915.42C1299.25 915.42 1300.15 914.96 1300.69 914.13L1319.22 885.21C1320.05 883.9 1319.67 882.17 1318.37 881.33C1317.07 880.49 1315.33 880.87 1314.49 882.18L1295.96 911.1C1295.13 912.41 1295.51 914.14 1296.81 914.98C1297.28 915.28 1297.8 915.42 1298.32 915.42Z" fill="white"/>
<path d="M1377.54 960.97C1385.03 949.73 1370.05 927.25 1381.29 916.01C1400 897.3 1420.56 876.66 1432.2 851.43C1432.39 851.94 1432.55 852.46 1432.64 852.99C1433.35 856.98 1431.5 860.92 1430.56 864.86C1429.62 868.8 1430.06 873.82 1433.65 875.7C1438.66 878.34 1444.88 872.58 1450.19 874.56C1454.02 875.98 1455.41 881 1454.23 884.91C1453.05 888.82 1450.04 891.85 1447.16 894.75C1439.37 902.58 1431.79 910.61 1424.44 918.84C1422.47 921.05 1420.79 925.09 1423.46 926.37C1424.26 926.76 1425.2 926.67 1426.09 926.58C1432.34 925.92 1438.6 925.27 1444.85 924.61C1448.62 924.21 1452.9 923.97 1455.7 926.52C1459.22 929.71 1458.31 935.83 1455.07 939.3C1451.83 942.77 1447.04 944.25 1442.46 945.54C1433.05 948.19 1427.77 951.87 1424.16 961.22C1415.94 982.48 1398.15 988.21 1378.18 988.03C1380.15 987.7 1382.1 987.29 1383.98 986.83L1364.68 987.15C1369.24 987.67 1373.76 987.99 1378.18 988.03C1368.09 989.72 1357.29 989.28 1351.59 982.53C1362.05 978.62 1371.16 971.61 1377.54 960.97Z" fill="#37C1D3"/>
<path d="M1343.97 948.91C1340.51 944.44 1333.8 941.2 1334.53 935.59C1334.96 932.27 1338.05 929.97 1341.1 928.6C1344.15 927.23 1347.53 926.32 1349.96 924.02C1354.57 919.63 1353.85 911.91 1350.86 906.29C1347.86 900.68 1343.08 896.2 1339.93 890.67C1338.88 888.83 1338.01 886.59 1338.86 884.65C1339.63 882.87 1341.62 881.94 1343.52 881.57C1349.04 880.48 1354.58 882.78 1360.09 883.88C1365.6 884.98 1372.42 884.34 1375.24 879.47C1378.27 874.25 1374.9 867.51 1376.36 861.66C1377.83 855.79 1384.82 851.98 1390.55 853.94C1393.93 855.09 1396.51 857.79 1399.48 859.77C1402.45 861.75 1406.51 863 1409.49 861.03C1413.04 858.69 1412.9 853.46 1415.06 849.8C1417.02 846.47 1421.16 844.57 1424.96 845.26C1428.23 845.85 1431.05 848.31 1432.21 851.41C1420.57 876.65 1400 897.29 1381.3 915.99C1370.06 927.23 1385.05 949.71 1377.55 960.95C1371.16 971.59 1362.05 978.6 1351.6 982.5C1349.18 979.63 1347.66 975.66 1347.54 970.18C1347.36 962.86 1348.47 954.71 1343.97 948.91Z" fill="#78DFE8"/>
<path fill-rule="evenodd" clip-rule="evenodd" d="M1378.33 990.85C1375.26 991.35 1372.04 991.68 1368.85 991.68C1362.73 991.68 1356.74 990.48 1352.21 987.02C1347.43 983.36 1344.92 977.73 1344.74 970.29C1344.7 969.101 1344.71 967.889 1344.72 966.669C1344.73 966.463 1344.73 966.257 1344.73 966.05C1344.79 960.17 1344.83 954.61 1341.77 950.66C1340.83 949.45 1339.56 948.29 1338.21 947.06L1338.21 947.059C1334.86 944.009 1331.07 940.56 1331.76 935.26C1332.26 931.49 1335.17 928.22 1339.97 926.07C1340.67 925.753 1341.38 925.467 1342.1 925.178C1342.2 925.139 1342.3 925.1 1342.4 925.06L1342.45 925.041C1344.59 924.178 1346.62 923.36 1348.04 922.01C1351.53 918.69 1350.86 912.27 1348.39 907.65C1346.95 904.968 1345.06 902.541 1343.05 899.972L1342.99 899.89C1341.08 897.45 1339.1 894.92 1337.49 892.1L1337.47 892.074C1336.78 890.838 1334.72 887.174 1336.29 883.57C1337.33 881.17 1339.71 879.49 1342.98 878.85C1347.69 877.923 1352.15 879.063 1356.48 880.17L1356.52 880.18C1357.89 880.54 1359.27 880.89 1360.65 881.17C1364.95 882.04 1370.71 881.75 1372.82 878.11C1374.08 875.93 1373.81 873.12 1373.48 869.87C1373.19 867 1372.89 864.03 1373.64 861.03C1374.53 857.47 1377.04 854.34 1380.52 852.44C1384 850.54 1388 850.13 1391.46 851.32C1394.18 852.24 1396.31 853.893 1398.38 855.497L1398.45 855.55C1399.3 856.21 1400.15 856.87 1401.04 857.47C1403.05 858.82 1406.07 859.95 1407.94 858.72C1409.3 857.83 1409.9 855.87 1410.58 853.61L1410.61 853.522C1411.13 851.819 1411.67 850.061 1412.64 848.41C1415.21 844.05 1420.45 841.63 1425.46 842.53C1430.44 843.42 1434.53 847.53 1435.42 852.51C1436.06 856.093 1435.04 859.517 1434.14 862.537L1434.13 862.58C1434.09 862.703 1434.06 862.825 1434.02 862.948C1433.76 863.805 1433.51 864.663 1433.31 865.52C1432.61 868.44 1432.83 872.1 1434.97 873.22C1436.55 874.05 1438.76 873.38 1441.32 872.6C1444.33 871.68 1447.74 870.64 1451.18 871.93C1456.69 873.98 1458.46 880.69 1456.93 885.73C1455.56 890.288 1452.2 893.672 1449.22 896.667L1449.16 896.73C1441.45 904.48 1433.84 912.55 1426.54 920.71C1425.53 921.84 1424.98 923.19 1424.9 923.85C1425.16 923.85 1425.47 923.821 1425.69 923.8C1425.73 923.796 1425.77 923.793 1425.8 923.79L1444.56 921.82C1448.95 921.36 1453.95 921.14 1457.59 924.44C1459.52 926.19 1460.64 928.7 1460.76 931.52C1460.91 935.01 1459.55 938.63 1457.13 941.22C1453.48 945.12 1448.47 946.76 1443.23 948.24C1433.97 950.85 1429.83 954.38 1426.79 962.23C1417.61 985.95 1397.13 990.99 1378.33 990.85ZM1364.82 985.84L1364.99 984.35C1369.64 984.88 1373.97 985.16 1378.03 985.21C1379.98 984.87 1381.78 984.48 1383.31 984.1L1383.55 985.09C1403.42 984.04 1415.42 976.04 1421.54 960.21C1425.76 949.28 1432.38 945.46 1441.7 942.84C1446.31 941.54 1450.35 940.24 1453.01 937.39C1454.38 935.93 1455.21 933.72 1455.13 931.76C1455.1 930.83 1454.84 929.54 1453.81 928.61C1451.89 926.87 1448.47 927.06 1445.14 927.41L1426.38 929.38L1426.32 929.386C1425.28 929.487 1423.74 929.635 1422.23 928.9C1420.72 928.17 1419.71 926.86 1419.38 925.22C1418.79 922.23 1420.61 918.9 1422.34 916.96C1429.71 908.73 1437.38 900.58 1445.17 892.76L1445.28 892.652C1447.88 890.016 1450.57 887.296 1451.54 884.09C1452.32 881.53 1451.48 878.04 1449.21 877.19C1447.54 876.573 1445.33 877.243 1442.97 877.96L1442.94 877.97C1439.67 878.97 1435.96 880.09 1432.34 878.19C1427.19 875.48 1426.69 868.97 1427.82 864.21C1428.04 863.237 1428.33 862.273 1428.62 861.309C1428.65 861.192 1428.68 861.076 1428.72 860.96L1428.73 860.924C1429.53 858.268 1430.28 855.76 1429.87 853.48C1429.4 850.85 1427.07 848.51 1424.44 848.04C1421.81 847.57 1418.81 848.94 1417.46 851.24C1416.82 852.311 1416.4 853.682 1415.96 855.134L1415.94 855.21C1415.07 858.1 1414.08 861.38 1411.02 863.39C1407.47 865.72 1402.57 865.25 1397.89 862.12C1396.89 861.45 1395.93 860.71 1394.97 859.96L1394.93 859.932C1393.15 858.542 1391.47 857.236 1389.62 856.61C1387.62 855.93 1385.28 856.2 1383.18 857.34C1381.07 858.48 1379.57 860.31 1379.06 862.35C1378.54 864.392 1378.78 866.751 1379.03 869.239L1379.03 869.27L1379.03 869.274C1379.4 872.963 1379.82 877.141 1377.64 880.89C1374.03 887.1 1365.92 887.94 1359.5 886.65C1358.03 886.36 1356.55 885.98 1355.08 885.6C1351.18 884.6 1347.51 883.66 1344.03 884.34C1342.69 884.61 1341.68 885.16 1341.41 885.79C1341.12 886.47 1341.45 887.72 1342.35 889.3C1343.76 891.76 1345.52 894.02 1347.39 896.41C1349.48 899.08 1351.63 901.84 1353.31 904.98C1356.67 911.27 1357.66 920.56 1351.87 926.06C1349.66 928.16 1347.02 929.22 1344.45 930.25C1344.36 930.286 1344.27 930.322 1344.18 930.358C1343.52 930.62 1342.87 930.88 1342.23 931.17C1340.85 931.79 1337.62 933.49 1337.3 935.96C1337.01 938.19 1338.87 940.06 1341.96 942.88C1343.43 944.21 1344.95 945.6 1346.18 947.19C1350.43 952.663 1350.37 959.746 1350.32 966.012L1350.32 966.07L1350.32 966.077C1350.31 967.445 1350.3 968.802 1350.33 970.13C1350.47 975.86 1352.19 979.92 1355.6 982.53C1358.11 984.45 1361.35 985.44 1364.82 985.84Z" fill="#1A4A67"/>
<path d="M1361.17 992.31C1362.31 992.31 1363.38 991.61 1363.8 990.49L1398.46 898.34C1399.01 896.89 1398.27 895.27 1396.82 894.72C1395.37 894.17 1393.75 894.91 1393.2 896.36L1358.54 988.51C1357.99 989.96 1358.73 991.58 1360.18 992.13C1360.51 992.25 1360.85 992.31 1361.17 992.31Z" fill="white"/>
<path d="M1385.72 928.6C1386.25 928.6 1386.8 928.45 1387.28 928.13L1404.14 916.89C1405.43 916.03 1405.78 914.28 1404.92 912.99C1404.06 911.7 1402.31 911.35 1401.02 912.21L1384.16 923.45C1382.87 924.31 1382.52 926.06 1383.38 927.35C1383.92 928.16 1384.81 928.6 1385.72 928.6Z" fill="white"/>
<path d="M1373.5 962.14C1374.03 962.14 1374.58 961.99 1375.06 961.67L1391.92 950.43C1393.21 949.57 1393.56 947.82 1392.7 946.53C1391.84 945.24 1390.1 944.89 1388.8 945.75L1371.94 956.99C1370.65 957.85 1370.3 959.6 1371.16 960.89C1371.7 961.7 1372.59 962.14 1373.5 962.14Z" fill="white"/>
<path d="M1377.53 945.66C1378.05 945.66 1378.57 945.52 1379.04 945.22C1380.35 944.38 1380.73 942.64 1379.89 941.34L1369.16 924.59C1368.32 923.28 1366.58 922.9 1365.28 923.74C1363.97 924.58 1363.59 926.32 1364.43 927.62L1375.16 944.37C1375.7 945.21 1376.61 945.66 1377.53 945.66Z" fill="white"/>
<path d="M1383.98 986.82C1382.11 987.28 1380.16 987.69 1378.18 988.02C1373.76 987.98 1369.23 987.66 1364.68 987.14L1383.98 986.82Z" fill="#37C1D3"/>
<path d="M1341.52 755.29C1335.73 755.29 1331.04 750.598 1331.04 744.81C1331.04 739.022 1335.73 734.33 1341.52 734.33C1347.31 734.33 1352 739.022 1352 744.81C1352 750.598 1347.31 755.29 1341.52 755.29Z" fill="#8BDEEC"/>
<path d="M1391.99 746.78C1386.2 746.78 1381.51 742.088 1381.51 736.3C1381.51 730.512 1386.2 725.82 1391.99 725.82C1397.78 725.82 1402.47 730.512 1402.47 736.3C1402.47 742.088 1397.78 746.78 1391.99 746.78Z" fill="#8BDEEC"/>
<path d="M1384.89 801.25C1379.1 801.25 1374.41 796.558 1374.41 790.77C1374.41 784.982 1379.1 780.29 1384.89 780.29C1390.68 780.29 1395.37 784.982 1395.37 790.77C1395.37 796.558 1390.68 801.25 1384.89 801.25Z" fill="#8BDEEC"/>
<path d="M48.5888 761.29H964.869C989.599 761.29 1009.83 741.06 1009.83 716.33V48.01C1009.83 23.28 989.599 3.05005 964.869 3.05005H48.5888C23.8588 3.05005 3.62875 23.28 3.62875 48.01V716.33C3.62875 741.05 23.8588 761.29 48.5888 761.29Z" fill="#E6E7E8"/>
<path fill-rule="evenodd" clip-rule="evenodd" d="M964.869 764.1H48.5888C22.2487 764.1 0.808746 742.67 0.818756 716.32V48.01C0.818756 21.67 22.2487 0.23999 48.5888 0.23999H964.869C991.209 0.23999 1012.64 21.67 1012.64 48.01V716.33C1012.64 742.67 991.209 764.1 964.869 764.1ZM1007.02 48C1007.02 24.76 988.109 5.84999 964.869 5.84999V5.85999H48.5888C25.3488 5.85999 6.43875 24.77 6.43875 48.01V716.31C6.43875 739.55 25.3488 758.46 48.5888 758.46H964.869C988.109 758.46 1007.02 739.55 1007.02 716.31V48Z" fill="#1A4A67"/>
<path d="M76.6888 698.04H941.099C965.829 698.04 986.059 677.81 986.059 653.08V80.98C986.059 56.25 965.829 36.02 941.099 36.02H76.6888C51.9588 36.02 31.7287 56.25 31.7287 80.98V653.08C31.7287 677.81 51.9588 698.04 76.6888 698.04Z" fill="white"/>
<path d="M453.579 726.7H524.149C525.869 726.7 527.269 725.29 527.269 723.58C527.269 721.86 525.859 720.46 524.149 720.46H453.579C451.859 720.46 450.459 721.87 450.459 723.58C450.459 725.29 451.859 726.7 453.579 726.7Z" fill="#1A4A67"/>
<path d="M956.139 28.52C952.262 28.52 949.119 25.377 949.119 21.5C949.119 17.6229 952.262 14.48 956.139 14.48C960.016 14.48 963.159 17.6229 963.159 21.5C963.159 25.377 960.016 28.52 956.139 28.52Z" fill="#1A4A67"/>
<path d="M925.919 28.52C922.042 28.52 918.899 25.377 918.899 21.5C918.899 17.6229 922.042 14.48 925.919 14.48C929.796 14.48 932.939 17.6229 932.939 21.5C932.939 25.377 929.796 28.52 925.919 28.52Z" fill="#78DFE8"/>
<path d="M895.419 28.52C891.542 28.52 888.399 25.377 888.399 21.5C888.399 17.6229 891.542 14.48 895.419 14.48C899.296 14.48 902.439 17.6229 902.439 21.5C902.439 25.377 899.296 28.52 895.419 28.52Z" fill="#37C1D3"/>
<path d="M722.979 411.06H894.089C898.679 411.06 902.439 407.3 902.439 402.71C902.439 398.12 898.679 394.36 894.089 394.36H722.979C718.389 394.36 714.629 398.12 714.629 402.71C714.629 407.3 718.389 411.06 722.979 411.06Z" fill="#E6E7E8"/>
<path d="M722.979 449.29H894.089C898.679 449.29 902.439 445.53 902.439 440.94C902.439 436.35 898.679 432.59 894.089 432.59H722.979C718.389 432.59 714.629 436.35 714.629 440.94C714.629 445.53 718.389 449.29 722.979 449.29Z" fill="#E6E7E8"/>
<path d="M722.979 487.51H894.089C898.679 487.51 902.439 483.75 902.439 479.16C902.439 474.57 898.679 470.81 894.089 470.81H722.979C718.389 470.81 714.629 474.57 714.629 479.16C714.629 483.76 718.389 487.51 722.979 487.51Z" fill="#E6E7E8"/>
<path d="M722.979 530.61H894.089C898.679 530.61 902.439 526.85 902.439 522.26C902.439 517.67 898.679 513.91 894.089 513.91H722.979C718.389 513.91 714.629 517.67 714.629 522.26C714.629 526.85 718.389 530.61 722.979 530.61Z" fill="#E6E7E8"/>
<path d="M722.979 568.83H894.089C898.679 568.83 902.439 565.07 902.439 560.48C902.439 555.89 898.679 552.13 894.089 552.13H722.979C718.389 552.13 714.629 555.89 714.629 560.48C714.629 565.08 718.389 568.83 722.979 568.83Z" fill="#E6E7E8"/>
<path d="M722.979 607.06H894.089C898.679 607.06 902.439 603.3 902.439 598.71C902.439 594.12 898.679 590.36 894.089 590.36H722.979C718.389 590.36 714.629 594.12 714.629 598.71C714.629 603.3 718.389 607.06 722.979 607.06Z" fill="#E6E7E8"/>
<path d="M466.929 411.06H638.039C642.629 411.06 646.389 407.3 646.389 402.71C646.389 398.12 642.629 394.36 638.039 394.36H466.929C462.339 394.36 458.579 398.12 458.579 402.71C458.579 407.3 462.339 411.06 466.929 411.06Z" fill="#E6E7E8"/>
<path d="M466.929 449.29H638.039C642.629 449.29 646.389 445.53 646.389 440.94C646.389 436.35 642.629 432.59 638.039 432.59H466.929C462.339 432.59 458.579 436.35 458.579 440.94C458.579 445.53 462.339 449.29 466.929 449.29Z" fill="#E6E7E8"/>
<path d="M466.929 487.51H638.039C642.629 487.51 646.389 483.75 646.389 479.16C646.389 474.57 642.629 470.81 638.039 470.81H466.929C462.339 470.81 458.579 474.57 458.579 479.16C458.579 483.76 462.339 487.51 466.929 487.51Z" fill="#E6E7E8"/>
<path d="M466.929 530.61H638.039C642.629 530.61 646.389 526.85 646.389 522.26C646.389 517.67 642.629 513.91 638.039 513.91H466.929C462.339 513.91 458.579 517.67 458.579 522.26C458.579 526.85 462.339 530.61 466.929 530.61Z" fill="#E6E7E8"/>
<path d="M466.929 568.83H638.039C642.629 568.83 646.389 565.07 646.389 560.48C646.389 555.89 642.629 552.13 638.039 552.13H466.929C462.339 552.13 458.579 555.89 458.579 560.48C458.579 565.08 462.339 568.83 466.929 568.83Z" fill="#E6E7E8"/>
<path d="M466.929 607.06H638.039C642.629 607.06 646.389 603.3 646.389 598.71C646.389 594.12 642.629 590.36 638.039 590.36H466.929C462.339 590.36 458.579 594.12 458.579 598.71C458.579 603.3 462.339 607.06 466.929 607.06Z" fill="#E6E7E8"/>
<path d="M237.409 244.82C257.109 239.89 262.039 180.79 281.739 180.79C325.019 184.72 340.019 242.07 364.389 285.07C361.199 302.79 345.649 316.36 327.039 316.36H153.619C132.729 316.36 115.639 299.27 115.639 278.38V154.04C121.659 154.52 127.809 156.68 133.969 161.08C168.449 190.64 193.079 254.67 237.409 244.82Z" fill="#78DFE8"/>
<path fill-rule="evenodd" clip-rule="evenodd" d="M327.029 319.17H153.619C131.129 319.17 112.829 300.88 112.839 278.37V150.99L115.869 151.23C122.709 151.77 129.349 154.31 135.809 158.94C147.113 168.628 157.411 181.998 167.38 194.94L167.449 195.03C188.549 222.44 208.499 248.32 236.769 242.07C244.949 239.99 250.819 225.31 256.489 211.12L256.496 211.102C263.303 194.069 269.733 177.98 281.989 177.98H281.999C316.839 181.15 334.229 217.43 351.039 252.52C356.049 262.98 361.239 273.81 366.829 283.68L367.329 284.56L367.149 285.56C363.649 305.04 346.779 319.17 327.029 319.17ZM327.029 313.55C343.719 313.55 358.029 301.84 361.429 285.55C355.939 275.76 350.879 265.19 345.979 254.95L345.97 254.931C329.093 219.718 313.153 186.459 281.749 183.59C273.539 183.59 267.519 198.65 261.699 213.21C255.489 228.74 249.069 244.79 238.089 247.54L238.019 247.56C206.228 254.624 184.289 226.132 163.047 198.545L162.989 198.47C153.179 185.73 143.029 172.55 132.339 163.37C127.869 160.17 123.209 158.12 118.449 157.24V278.38C118.449 297.77 134.229 313.55 153.619 313.55H327.029Z" fill="#1A4A67"/>
<path d="M153.309 102.89H326.729C347.619 102.89 364.709 119.98 364.709 140.87V278.38C364.709 280.66 364.469 282.89 364.079 285.07C339.719 242.06 324.709 184.72 281.429 180.79C261.729 180.79 256.799 239.9 237.099 244.82C192.769 254.67 168.139 190.64 133.659 161.08C127.499 156.68 121.349 154.51 115.329 154.04V140.87C115.329 119.98 132.419 102.89 153.309 102.89Z" fill="white"/>
<path fill-rule="evenodd" clip-rule="evenodd" d="M366.839 285.56L365.469 293.24L361.639 286.45C355.976 276.441 350.761 265.567 345.715 255.047L345.669 254.95L345.66 254.931C328.783 219.718 312.843 186.46 281.439 183.59C273.229 183.59 267.209 198.65 261.389 213.21L261.385 213.219C255.176 228.746 248.757 244.801 237.709 247.56C205.918 254.624 183.979 226.132 162.737 198.545L162.679 198.47C152.869 185.73 142.719 172.55 132.029 163.37C126.609 159.49 120.919 157.3 115.109 156.84L112.519 156.64V140.87C112.519 118.38 130.819 100.08 153.309 100.08H326.719C349.209 100.08 367.509 118.38 367.509 140.87V278.38C367.509 280.67 367.289 283.02 366.839 285.56ZM361.889 140.87C361.889 121.48 346.109 105.7 326.719 105.7V105.69H153.309C133.919 105.69 118.139 121.47 118.139 140.86V151.53C124.069 152.45 129.849 154.9 135.489 158.94C146.793 168.628 157.091 181.998 167.06 194.94L167.129 195.03L167.132 195.034C188.251 222.452 208.19 248.34 236.419 242.08C244.612 240.032 250.479 225.353 256.155 211.154L256.169 211.12L256.176 211.102C262.983 194.069 269.413 177.98 281.669 177.98H281.679C316.519 181.15 333.909 217.43 350.719 252.52L350.769 252.626C354.363 260.122 358.037 267.785 361.889 275.16V140.87Z" fill="#1A4A67"/>
<path d="M215.389 191.26C203.316 191.26 193.529 181.473 193.529 169.4C193.529 157.327 203.316 147.54 215.389 147.54C227.462 147.54 237.249 157.327 237.249 169.4C237.249 181.473 227.462 191.26 215.389 191.26Z" fill="#78DFE8"/>
<path fill-rule="evenodd" clip-rule="evenodd" d="M240.059 169.39C240.059 182.99 228.989 194.06 215.389 194.06C201.779 194.06 190.719 182.99 190.719 169.39C190.719 155.79 201.789 144.72 215.389 144.72C228.989 144.72 240.059 155.79 240.059 169.39ZM234.439 169.4C234.439 158.89 225.889 150.35 215.389 150.35C204.879 150.35 196.339 158.89 196.339 169.4C196.339 179.91 204.889 188.45 215.389 188.45C225.899 188.45 234.439 179.91 234.439 169.4Z" fill="#1A4A67"/>
<path d="M857.469 320.73H503.549C478.819 320.73 458.589 300.5 458.589 275.77V147.87C458.589 123.14 478.819 102.91 503.549 102.91H857.469C882.199 102.91 902.429 123.14 902.429 147.87V275.77C902.439 300.49 882.199 320.73 857.469 320.73Z" fill="#E6E7E8"/>
<path fill-rule="evenodd" clip-rule="evenodd" d="M857.469 323.54H503.549C477.209 323.54 455.769 302.1 455.779 275.77V147.87C455.779 121.53 477.209 100.1 503.549 100.1H857.469C883.809 100.1 905.239 121.53 905.239 147.87V275.77C905.239 302.11 883.809 323.54 857.469 323.54ZM899.619 147.85C899.619 124.61 880.709 105.7 857.469 105.7H503.549C480.309 105.7 461.399 124.61 461.399 147.85V275.75C461.399 298.99 480.309 317.9 503.549 317.9H857.469C880.709 317.9 899.619 298.99 899.619 275.75V147.85Z" fill="#1A4A67"/>
<path d="M319.739 484.29H160.609C135.879 484.29 115.649 464.06 115.649 439.33C115.649 414.6 135.879 394.37 160.609 394.37H319.739C344.469 394.37 364.699 414.6 364.699 439.33C364.699 464.06 344.469 484.29 319.739 484.29Z" fill="white"/>
<path fill-rule="evenodd" clip-rule="evenodd" d="M319.739 487.1H160.599C134.259 487.1 112.829 465.67 112.829 439.33C112.829 412.99 134.259 391.56 160.599 391.56H319.739C346.079 391.56 367.509 412.99 367.509 439.33C367.509 465.67 346.079 487.1 319.739 487.1ZM361.889 439.33C361.889 416.09 342.979 397.18 319.739 397.18H160.599C137.359 397.18 118.449 416.09 118.449 439.33C118.449 462.57 137.359 481.48 160.599 481.48H319.739C342.979 481.48 361.889 462.57 361.889 439.33Z" fill="#1A4A67"/>
<path d="M319.739 597.1H160.609C135.879 597.1 115.649 576.87 115.649 552.14C115.649 527.41 135.879 507.18 160.609 507.18H319.739C344.469 507.18 364.699 527.41 364.699 552.14C364.699 576.87 344.469 597.1 319.739 597.1Z" fill="white"/>
<path fill-rule="evenodd" clip-rule="evenodd" d="M319.739 599.91H160.599C134.259 599.91 112.829 578.48 112.829 552.13C112.829 525.79 134.259 504.36 160.599 504.36H319.739C346.079 504.36 367.509 525.8 367.509 552.14C367.509 578.48 346.079 599.91 319.739 599.91ZM361.889 552.13C361.889 528.89 342.979 509.98 319.739 509.98H160.599C137.359 509.98 118.449 528.89 118.449 552.13C118.449 575.37 137.359 594.28 160.599 594.28H319.739C342.979 594.28 361.889 575.37 361.889 552.13Z" fill="#1A4A67"/>
<path d="M488.869 990.16C306.09 990.16 157.919 980.055 157.919 967.59C157.919 955.125 306.09 945.02 488.869 945.02C671.647 945.02 819.819 955.125 819.819 967.59C819.819 980.055 671.647 990.16 488.869 990.16Z" fill="#E6E7E8"/>
<path d="M874.409 905.67H1043.03C1052.48 905.67 1060.2 897.94 1060.2 888.5V882.03C1060.2 872.58 1052.47 864.86 1043.03 864.86H874.409C864.959 864.86 857.239 872.59 857.239 882.03V888.5C857.239 897.94 864.969 905.67 874.409 905.67Z" fill="#A7A9AC"/>
<path d="M874.409 950.04H1043.03C1052.48 950.04 1060.2 942.31 1060.2 932.87V926.4C1060.2 916.95 1052.47 909.23 1043.03 909.23H874.409C864.959 909.23 857.239 916.96 857.239 926.4V932.87C857.239 942.31 864.969 950.04 874.409 950.04Z" fill="#A7A9AC"/>
<path d="M874.409 994.86H1043.03C1052.48 994.86 1060.2 987.13 1060.2 977.69V971.22C1060.2 961.77 1052.47 954.05 1043.03 954.05H874.409C864.959 954.05 857.239 961.78 857.239 971.22V977.69C857.239 987.13 864.969 994.86 874.409 994.86Z" fill="#A7A9AC"/>
<path d="M1043.65 889.62C1041.06 889.62 1038.97 887.525 1038.97 884.94C1038.97 882.355 1041.06 880.26 1043.65 880.26C1046.23 880.26 1048.33 882.355 1048.33 884.94C1048.33 887.525 1046.23 889.62 1043.65 889.62Z" fill="white"/>
<path d="M875.039 889.62C872.454 889.62 870.359 887.525 870.359 884.94C870.359 882.355 872.454 880.26 875.039 880.26C877.623 880.26 879.719 882.355 879.719 884.94C879.719 887.525 877.623 889.62 875.039 889.62Z" fill="white"/>
<path d="M1042.72 932.4C1040.13 932.4 1038.04 930.305 1038.04 927.72C1038.04 925.135 1040.13 923.04 1042.72 923.04C1045.3 923.04 1047.4 925.135 1047.4 927.72C1047.4 930.305 1045.3 932.4 1042.72 932.4Z" fill="white"/>
<path d="M874.099 932.4C871.514 932.4 869.419 930.305 869.419 927.72C869.419 925.135 871.514 923.04 874.099 923.04C876.683 923.04 878.779 925.135 878.779 927.72C878.779 930.305 876.683 932.4 874.099 932.4Z" fill="white"/>
<path d="M1042.72 978.88C1040.13 978.88 1038.04 976.785 1038.04 974.2C1038.04 971.615 1040.13 969.52 1042.72 969.52C1045.3 969.52 1047.4 971.615 1047.4 974.2C1047.4 976.785 1045.3 978.88 1042.72 978.88Z" fill="white"/>
<path d="M874.099 978.88C871.514 978.88 869.419 976.785 869.419 974.2C869.419 971.615 871.514 969.52 874.099 969.52C876.683 969.52 878.779 971.615 878.779 974.2C878.779 976.785 876.683 978.88 874.099 978.88Z" fill="white"/>
<path d="M753.679 151.98C753.099 151.58 752.529 151.18 751.949 150.79C733.749 138.42 711.969 128.17 690.379 132.4C652.319 139.85 634.829 181.9 610.549 207.24C593.129 225.42 566.159 239.04 540.059 236.34C518.189 234.08 514.349 210.4 519.589 192.57C521.529 185.99 524.529 179.69 529.969 175.31C534.979 171.27 547.349 165.7 553.859 169.24C542.639 163.15 528.049 166.18 518.039 174.1C484.189 200.89 492.729 258.19 529.009 278.33C557.109 293.92 591.419 280.2 613.579 260.46C638.619 238.15 646.389 203.54 669.699 179.87C675.939 173.54 682.949 167.98 692.399 168.77C711.109 170.34 714.179 190.17 726.739 200.06C729.979 202.61 734.249 204.18 738.259 203.23C741.209 202.53 743.679 200.59 746.279 199.02C758.089 191.85 791.709 193.11 774.639 170.85C768.879 163.35 761.439 157.37 753.679 151.98Z" fill="#37C1D3"/>
<path fill-rule="evenodd" clip-rule="evenodd" d="M615.429 262.55C600.389 275.94 578.199 287.93 555.689 287.93C546.219 287.93 536.699 285.81 527.639 280.77C508.869 270.35 496.039 249.44 494.139 226.2C492.349 204.22 500.419 184.42 516.289 171.87C528.049 162.55 543.689 160.5 555.189 166.74L552.499 171.68C547.789 169.12 536.819 173.37 531.719 177.47C527.439 180.92 524.439 185.96 522.269 193.34C518.879 204.89 519.949 217.21 524.989 224.73C528.439 229.87 533.609 232.83 540.339 233.53C563.069 235.89 589.819 224.79 608.509 205.28C615.499 197.98 621.849 189.37 628.569 180.25C644.929 158.05 661.859 135.09 689.829 129.62C708.639 125.94 729.479 132.1 753.519 148.45L755.269 149.65C761.889 154.25 770.329 160.62 776.839 169.11C781.549 175.25 783.119 180.36 781.629 184.75C779.211 191.893 769.628 194.485 760.357 196.992L760.329 197C755.349 198.34 750.649 199.61 747.709 201.4C747.149 201.74 746.599 202.09 746.049 202.45L746.021 202.468C743.86 203.862 741.627 205.303 738.879 205.95C734.369 207.01 729.309 205.66 724.979 202.25C720.029 198.35 716.539 193.15 713.159 188.11C707.519 179.7 702.649 172.44 692.149 171.56C683.669 170.86 677.349 176.08 671.689 181.83C660.947 192.742 653.38 206.409 646.056 219.64L646.039 219.67C637.659 234.81 628.989 250.47 615.429 262.55ZM667.689 177.89C673.589 171.89 680.889 165.88 690.609 165.88C691.269 165.88 691.939 165.91 692.619 165.96C705.807 167.06 711.918 176.168 717.827 184.977L717.829 184.98C721.099 189.87 724.199 194.49 728.459 197.84C731.389 200.15 734.809 201.14 737.589 200.48C739.419 200.05 741.169 198.92 743.009 197.73C743.195 197.612 743.381 197.493 743.566 197.374C743.976 197.111 744.385 196.848 744.799 196.6C748.414 194.403 753.485 193.034 758.847 191.586L758.869 191.58C766.359 189.56 774.849 187.27 776.309 182.96C777.139 180.52 775.819 177.02 772.389 172.55C766.349 164.68 758.359 158.66 752.069 154.29L750.359 153.11C727.619 137.64 708.179 131.77 690.909 135.15C665.089 140.21 648.819 162.27 633.099 183.6C626.569 192.46 619.809 201.62 612.569 209.18C596.769 225.66 569.319 242.2 539.759 239.13C531.399 238.26 524.679 234.37 520.319 227.87C513.119 217.14 513.819 202.18 516.879 191.77C519.349 183.35 523.049 177.25 528.189 173.11C529.539 172.01 531.399 170.8 533.549 169.66C528.699 170.77 523.919 173.01 519.769 176.29C505.399 187.65 498.099 205.68 499.739 225.75C501.479 247.14 513.209 266.34 530.359 275.86C558.399 291.43 591.709 276.16 611.699 258.35C624.549 246.91 632.979 231.68 641.129 216.95L641.149 216.913C648.653 203.354 656.409 189.339 667.689 177.89Z" fill="#1A4A67"/>
<path d="M955.789 360.39C964.579 370.18 975.949 381.9 981.069 394.43C981.479 395.44 981.829 396.63 981.329 397.6C974.729 410.3 876.339 318.15 865.889 308.58C843.899 288.43 823.419 272.97 804.359 249.85C800.699 245.41 796.949 240.62 796.029 234.82C795.489 231.22 812.289 238.7 815.549 240.36C840.499 253.04 869.789 275.29 890.169 294.14C912.919 315.19 934.999 337.24 955.789 360.39Z" fill="#1A4A67"/>
<path d="M763.219 197.19C763.789 192.48 764.929 187.89 766.729 183.58C770.999 173.31 778.779 163.52 790.219 161.29C771.659 172.98 789.439 195.76 802.799 204.99C806.099 207.27 809.699 209.23 813.649 210.83C823.659 214.88 836.939 218.01 839.489 230.23C806.719 231.08 782.299 217.62 763.219 197.19Z" fill="#37C1D3"/>
<path fill-rule="evenodd" clip-rule="evenodd" d="M839.549 233.03C838.509 233.06 837.469 233.07 836.429 233.07C807.129 233.07 782.489 221.94 761.169 199.13L760.269 198.17L760.429 196.87C761.049 191.74 762.299 186.91 764.129 182.51C767.339 174.79 774.929 161.41 789.669 158.54L804.419 155.67L791.709 163.68C787.309 166.45 785.129 169.92 785.029 174.29C784.819 183.9 794.849 196.09 804.389 202.68C807.579 204.88 811.049 206.75 814.689 208.22C816.069 208.78 817.509 209.32 818.979 209.87L818.994 209.876C828.232 213.335 839.72 217.637 842.229 229.65L842.919 232.94L839.549 233.03ZM779.409 174.15C779.449 172.37 779.739 170.67 780.269 169.06C774.619 173.68 771.159 180.24 769.319 184.66C767.839 188.22 766.779 192.11 766.179 196.24C785.959 216.99 808.719 227.23 835.599 227.44C832.42 220.883 824.616 217.962 817.029 215.124L817.019 215.12C816.814 215.043 816.609 214.966 816.405 214.89C815.098 214.401 813.817 213.922 812.589 213.42C808.569 211.79 804.729 209.73 801.199 207.29C792.289 201.13 779.129 187.23 779.409 174.15Z" fill="#1A4A67"/>
<path d="M839.489 230.21C839.509 230.32 839.549 230.42 839.569 230.53C843.289 250.11 830.649 269.8 809.069 266.21C779.019 261.2 759.629 226.7 763.219 197.18C782.299 217.62 806.719 231.08 839.489 230.21Z" fill="white"/>
<path fill-rule="evenodd" clip-rule="evenodd" d="M833.869 261.26C828.619 266.63 821.719 269.45 814.059 269.45C812.279 269.45 810.459 269.3 808.609 269C775.709 263.52 756.809 226.58 760.429 196.86L761.159 190.88L765.269 195.28C786.179 217.67 810.279 228.19 839.409 227.41L841.619 227.49L842.329 230.02C844.539 241.69 841.299 253.66 833.869 261.26ZM829.859 257.33C835.619 251.43 838.319 242.26 837.129 233.06C809.399 233.34 786.069 223.58 765.619 203.66C765.419 229.55 782.759 258.99 809.529 263.45C819.729 265.15 826.219 261.06 829.859 257.33Z" fill="#1A4A67"/>
<path d="M1130.95 903.12L1124.58 963.39L1144.51 967.59L1147.42 904.31C1147.42 904.31 1136.87 900.46 1130.95 903.12Z" fill="white"/>
<path fill-rule="evenodd" clip-rule="evenodd" d="M1150.32 902.38L1147.17 971.02L1121.51 965.61L1128.32 901.21L1129.79 900.55C1136.56 897.5 1147.19 901.23 1148.38 901.67L1150.32 902.38ZM1141.85 964.17L1144.51 906.34C1141.58 905.5 1136.87 904.54 1133.55 905.23L1127.64 961.17L1141.85 964.17Z" fill="#1A4A67"/>
<path d="M1048.45 995.35C1048.45 995.35 1063.38 998.66 1091.18 997.63C1118.98 996.6 1149.86 994.19 1154.99 989.48C1160.13 984.76 1159.84 949.58 1150.65 950.61C1141.46 951.63 1139.37 965.33 1121.84 955.27C1106.82 946.65 1097.87 967.06 1074.27 974.87C1050.68 982.67 1041.12 985.81 1048.45 995.35Z" fill="#A7A9AC"/>
<path fill-rule="evenodd" clip-rule="evenodd" d="M1091.28 1000.44C1087.47 1000.58 1083.9 1000.64 1080.57 1000.64C1060.17 1000.64 1048.98 998.337 1047.89 998.114C1047.87 998.108 1047.84 998.103 1047.83 998.1L1046.83 997.88L1046.21 997.07C1043.54 993.59 1042.67 990.52 1043.54 987.67C1045.45 981.45 1054.74 978.37 1073.39 972.2C1082.68 969.13 1089.62 964 1095.74 959.47L1095.74 959.466C1104.9 952.688 1112.8 946.841 1123.24 952.83C1133.22 958.556 1136.72 955.825 1141.17 952.358L1141.18 952.35C1143.65 950.42 1146.45 948.24 1150.34 947.81C1152.19 947.6 1155.63 948.07 1158.08 953.44C1162.38 962.9 1162.4 986.49 1156.89 991.55C1152.02 996.02 1129.95 999.01 1091.28 1000.44ZM1152.96 955.75C1152.3 954.3 1151.55 953.39 1151.02 953.39H1150.97C1148.66 953.65 1146.8 955.1 1144.65 956.78L1144.65 956.781C1139.78 960.581 1133.72 965.31 1120.46 957.7C1113.54 953.73 1108.37 957.12 1099.09 963.98C1092.95 968.52 1085.3 974.17 1075.01 977.58L1074.96 977.597C1060.99 982.219 1049.98 985.864 1048.92 989.31C1048.67 990.13 1049.06 991.3 1050.07 992.8C1053.85 993.49 1068.05 995.67 1091.08 994.82C1132.52 993.29 1150.29 989.99 1153.1 987.41C1155.5 985.18 1157.09 964.8 1152.96 955.75Z" fill="#1A4A67"/>
<path d="M1078.36 919.78C1079.29 917.61 1081.73 915.99 1083.85 914.3C1103.22 898.86 1098.49 875.31 1095.39 854.73C1088.04 805.91 1095.91 756.7 1098.85 707.87C1101.71 660.21 1096.94 612.38 1086.05 565.92C1082.09 549.04 1076.63 522.94 1102.74 527.88C1115.11 530.22 1127.32 529.76 1139.65 527.6C1146.14 526.46 1139.52 524.35 1146.14 526.46C1168.69 533.66 1177.12 576.28 1172.49 591.13C1163.27 620.7 1160.27 649.08 1158.77 680.39C1156.65 724.79 1149.26 769.24 1154.53 813.3C1157.11 834.89 1160.11 856.42 1162.99 877.97C1164.67 890.54 1175.18 918.08 1168.13 929.46C1158.45 945.08 1115.32 931.84 1100.91 931.49C1090.08 931.21 1075.2 927.15 1078.36 919.78Z" fill="white"/>
<path fill-rule="evenodd" clip-rule="evenodd" d="M1170.52 930.92C1166.31 937.72 1157.2 939.83 1146.7 939.83C1136.8 939.83 1125.66 937.96 1116.24 936.37C1109.87 935.3 1104.37 934.38 1100.86 934.29C1094.17 934.13 1080.45 932.12 1076.34 925.72C1074.94 923.54 1074.75 921.1 1075.79 918.67C1076.87 916.173 1079.13 914.414 1081.14 912.855L1081.15 912.85L1082.11 912.1C1099.25 898.425 1096.12 877.986 1093.09 858.213L1093.09 858.19L1092.63 855.14C1087.02 817.92 1090.22 780.07 1093.32 743.47L1093.38 742.748C1094.35 731.233 1095.35 719.346 1096.05 707.69C1098.81 661.83 1094.52 614.35 1083.32 566.55C1080.03 552.48 1077.14 536.82 1084.66 528.97C1088.63 524.82 1094.9 523.52 1103.27 525.11C1114.35 527.2 1126.08 527.11 1139.17 524.82C1139.53 524.76 1139.81 524.7 1140.03 524.64V524.23L1141.19 523.34C1142.5 522.34 1143.37 522.61 1146.99 523.77C1172.02 531.76 1179.9 576.78 1175.17 591.95C1165.46 623.11 1162.9 652.93 1161.58 680.51C1160.95 693.512 1159.87 706.711 1158.81 719.483L1158.79 719.8L1158.78 719.861C1156.26 750.492 1153.64 782.161 1157.33 812.95C1159.33 829.672 1161.61 846.648 1163.83 863.077L1163.91 863.66L1165.78 877.58C1166.21 880.806 1167.31 885.283 1168.48 890.05L1168.56 890.38C1171.99 904.32 1176.25 921.67 1170.52 930.92ZM1144.83 528.981C1144.62 528.915 1144.43 528.854 1144.26 528.8C1142.95 529.86 1141.07 530.19 1140.12 530.35C1126.37 532.76 1113.96 532.84 1102.2 530.62C1095.8 529.41 1091.26 530.16 1088.69 532.85C1082.65 539.16 1086.63 556.14 1088.77 565.26C1100.1 613.59 1104.43 661.62 1101.64 708.02C1100.92 719.98 1099.9 732.16 1098.9 743.93C1095.83 780.21 1092.66 817.72 1098.16 854.29L1098.62 857.33C1101.75 877.69 1105.28 900.78 1085.59 916.48L1084.57 917.28C1083.03 918.47 1081.44 919.71 1080.94 920.87C1080.59 921.68 1080.73 922.18 1081.05 922.67C1083.02 925.75 1091.96 928.44 1100.97 928.66C1104.88 928.76 1110.56 929.71 1117.14 930.82L1117.17 930.825C1134.05 933.665 1159.54 937.954 1165.73 927.96C1170.22 920.72 1166.1 903.96 1163.09 891.73L1163.03 891.481C1161.76 886.327 1160.67 881.873 1160.2 878.33L1158.33 864.42C1156.08 847.78 1153.76 830.58 1151.73 813.62C1147.98 782.31 1150.61 750.413 1153.15 719.548L1153.17 719.34L1153.19 719.04C1154.25 706.313 1155.33 693.159 1155.95 680.24C1157.28 652.28 1159.88 622.03 1169.79 590.27C1174.03 576.69 1166.07 535.76 1145.27 529.12C1145.12 529.072 1144.97 529.025 1144.83 528.981Z" fill="#1A4A67"/>
<path d="M1007.66 772.96L1020.94 832.92L1041.44 830.54L1023.87 768.8C1023.87 768.8 1012.49 768.49 1007.66 772.96Z" fill="white"/>
<path fill-rule="evenodd" clip-rule="evenodd" d="M1045.06 832.96L1018.75 836.01L1004.59 772L1005.77 770.9C1011.28 765.8 1022.66 765.97 1023.96 766L1026.02 766.06L1045.06 832.96ZM1023.14 829.83L1037.84 828.13L1021.76 771.64C1018.61 771.77 1013.77 772.37 1010.8 774.12L1023.14 829.83Z" fill="#1A4A67"/>
<path d="M941.129 862.02C941.129 862.02 956.229 865.51 984.399 864.73C1012.58 863.95 1043.89 861.8 1049.14 857.07C1054.39 852.34 1054.43 816.69 1045.11 817.64C1035.79 818.59 1033.54 832.45 1015.88 822.09C1000.75 813.22 991.479 833.81 967.489 841.5C943.509 849.2 933.789 852.29 941.129 862.02Z" fill="#D1D3D4"/>
<path fill-rule="evenodd" clip-rule="evenodd" d="M984.479 867.54C981.589 867.62 978.839 867.66 976.229 867.66C953.885 867.66 941.671 865.023 940.561 864.783C940.533 864.777 940.513 864.773 940.499 864.77L939.499 864.54L938.889 863.72C936.219 860.18 935.359 857.07 936.269 854.2C938.247 847.936 947.66 844.916 966.573 838.848L966.629 838.83C976.058 835.807 983.128 830.683 989.368 826.16L989.409 826.13C998.739 819.36 1006.81 813.52 1017.3 819.67C1027.37 825.576 1030.96 822.834 1035.52 819.358L1035.53 819.35L1035.55 819.331C1038.07 817.416 1040.91 815.249 1044.83 814.85C1046.68 814.65 1050.16 815.15 1052.58 820.6C1056.84 830.21 1056.64 854.09 1051.02 859.16C1046.05 863.63 1023.67 866.45 984.479 867.54ZM1047.44 822.88C1046.78 821.39 1046 820.44 1045.45 820.44C1045.44 820.44 1045.42 820.44 1045.4 820.46C1043.06 820.699 1041.17 822.143 1038.99 823.811L1038.95 823.84C1033.98 827.64 1027.79 832.36 1014.47 824.54C1007.46 820.43 1002.2 823.83 992.719 830.7L992.705 830.71C986.447 835.248 978.651 840.902 968.199 844.25C953.969 848.81 942.739 852.41 941.629 855.91C941.359 856.75 941.749 857.96 942.779 859.5C946.569 860.22 960.939 862.58 984.329 861.93C1026.34 860.76 1044.38 857.58 1047.26 854.99C1049.73 852.77 1051.54 832.12 1047.44 822.88Z" fill="#1A4A67"/>
<path d="M933.249 583.7C946.479 563.7 991.699 563.92 1033.19 569.03L1084.68 565.99L1091.69 546.47C1091.69 546.47 1173.61 571.49 1173.7 571.52C1171.11 571.1 1171.52 604.11 1170.02 606.98C1158.29 629.45 1124.94 648.03 1098.19 648.38C1066.41 648.8 1036.43 639.64 1006.73 629.83C952.799 612.03 1028.43 724.44 1045.59 760.04C1062.75 795.64 1043.89 793.76 1001.07 791.89C958.239 790.02 978.469 792.83 971.169 763.09C963.859 733.34 907.079 623.27 933.249 583.7Z" fill="white"/>
<path fill-rule="evenodd" clip-rule="evenodd" d="M1052.61 787.9C1048.6 793.98 1039.82 795.54 1026.16 795.54C1020.25 795.54 1013.43 795.248 1005.69 794.917L1004.58 794.87L993.549 794.4C978.349 793.79 973.759 793.6 971.219 790.73C969.389 788.65 969.599 786.04 969.869 782.73L969.871 782.705C970.191 778.795 970.674 772.891 968.429 763.76C966.689 756.66 961.839 744.32 956.219 730.03C937.949 683.53 910.349 613.26 930.909 582.16C942.479 564.67 976.929 559.31 1033.29 566.22L1082.67 563.3L1089.96 543L1092.52 543.78C1174.34 568.764 1174.54 568.83 1174.57 568.84L1174.57 568.84L1173.26 574.29C1174.54 574.5 1175.46 573.69 1175.68 573.22C1174.85 575.028 1174.38 585.635 1174.08 592.069L1174.08 592.2C1173.61 602.8 1173.37 606.65 1172.52 608.27C1160.56 631.16 1126.54 650.81 1098.23 651.18C1066.47 651.61 1036.42 642.58 1005.85 632.49C1000.85 630.84 994.379 629.52 991.899 632.55C983.051 643.347 1013.18 696.279 1031.19 727.923L1031.21 727.95C1038.33 740.45 1044.47 751.24 1048.12 758.81C1055.03 773.16 1056.42 782.13 1052.61 787.9ZM987.539 629C989.659 626.4 992.759 625.11 996.889 625.11C999.899 625.11 1003.46 625.8 1007.6 627.17C1037.69 637.1 1067.27 646 1098.14 645.57C1124.64 645.22 1156.41 626.95 1167.45 605.84C1167.89 604.52 1168.22 597.26 1168.46 591.96C1168.92 581.83 1169.28 576.38 1169.88 573.29C1156.89 569.32 1105.54 553.63 1093.44 549.94L1086.71 568.69L1033.12 571.86L1032.86 571.83C979.409 565.24 945.779 569.89 935.609 585.26C916.66 613.917 944.704 685.297 961.464 727.958L961.469 727.97L961.602 728.309C967.459 743.229 972.083 755.006 973.899 762.42C976.358 772.449 975.829 778.908 975.479 783.178L975.479 783.18L975.473 783.254C975.353 784.687 975.193 786.607 975.439 786.99C976.333 788.054 983.947 788.366 993.605 788.763L993.779 788.77L1004.83 789.24L1004.83 789.24C1027.48 790.25 1043.84 790.98 1047.91 784.81C1050.44 780.99 1048.85 773.28 1043.05 761.26C1039.49 753.887 1033.41 743.199 1026.37 730.824L1026.32 730.74C997.949 680.91 977.089 641.77 987.539 629Z" fill="#1A4A67"/>
<path d="M1040.86 222.01C1038.99 222.63 1033.37 243.87 1043.36 257.61C1053.35 271.35 1047.55 269.48 1057.32 278.84C1067.09 288.21 1073.96 290.24 1073.96 290.24L1085.2 294.45L1083.95 271.34L1072.79 234.49L1037.59 222.01" fill="#1A4A67"/>
<path d="M1095.13 316.17C1095.13 316.17 1101.28 361.23 1101.29 361.23C1112.17 364.43 1123.57 370.54 1135.03 370.52C1134.51 362.16 1126.33 352.6 1122.57 344.71C1118.01 335.14 1114.8 325.23 1115.3 314.5C1116.62 286.46 1095.13 316.17 1095.13 316.17Z" fill="white"/>
<path fill-rule="evenodd" clip-rule="evenodd" d="M1135.02 373.34H1134.97C1126.54 373.34 1118.35 370.31 1110.44 367.38C1107 366.1 1103.73 364.89 1100.61 363.97C1100.39 363.915 1100.19 363.866 1100.01 363.78C1098.71 363.154 1098.36 360.561 1095.43 339.09L1092.2 315.44L1092.86 314.53C1096.6 309.35 1106.08 297.57 1113.02 299.99C1118.12 301.78 1118.37 309.21 1118.11 314.65C1117.69 323.56 1119.84 332.47 1125.1 343.51C1126.27 345.97 1127.92 348.64 1129.67 351.47C1133.49 357.66 1137.43 364.05 1137.83 370.36L1138.01 373.34H1135.02ZM1111.16 305.29C1111.07 305.26 1110.98 305.25 1110.87 305.25C1108.91 305.25 1103.19 310.11 1098.06 316.91C1098.42 319.562 1099.38 326.54 1100.42 334.174C1101.76 343.984 1103.25 354.876 1103.82 359.06C1106.68 359.978 1109.56 361.044 1112.37 362.082L1112.39 362.09L1112.43 362.104C1118.75 364.449 1125.26 366.861 1131.63 367.53C1130.43 363.4 1127.62 358.85 1124.88 354.42C1123.05 351.46 1121.32 348.66 1120.02 345.93C1114.42 334.16 1112.03 324.14 1112.49 314.38C1112.87 306.26 1111.18 305.3 1111.16 305.29Z" fill="#1A4A67"/>
<path d="M1067.39 226.96C1067.41 227.01 1049.7 239.02 1059.09 267.75C1069.13 298.5 1083.62 324.25 1092.91 321.58C1118.61 314.21 1126.25 295 1134.01 278.41C1143.52 258.07 1117.57 212.48 1117.57 212.48L1095.81 202.96L1067.39 226.96Z" fill="white"/>
<path fill-rule="evenodd" clip-rule="evenodd" d="M1093.68 324.28C1092.98 324.48 1092.27 324.58 1091.56 324.58C1079.16 324.58 1065.06 295.09 1056.42 268.62C1048.34 243.89 1059.19 230.57 1064.06 226.09L1064.09 226.07C1064.71 225.5 1065.23 225.07 1065.6 224.79L1095.33 199.68L1119.54 210.28L1120 211.09C1121.09 213 1146.56 258.19 1136.55 279.6L1135.31 282.26C1127.78 298.52 1119.24 316.95 1093.68 324.28ZM1131.45 277.22C1139.58 259.83 1118.9 220.77 1115.56 214.67L1096.27 206.23L1070.63 227.89L1070.66 227.99L1069 229.26C1066.39 231.25 1053.77 242.43 1061.75 266.88C1073.59 303.1 1087.01 320.35 1092.13 318.88C1115.22 312.264 1122.83 295.827 1130.2 279.924L1130.21 279.9L1131.45 277.22Z" fill="#1A4A67"/>
<path d="M1027.34 220C1024.45 212.83 1027.68 199.35 1032.66 194.37C1034.58 192.45 1037.09 191.12 1039.71 191.16C1041.68 191.19 1043.68 191.98 1045.59 191.5C1051.33 190.05 1051.32 185.16 1056.58 182.97C1060.5 181.34 1064.67 184.67 1068.86 185.3C1072.02 185.77 1075.16 184.67 1078.23 183.76C1086.86 181.19 1094.65 176.31 1103.57 174.48C1111.09 172.94 1119.08 173.14 1126.26 176.26C1133.75 179.52 1139.47 186.17 1142.89 194.12C1144.93 198.87 1145.9 204.27 1145 209.38C1145.74 205.18 1153.51 208.99 1154.84 210.51C1160.07 216.48 1173.25 233.95 1171.36 241.55C1169.86 247.57 1174.52 253.02 1173.19 259.12C1171.62 266.38 1152.63 270.57 1149.23 277.17C1145.33 284.74 1136.7 289.14 1128.85 287.78C1130.68 281.07 1132.49 274.21 1132.35 267.17C1132.21 260.13 1138.87 227.75 1103.85 223.76C1089.93 222.17 1074.36 234.96 1060.68 236.64C1054.18 237.44 1047.55 236.71 1041.23 234.73C1036.35 233.2 1031.17 226.54 1028.15 221.6C1027.83 221.09 1027.56 220.56 1027.34 220Z" fill="#1A4A67"/>
<path d="M878.889 318.21C879.739 317.85 880.629 318.6 881.249 319.29C886.889 325.53 892.539 331.76 898.179 338C899.279 339.22 900.429 340.47 901.909 341.18C903.389 341.89 905.309 341.92 906.539 340.83C908.019 339.52 907.969 337.23 907.799 335.25C907.549 332.26 902.589 326.33 907.329 325.02C914.059 328.29 920.499 342.17 922.489 349.15C925.139 356.57 919.139 361.84 923.189 368.24C930.709 380.13 938.029 392.11 946.149 403.6C950.409 409.62 954.789 415.55 959.189 421.45C961.179 424.12 969.479 438.81 972.379 439.11C982.019 452.13 991.339 465.65 1001.72 478.1C1005.68 482.85 1035.94 455.46 1035.94 455.46C1062.47 434.95 1066.96 418.77 1066.96 418.77L1090.17 424.73C1090.17 424.73 1081.93 445.73 1065.76 459.57C1048.12 474.66 1025.57 498.49 1013.21 507.78C1000.84 517.07 999.979 512.56 995.309 508.08C985.479 498.61 978.259 484.12 970.689 472.87C957.629 453.45 944.709 433.92 932.219 414.12C926.169 404.53 919.779 394.29 914.249 384.07C908.949 374.28 904.529 368.89 894.819 363.2C886.649 358.41 882.079 350.91 880.619 341.46C879.579 334.72 880.159 327.77 878.299 321.15C877.999 320.1 877.879 318.63 878.889 318.21Z" fill="white"/>
<path fill-rule="evenodd" clip-rule="evenodd" d="M1014.9 510.02C1009.31 514.22 1005.53 515.99 1002.49 515.99C999.609 515.99 997.409 514.4 994.969 511.78C994.479 511.24 993.949 510.67 993.359 510.1C986.143 503.163 980.446 493.861 974.933 484.859L974.879 484.77L974.83 484.69C972.608 481.06 970.513 477.637 968.359 474.44C952.929 451.51 940.689 432.82 929.839 415.62C923.749 405.97 917.329 395.68 911.769 385.41C906.929 376.47 902.939 371.23 893.389 365.63C884.719 360.55 879.479 352.56 877.829 341.9C877.397 339.122 877.235 336.334 877.078 333.631L877.069 333.48C876.839 329.42 876.619 325.59 875.579 321.91C874.589 318.38 876.059 316.35 877.769 315.62H877.779C878.839 315.18 880.969 314.81 883.329 317.41L900.259 336.12L900.289 336.154C901.19 337.143 902.12 338.166 903.109 338.64C903.749 338.95 904.449 338.93 904.669 338.73C905.039 338.4 905.149 337.31 904.999 335.49C904.959 335.03 904.449 333.86 904.069 333L904.066 332.994C902.987 330.516 901.76 327.698 902.979 325.14C903.429 324.18 904.429 322.91 906.579 322.32L907.599 322.04L908.559 322.5C916.679 326.44 923.269 341.64 925.139 348.21C926.649 352.45 925.839 356.15 925.179 359.13C924.449 362.45 924.109 364.44 925.559 366.74L929.739 373.38C935.699 382.88 941.869 392.69 948.439 401.98C952.839 408.21 957.289 414.21 961.439 419.78C961.969 420.49 962.929 422.01 964.119 423.9C966.049 426.98 971.089 435 973.009 436.36L973.899 436.45L974.639 437.44C977.259 440.98 979.859 444.55 982.459 448.13C989.179 457.39 996.129 466.96 1003.49 475.83C1007.51 475.33 1022.26 464.06 1034.22 453.24C1059.51 433.69 1064.21 418.16 1064.25 418.02L1064.99 415.36L1093.95 422.79L1092.79 425.75C1092.45 426.64 1084.1 447.57 1067.59 461.7C1059.59 468.543 1050.59 477.178 1041.89 485.529L1041.83 485.59C1031.5 495.51 1021.74 504.88 1014.9 510.02ZM1063.94 457.43C1075.87 447.23 1083.43 432.76 1086.28 426.63L1068.72 422.1C1066.34 427.63 1058.8 441.32 1037.84 457.52C1031.59 463.18 1010.82 481.43 1003.07 481.43H1003.07C1002.96 481.43 1002.86 481.43 1002.75 481.42C1001.1 481.3 1000.12 480.51 999.579 479.87C991.967 470.752 984.853 460.958 977.969 451.479L977.919 451.41C977.286 450.544 976.655 449.676 976.023 448.809C974.228 446.344 972.434 443.881 970.629 441.44C968.239 440.22 965.329 436.36 959.369 426.86C959.267 426.699 959.166 426.54 959.068 426.384C958.128 424.894 957.373 423.699 956.939 423.11C952.759 417.52 948.289 411.47 943.849 405.2C937.189 395.79 930.979 385.91 924.979 376.35L920.809 369.72C918.049 365.35 918.919 361.39 919.689 357.9C920.299 355.16 920.819 352.8 919.789 349.9C917.959 343.49 913.249 333.85 908.669 329.42C908.859 329.9 909.059 330.37 909.219 330.72C909.869 332.2 910.479 333.61 910.599 334.99L910.6 335.004C910.75 336.81 911.062 340.546 908.409 342.91C906.429 344.67 903.399 344.98 900.699 343.69C898.689 342.73 897.249 341.14 896.099 339.87L881.829 324.1C882.339 327.14 882.519 330.18 882.689 333.14C882.839 335.87 882.989 338.46 883.389 341.02C884.769 349.94 889.089 356.58 896.229 360.77C906.869 367.01 911.469 373.06 916.709 382.73C922.189 392.85 928.549 403.05 934.589 412.62C945.409 429.78 957.629 448.42 973.019 471.3C975.243 474.596 977.368 478.07 979.62 481.75L979.669 481.83L979.691 481.867C985.034 490.585 990.558 499.599 997.259 506.05C997.865 506.638 998.414 507.227 998.935 507.785C998.99 507.844 999.045 507.902 999.099 507.96L999.108 507.97C1001.84 510.923 1002.87 512.033 1011.52 505.53C1018.06 500.625 1027.63 491.435 1037.78 481.691L1037.94 481.54C1046.72 473.11 1055.8 464.4 1063.94 457.43Z" fill="#1A4A67"/>
<path d="M1085.76 448.71C1088.6 421.53 1075.47 378.27 1091.31 356.21C1092.93 353.95 1094.68 351.69 1097.04 350.21C1126.84 331.51 1147.46 360.57 1156.98 386.14C1165.24 408.31 1164.22 428.71 1164.83 451.84C1165.86 490.82 1174.93 528.74 1186.51 565.79C1190.64 579.01 1191.74 594.4 1180.05 596.41C1164.26 599.12 1160.86 579.67 1145.8 574.65C1132.04 570.06 1120.92 572.88 1105.88 573.7C1098.42 574.11 1074.06 569.2 1075.55 555.33C1079.07 522.45 1084.36 494.1 1084.53 471.2C1084.58 463.77 1084.97 456.24 1085.76 448.71Z" fill="#37C1D3"/>
<path fill-rule="evenodd" clip-rule="evenodd" d="M1180.52 599.18C1179.31 599.38 1178.16 599.48 1177.07 599.48C1168.75 599.48 1163.67 593.819 1158.74 588.324L1158.64 588.21L1158.6 588.167C1154.7 583.79 1150.68 579.274 1144.89 577.34C1134.92 574.014 1126.23 574.808 1116.18 575.727L1116.15 575.73L1115.61 575.779C1112.55 576.054 1109.38 576.341 1106.01 576.52C1100.48 576.82 1084.36 574.3 1076.76 566.29C1073.68 563.04 1072.28 559.15 1072.72 555.04C1073.96 543.51 1075.39 532.67 1076.78 522.18C1079.36 502.71 1081.58 485.9 1081.69 471.18C1081.75 463.5 1082.17 455.84 1082.94 448.43C1083.91 439.18 1082.98 427.98 1081.98 416.12L1081.98 416.088C1080.08 393.308 1078.11 369.763 1089.01 354.58C1090.69 352.24 1092.71 349.61 1095.53 347.84C1105.7 341.45 1115.66 339.84 1125.13 343.05C1144.54 349.63 1155.7 374.69 1159.6 385.16C1166.82 404.54 1167.12 422.65 1167.43 441.82C1167.44 442.532 1167.45 443.247 1167.47 443.964C1167.51 446.529 1167.56 449.126 1167.63 451.76C1168.51 485.15 1175.16 520.06 1189.18 564.95C1191.41 572.09 1194.44 585.26 1189.58 593.2C1187.57 596.48 1184.53 598.49 1180.52 599.18ZM1123.33 348.36C1120.8 347.5 1118.21 347.07 1115.56 347.07C1110.08 347.07 1104.38 348.92 1098.54 352.58C1096.58 353.81 1095.03 355.85 1093.6 357.84C1083.91 371.329 1085.79 393.813 1087.6 415.576L1087.61 415.63L1087.62 415.744C1088.62 427.832 1089.58 439.251 1088.56 448.99C1087.8 456.22 1087.39 463.7 1087.34 471.2C1087.22 486.27 1084.98 503.24 1082.38 522.89L1082.34 523.158C1080.97 533.525 1079.56 544.248 1078.34 555.61C1078.07 558.1 1078.89 560.32 1080.86 562.39C1086.61 568.45 1100.26 571.19 1105.72 570.88C1109.21 570.69 1112.5 570.39 1115.65 570.1C1126.35 569.12 1135.59 568.28 1146.68 571.97C1153.91 574.39 1158.66 579.729 1162.85 584.439L1162.85 584.44L1162.86 584.454C1168.06 590.297 1172.15 594.909 1179.57 593.63C1181.94 593.22 1183.64 592.12 1184.78 590.26C1187.48 585.85 1187.13 577.23 1183.81 566.62C1169.63 521.21 1162.91 485.83 1162.01 451.9C1161.92 448.51 1161.86 445.18 1161.81 441.9L1161.81 441.875C1161.5 423.215 1161.21 405.582 1154.33 387.11C1150.72 377.39 1140.46 354.17 1123.33 348.36Z" fill="#1A4A67"/>
<path d="M1061.36 415.17C1061.36 415.17 1093.61 348.99 1114.18 369.43C1134.74 389.87 1086.83 456.61 1086.83 456.61L1053.58 422.56L1061.36 415.17Z" fill="#78DFE8"/>
<path fill-rule="evenodd" clip-rule="evenodd" d="M1089.1 458.25L1087.15 460.97L1049.57 422.48L1059.06 413.48C1061.64 408.29 1083.07 366.27 1102.8 362.93C1107.8 362.08 1112.29 363.6 1116.15 367.44C1138.16 389.31 1091.11 455.45 1089.1 458.25ZM1112.19 371.42C1110.1 369.34 1107.85 368.32 1105.37 368.32C1104.84 368.32 1104.29 368.37 1103.74 368.46C1089 370.95 1069.97 403.91 1063.88 416.4L1057.57 422.63L1086.47 452.22C1100.21 432.31 1126.94 386.08 1112.19 371.42Z" fill="#1A4A67"/>
<path d="M1062.97 223.99C1055.28 219.59 1053.05 209.65 1052.27 200.82C1051.42 191.23 1051.58 178.27 1059.66 171.51C1062.78 168.9 1066.6 167.28 1070.5 166.11C1089.61 160.36 1112.72 161.96 1131.3 169.01C1150.25 176.2 1164.3 192.61 1171.02 211.45C1174.4 220.92 1176.07 231.01 1176 241.06C1175.93 251.68 1171.2 262.73 1179.44 271.51C1176.48 271.52 1173.52 271.15 1170.65 270.41C1181.14 273.11 1198.04 273.69 1198.47 288.71C1198.64 294.69 1194.75 299.9 1191.47 304.91C1188.19 309.92 1185.29 316.15 1187.57 321.69C1190.44 328.68 1200.41 331.43 1201.7 338.89C1203.23 347.75 1194.86 351.81 1191.49 358.71C1187.24 367.41 1191.31 377.53 1192.29 386.55C1193.16 394.55 1185.78 398.23 1180.96 403.01C1166.99 416.85 1167.18 432.59 1182.45 447.88C1182.76 448.19 1182.64 448.79 1182.42 449.17C1182.19 449.57 1181.69 449.74 1181.24 449.86C1161.49 455.02 1135.85 435.95 1131.3 416.92C1129.25 408.35 1134.48 400.33 1132.19 392.1C1130.36 385.52 1123.66 381.8 1117.88 378.18C1104.46 369.78 1107.12 348.38 1108.83 332.64C1110.32 318.91 1106.76 316.29 1114.58 304.91C1118.65 298.99 1121.84 292.51 1124.54 285.85C1128.13 276.99 1132.31 282.92 1132 273.37C1131.66 262.89 1126.47 253.17 1117.98 247.03C1113.58 243.85 1108.38 241.62 1103.03 240.66C1097.36 239.64 1091.58 238.68 1087.17 234.69C1083.05 230.96 1077.36 222.51 1070.98 223.08C1063.02 223.79 1053.89 221.8 1049.76 214.97" fill="#1A4A67"/>
</svg>
