<svg width="698" height="524" viewBox="0 0 698 524" fill="none" xmlns="http://www.w3.org/2000/svg">
<path d="M392.924 448.227C435.945 433.253 466.416 408.459 460.983 392.847C455.549 377.235 416.268 376.718 373.247 391.692C330.225 406.666 299.754 431.46 305.188 447.072C310.621 462.683 349.902 463.201 392.924 448.227Z" fill="#D7D7D8"/>
<path d="M401.742 423.814C434.194 412.519 457.915 395.931 454.725 386.764C451.534 377.597 422.64 379.322 390.188 390.617C357.735 401.912 334.014 418.5 337.205 427.667C340.395 436.834 369.29 435.109 401.742 423.814Z" fill="#BFBEBE"/>
<path d="M516.237 323.976C508.977 317.268 501.643 309.325 494.631 301.045C515.707 378.309 473.346 432.467 410.541 455.793C345.577 480.155 246.611 483.329 176.004 472.134C203.252 512.77 248.601 513.593 353.936 516.169C473.606 519.094 540.526 496.169 563.231 440.19C585.936 384.216 548.446 353.732 516.237 323.976Z" fill="#8BDEEC"/>
<path fill-rule="evenodd" clip-rule="evenodd" d="M353.862 519.134C360.632 519.297 367.216 519.382 373.631 519.382C425.208 519.382 465.359 514.01 495.95 503.063C531.36 490.386 554.269 470.183 565.976 441.312C588.349 386.15 553.615 354.268 522.962 326.146L522.736 325.939C521.234 324.56 519.736 323.185 518.249 321.811C487.011 292.951 453.828 240.215 452.859 238.676L452.839 238.645L450.872 235.489L448.24 238.121C447.203 239.158 343.97 342.053 285.691 359.685C277.633 362.124 269.213 364.432 260.308 366.874L259.925 366.979C217.801 378.523 174.239 390.462 161.562 417.152C156.41 427.992 156.917 440.534 163.067 454.445C189.885 515.127 233.876 516.202 351.434 519.077L351.461 519.077L353.862 519.134ZM287.399 365.344C342.527 348.665 432.941 261.485 449.801 244.885C457.541 256.875 486.559 300.588 514.23 326.14C515.731 327.528 517.243 328.915 518.759 330.308L518.959 330.491L518.965 330.497C549.622 358.634 581.318 387.725 560.492 439.079C549.449 466.305 527.685 485.408 493.949 497.488C460.263 509.551 414.487 514.692 354.009 513.215L351.608 513.158L351.59 513.158C233.546 510.272 193.775 509.3 168.473 452.05C162.977 439.615 162.464 429.029 166.9 419.689C178.416 395.45 222.553 383.354 261.486 372.683L262.025 372.535C270.907 370.098 279.315 367.792 287.399 365.344Z" fill="#1A4A67"/>
<path d="M641.38 415.788C649.982 389.983 634.773 347.374 650.511 319.894C650.23 319.522 649.92 319.184 649.548 318.936C645.951 316.552 643.06 319.421 642.44 323.541C642.096 325.83 641.932 328.389 640.247 329.973C637.716 332.352 633.477 330.954 630.839 328.693C628.201 326.433 626.053 323.378 622.773 322.228C621.786 321.884 620.642 321.743 619.734 322.256C618.534 322.927 618.145 324.471 618.122 325.847C618.049 330.649 620.963 334.979 621.82 339.702C623.336 348.045 618.083 350.818 614.526 356.962C610.839 363.326 613.669 368.76 612.187 375.485C611.606 378.117 609.943 380.671 607.401 381.584C601.336 383.765 580.068 369.803 585.305 388.511C587.588 396.651 595.169 404.785 595.755 413.206C596.285 420.861 586.584 431.058 594.611 437.541C601.426 443.048 611.014 439.513 614.723 449.998C615.383 451.858 615.569 453.837 615.433 455.798C627.169 445.032 636.431 432.281 641.38 415.788Z" fill="#88E1EB"/>
<path d="M683.572 396.978C679.913 390.462 685.81 384.25 685.167 377.734C684.231 368.225 679.017 374.594 672.845 371.021C670.737 369.797 670.038 366.962 670.579 364.589C671.712 359.606 680.28 352.577 674.947 347.318C672.27 344.674 667.603 346.19 664.818 348.721C661.413 351.81 653.601 362.261 650.743 352.932C649.018 347.295 650.433 341.252 651.369 335.435C651.904 332.115 653.167 323.446 650.506 319.895C634.768 347.374 649.976 389.983 641.374 415.788C636.425 432.282 627.164 445.032 615.423 455.798C615.079 460.59 612.542 465.268 608.427 467.799C623.444 460.562 641.081 462.281 657.547 464.857C661.577 465.488 667.005 465.342 668.149 461.424C669.102 458.166 666.069 455.207 665.106 451.954C663.995 448.211 666.075 443.803 669.666 442.276C672.834 440.934 676.447 441.734 679.88 441.56C683.312 441.385 687.315 439.356 687.309 435.917C687.303 431.351 680.466 429.288 680.083 424.739C679.496 417.761 690.612 417.981 693.194 413.077C697.405 405.09 686.762 402.671 683.572 396.978Z" fill="#37C1D3"/>
<path fill-rule="evenodd" clip-rule="evenodd" d="M606.883 465.285L609.712 470.466C624.306 463.431 641.82 465.387 657.113 467.794C664.57 468.961 669.649 466.948 671.013 462.27C671.971 458.983 670.461 456.165 669.243 453.893L669.243 453.893C668.713 452.907 668.211 451.971 667.958 451.126C667.27 448.814 668.617 445.957 670.838 445.015C672.4 444.356 674.401 444.429 676.52 444.508L676.65 444.512C677.748 444.551 678.883 444.59 680.049 444.531C685.015 444.271 690.291 441.171 690.285 435.929C690.28 432.321 687.777 429.965 685.77 428.077L685.753 428.061C684.407 426.793 683.137 425.597 683.048 424.503C682.907 422.817 684.203 421.938 688.183 420.151L688.218 420.136C691.061 418.854 694.277 417.405 695.826 414.464C699.721 407.069 694.164 402.678 690.483 399.769L690.483 399.768C688.758 398.41 686.976 397.001 686.159 395.541C684.693 392.931 685.376 390.4 686.616 386.488L686.617 386.485C687.473 383.774 688.442 380.709 688.121 377.452C687.343 369.51 683.166 369.053 679.288 369.251L679.267 369.252C677.584 369.336 675.984 369.416 674.344 368.467C673.566 368.016 673.183 366.573 673.482 365.249C673.736 364.121 674.795 362.425 675.827 360.79C678.42 356.664 682.332 350.435 677.044 345.215C673.07 341.298 666.763 342.977 662.845 346.534C662.284 347.041 661.608 347.741 660.857 348.52L660.776 348.603C659.525 349.899 655.72 353.84 654.446 353.795C654.446 353.794 654.446 353.794 654.445 353.793C654.416 353.769 654.011 353.437 653.59 352.064C652.282 347.814 653.082 343.118 653.933 338.147C653.979 337.87 654.026 337.594 654.072 337.319C654.151 336.848 654.231 336.378 654.305 335.909C656.025 325.205 655.033 319.027 651.188 316.479C648.967 315.008 646.56 314.72 644.418 315.673C641.882 316.8 640.055 319.579 639.526 323.113L639.407 323.942L639.406 323.953C639.186 325.522 638.96 327.14 638.229 327.826C637.141 328.846 634.481 327.922 632.767 326.456C632.095 325.888 631.466 325.258 630.836 324.627C630.779 324.57 630.722 324.512 630.665 324.455L630.648 324.438C628.792 322.582 626.688 320.478 623.759 319.449C621.73 318.733 619.836 318.818 618.292 319.686C616.347 320.774 615.208 323.012 615.169 325.813C615.113 329.192 616.222 332.166 617.296 335.045L617.305 335.069C617.976 336.867 618.607 338.564 618.912 340.244C619.769 344.956 618.027 347.205 615.389 350.604C614.301 352.008 613.066 353.603 611.967 355.497C609.324 360.057 609.487 364.29 609.634 368.028C609.724 370.35 609.808 372.548 609.295 374.865C608.867 376.787 607.734 378.337 606.398 378.816C605.333 379.194 601.55 378.163 599.042 377.475C593.191 375.874 587.131 374.217 583.597 377.774C581.303 380.085 580.925 383.861 582.458 389.323C583.518 393.123 585.576 396.809 587.565 400.372C590.108 404.932 592.509 409.244 592.802 413.421C592.954 415.554 591.943 418.284 590.871 421.179L590.857 421.217L590.856 421.219C588.799 426.777 585.983 434.385 592.751 439.852C595.88 442.377 599.397 443.279 602.503 444.074C606.962 445.213 610.18 446.041 611.933 450.99C613.726 456.052 611.46 462.467 606.883 465.285ZM658.009 461.931C650.399 460.742 642.254 459.659 634.075 459.659C628.382 459.659 622.677 460.184 617.125 461.542C618.692 457.551 618.934 453.036 617.502 448.989C614.695 441.058 608.748 439.536 603.963 438.313C601.201 437.608 598.591 436.937 596.46 435.218C593.32 432.687 594.031 429.621 596.398 423.24L596.401 423.231C597.646 419.869 598.935 416.388 598.698 412.981C598.321 407.5 595.489 402.417 592.751 397.502L592.729 397.463C590.829 394.052 589.031 390.822 588.151 387.7C586.821 382.953 587.746 381.956 587.785 381.916C588.884 380.8 594.476 382.328 597.475 383.151L597.475 383.151C601.821 384.34 605.569 385.366 608.393 384.351C611.64 383.185 614.199 380.028 615.062 376.11C615.735 373.065 615.626 370.271 615.531 367.805L615.53 367.768L615.527 367.712C615.399 364.243 615.297 361.494 617.074 358.433C617.965 356.889 619.024 355.519 620.05 354.2L620.064 354.182C623.002 350.383 626.04 346.455 624.718 339.161C624.317 336.963 623.562 334.939 622.829 332.977L622.824 332.962C621.901 330.488 621.031 328.153 621.065 325.881C621.071 325.385 621.149 325.052 621.217 324.872C621.341 324.883 621.533 324.922 621.781 325.007C623.449 325.593 624.915 327.059 626.465 328.614C627.26 329.409 628.06 330.21 628.906 330.931C632.711 334.184 638.517 335.632 642.259 332.115C644.507 330.002 644.914 327.085 645.241 324.741L645.241 324.736L645.348 323.97C645.613 322.183 646.363 321.247 646.797 321.055C647.113 320.915 647.62 321.202 647.896 321.388C647.998 321.456 650.337 323.152 648.443 334.95L648.077 337.137L648.075 337.145C647.151 342.571 646.195 348.188 647.907 353.783C648.9 357.013 650.602 358.941 652.975 359.504C657.422 360.564 661.628 356.201 665.01 352.689C665.109 352.587 665.207 352.486 665.303 352.386C665.861 351.807 666.364 351.286 666.796 350.897C668.657 349.206 671.65 348.208 672.862 349.409C674.485 351.01 673.73 352.954 670.793 357.627C669.44 359.775 668.166 361.81 667.687 363.918C666.796 367.835 668.302 371.798 671.351 373.568C674.5 375.395 677.418 375.249 679.547 375.142L679.564 375.141C680.246 375.101 681.272 375.051 681.503 375.141C681.509 375.146 681.982 375.642 682.213 378.016C682.415 380.06 681.711 382.294 680.965 384.663L680.956 384.69L680.954 384.695C679.658 388.797 678.19 393.446 680.984 398.421C682.375 400.898 684.621 402.673 686.794 404.39L686.802 404.396C691.091 407.789 692.027 408.95 690.578 411.696C689.976 412.843 687.829 413.806 685.759 414.735L685.747 414.739L685.73 414.747C681.882 416.477 676.622 418.841 677.14 424.982C677.422 428.336 679.795 430.573 681.7 432.366C683.064 433.645 684.355 434.857 684.355 435.917C684.361 437.292 681.875 438.493 679.733 438.6C678.815 438.65 677.826 438.613 676.794 438.574L676.734 438.572C674.181 438.476 671.295 438.369 668.516 439.547C663.533 441.661 660.731 447.602 662.276 452.788C662.695 454.201 663.384 455.492 663.995 456.634L664.012 456.666C665.004 458.509 665.579 459.693 665.32 460.589C664.846 462.224 661.199 462.427 658.009 461.931Z" fill="#1A4A67"/>
<rect x="636.578" y="391.634" width="5.91303" height="73.4816" fill="#1A4A67"/>
<rect x="637.229" y="434.671" width="30.5964" height="5.91296" transform="rotate(-50.942 637.229 434.671)" fill="#1A4A67"/>
<rect x="614.649" y="399.378" width="5.91299" height="30.0215" transform="rotate(-49.9164 614.649 399.378)" fill="#1A4A67"/>
<path d="M614.267 517.972C614.735 519.584 615.276 521.276 616.403 522.313C617.734 523.536 619.543 523.558 621.212 523.525C630.85 523.322 640.512 523.885 650.157 523.835C659.271 523.79 666.802 524.46 667.755 510.69C667.822 509.731 667.907 506.992 668.042 503.26H610.541C611.651 508.243 612.88 513.159 614.267 517.972Z" fill="#1A4A67"/>
<path d="M670.156 457.5C670.139 457.5 605.214 457.5 605.214 457.5C607.486 472.596 609.588 488.216 612.649 503.272H664.959C665.449 488.407 666.638 457.5 670.156 457.5Z" fill="white"/>
<path fill-rule="evenodd" clip-rule="evenodd" d="M610.236 506.225H667.822L667.912 503.362C669.051 468.814 670.832 461.193 671.796 459.727C671.638 459.964 671.035 460.454 670.15 460.454V454.541H607.998C604.543 454.541 602.254 454.541 602.254 457.501L602.288 457.94C602.621 460.136 602.946 462.343 603.273 464.557C603.367 465.195 603.462 465.835 603.557 466.474C605.372 478.802 607.249 491.547 609.751 503.858L610.236 506.225ZM662.107 500.312H615.079C612.835 488.886 611.094 477.066 609.414 465.612L609.413 465.609C609.16 463.891 608.906 462.172 608.653 460.46H665.371C663.967 466.271 662.902 477.737 662.107 500.312Z" fill="#1A4A67"/>
<path d="M583.867 337.132C587.13 337.132 589.775 334.487 589.775 331.224C589.775 327.962 587.13 325.317 583.867 325.317C580.605 325.317 577.96 327.962 577.96 331.224C577.96 334.487 580.605 337.132 583.867 337.132Z" fill="#8BDEEC"/>
<path d="M605.631 300.464C608.894 300.464 611.538 297.819 611.538 294.557C611.538 291.294 608.894 288.649 605.631 288.649C602.368 288.649 599.724 291.294 599.724 294.557C599.724 297.819 602.368 300.464 605.631 300.464Z" fill="#8BDEEC"/>
<path d="M691.503 325.469C694.765 325.469 697.41 322.824 697.41 319.562C697.41 316.299 694.765 313.655 691.503 313.655C688.24 313.655 685.595 316.299 685.595 319.562C685.595 322.824 688.24 325.469 691.503 325.469Z" fill="#8BDEEC"/>
<path fill-rule="evenodd" clip-rule="evenodd" d="M249.395 257.85L330.937 328.237L295.121 259.851L249.395 257.85ZM323.92 319.387L255.382 260.228L293.813 261.908L323.92 319.387Z" fill="#231F20"/>
<path d="M200.811 262.528L227.558 259.231L270.403 322.594L200.811 262.528Z" fill="white"/>
<path fill-rule="evenodd" clip-rule="evenodd" d="M193.833 260.409L285.319 339.375L228.996 256.074L193.833 260.409ZM255.489 305.813L207.796 264.648L226.127 262.387L255.489 305.813Z" fill="#1A4A67"/>
<path d="M348.835 272.5L202.852 262.635C198.907 262.94 195.485 260.285 195.209 256.694L165.79 177.767C165.514 174.182 168.485 171.026 172.425 170.721L318.407 180.586C322.353 180.281 325.775 182.936 326.051 186.527L355.469 265.454C355.751 269.039 352.781 272.195 348.835 272.5Z" fill="white"/>
<path fill-rule="evenodd" clip-rule="evenodd" d="M202.852 265.6L348.851 275.465L349.066 275.448C354.629 275.019 358.823 270.431 358.423 265.228L358.395 264.811L328.959 185.845C328.322 180.941 323.762 177.328 318.413 177.626L172.413 167.762L172.199 167.779C166.635 168.207 162.442 172.796 162.842 177.998L162.87 178.416L192.306 257.382C192.942 262.286 197.497 265.905 202.852 265.6ZM348.795 269.535L202.835 259.676L202.621 259.693C200.298 259.868 198.303 258.43 198.151 256.475L198.123 256.057L168.726 177.198C168.794 175.44 170.384 173.934 172.464 173.692L318.424 183.551L318.638 183.534C320.955 183.354 322.956 184.797 323.108 186.753L323.136 187.17L352.532 266.029C352.464 267.788 350.875 269.293 348.795 269.535Z" fill="#1A4A67"/>
<path d="M275.595 224.012C277.33 216.033 271.189 207.924 261.88 205.9C252.571 203.877 243.619 208.705 241.885 216.685C240.15 224.665 246.291 232.774 255.6 234.797C264.909 236.82 273.861 231.992 275.595 224.012Z" fill="#4FD7E1"/>
<path d="M353.936 269.974L370.497 273.858L374.172 294.359L395.58 303.902L417.688 326.45L377.96 309.477L338.637 273.272L353.936 269.974Z" fill="#D1D3D4"/>
<path fill-rule="evenodd" clip-rule="evenodd" d="M376.331 311.997L430.241 335.029L397.3 301.428L376.804 292.296L373.067 271.418L353.964 266.942L332.442 271.587L376.331 311.997ZM405.135 317.871L379.589 306.958L344.832 274.957L353.902 273.001L367.926 276.288L371.534 296.422L393.861 306.371L405.135 317.871Z" fill="#1A4A67"/>
<path d="M279.146 180.462C279.146 180.462 174.245 172.367 171.956 173.072C169.668 173.776 166.675 173.776 170.198 181.347C173.721 188.917 181.33 211.346 181.33 211.346L279.146 180.462Z" fill="#D8D8D8"/>
<path fill-rule="evenodd" clip-rule="evenodd" d="M490.054 140.384C490.776 140.858 491.514 141.06 492.275 141.06C494.434 141.06 496.728 139.409 499.118 137.678C500.099 136.968 501.119 136.235 502.032 135.683C504.184 134.386 507.111 133.012 509.946 131.682L510.02 131.647C512.799 130.345 515.668 128.998 518.024 127.634L592.751 122.859C594.6 122.949 596.443 122.391 597.898 121.264C599.363 120.125 600.293 118.547 600.553 116.783L619.323 66.4233L619.47 66.0343L619.498 65.6228C619.65 63.6669 618.974 61.7842 617.587 60.313C616.279 58.9207 614.481 58.0695 612.52 57.9173L612.305 57.9004L518.52 64.2362C514.495 64.0445 510.972 66.9362 510.674 70.7862C510.347 75.0316 507.811 80.5054 505.572 85.3388L505.555 85.3743L505.543 85.4015C504.392 87.8829 503.303 90.2299 502.489 92.4203C501.191 95.9089 499.716 99.5219 498.284 103.031C498.224 103.179 498.164 103.326 498.103 103.474L498.09 103.507C494.464 112.397 490.717 121.585 488.69 130.863C487.833 134.781 487.41 138.648 490.054 140.384ZM494.107 133.986C494.186 133.479 494.298 132.865 494.462 132.126C496.373 123.362 500.017 114.424 503.542 105.777L503.571 105.706L503.577 105.691C505.08 102.004 506.634 98.1929 508.018 94.4835C508.733 92.5635 509.738 90.3901 510.803 88.0859C510.839 88.0089 510.874 87.9319 510.91 87.8546C513.368 82.5616 516.147 76.5584 516.558 71.2372C516.614 70.5777 517.421 70.0761 518.294 70.1437L518.508 70.1606L612.226 63.8305C612.643 63.8925 613.021 64.0841 613.28 64.3603C613.399 64.4843 613.523 64.6647 613.579 64.8845L594.882 115.047L594.735 115.436L594.707 115.853C594.679 116.202 594.453 116.45 594.267 116.591C593.924 116.856 593.444 116.986 592.971 116.946L592.762 116.929L516.209 121.822L515.589 122.2C513.396 123.536 510.403 124.939 507.505 126.298C504.512 127.701 501.418 129.156 498.977 130.627C497.887 131.284 496.802 132.064 495.748 132.821L495.657 132.887C495.195 133.22 494.642 133.614 494.107 133.986Z" fill="#E6E7E8"/>
<path d="M559.432 99.2184L589.899 97.8937C591.95 97.8036 593.551 96.0561 593.461 94.0043C593.371 91.9525 591.624 90.3517 589.572 90.4419L559.105 91.7665C557.053 91.8567 555.452 93.6041 555.542 95.6559C555.632 97.7021 557.38 99.303 559.432 99.2184Z" fill="#E6E7E8"/>
<path d="M537.521 86.5975L592.717 84.2019C594.769 84.1117 596.37 82.3642 596.28 80.3124C596.19 78.2606 594.442 76.6598 592.39 76.75L537.195 79.1456C535.143 79.2358 533.542 80.9832 533.632 83.035C533.722 85.0812 535.47 86.6877 537.521 86.5975Z" fill="#E6E7E8"/>
<path fill-rule="evenodd" clip-rule="evenodd" d="M208.646 149.817C211.343 151.758 213.926 153.619 216.29 153.619C217.08 153.619 217.852 153.411 218.602 152.932C221.431 151.077 220.935 146.771 219.983 142.396C217.649 131.681 213.309 121.044 209.109 110.762L208.895 110.238C207.237 106.175 205.533 101.998 204.03 97.9612C203.089 95.4303 201.826 92.7077 200.49 89.8273L200.469 89.7802C197.864 84.1549 194.914 77.7844 194.527 72.7872C194.363 70.6565 193.315 68.7399 191.573 67.3871C189.978 66.147 187.994 65.5269 185.902 65.634L77.3483 58.3005L77.1341 58.3174C72.5795 58.6726 69.1467 62.4436 69.4793 66.7332L69.5075 67.1504L91.4009 125.88C91.9702 129.86 95.6454 132.791 99.9858 132.566L186.618 138.101C189.346 139.691 192.695 141.263 195.941 142.785L196.001 142.813C199.303 144.36 202.71 145.957 205.231 147.481C206.302 148.129 207.491 148.98 208.636 149.809L208.646 149.817ZM188.422 132.29L99.9572 126.636L99.7487 126.647C98.4804 126.749 97.3192 125.971 97.2403 124.95L97.2121 124.539L75.3807 65.9723C75.4934 65.1268 76.3389 64.3884 77.4099 64.2362L185.908 71.5641L186.122 71.5471C186.815 71.4908 187.452 71.6712 187.942 72.0545C188.23 72.2743 188.585 72.6632 188.63 73.2382C189.097 79.3042 192.289 86.1903 195.109 92.276L195.124 92.3076L195.175 92.4186C196.441 95.1509 197.638 97.733 198.489 100.019C200.09 104.314 201.888 108.722 203.63 112.989L203.67 113.087C207.755 123.107 211.979 133.467 214.199 143.648C214.509 145.068 214.672 146.111 214.751 146.861C213.899 146.313 212.91 145.602 212.133 145.042L212.091 145.012L211.931 144.897C210.74 144.042 209.51 143.158 208.28 142.419C205.514 140.749 201.996 139.096 198.581 137.492L198.449 137.43L198.389 137.402C195.043 135.833 191.591 134.214 189.042 132.667L188.422 132.29Z" fill="#E6E7E8"/>
<path d="M138.542 105.655L103.278 104.122C100.904 104.021 99.05 101.992 99.1514 99.6184C99.2529 97.2453 101.282 95.3908 103.655 95.4923L138.919 97.0255C141.292 97.1269 143.147 99.1562 143.045 101.529C142.938 103.902 140.915 105.757 138.542 105.655Z" fill="#E6E7E8"/>
<path d="M163.901 91.0506L100.013 88.2773C97.6403 88.1758 95.7858 86.1465 95.8873 83.7734C95.9887 81.4003 98.018 79.5458 100.391 79.6473L164.285 82.4206C166.658 82.5221 168.512 84.5513 168.411 86.9244C168.304 89.2919 166.274 91.152 163.901 91.0506Z" fill="#E6E7E8"/>
<g opacity="0.72">
<path fill-rule="evenodd" clip-rule="evenodd" d="M270.612 61.3726C272.439 62.6916 274.31 64.0388 276.159 64.0388C276.852 64.0388 277.54 63.8528 278.222 63.4075C280.9 61.6545 280.032 57.6636 279.564 55.5216C278.041 48.5523 275.24 41.6839 272.53 35.0393L272.506 34.981L272.391 34.6992C271.303 32.0326 270.223 29.3872 269.248 26.7682C268.645 25.1459 267.851 23.4277 267.009 21.6084L266.937 21.4526L266.925 21.4256C265.282 17.8811 263.425 13.8747 263.189 10.8441C262.935 7.58605 260.015 5.13403 256.599 5.26931L186.686 0.545654L186.472 0.562565C184.826 0.692212 183.309 1.40809 182.204 2.58055C181.043 3.81501 180.451 5.4666 180.581 7.11255L180.609 7.52404L194.718 45.3753C195.209 48.391 198.072 50.6063 201.257 50.4654L256.735 54.0109C258.407 54.9736 260.388 55.9055 262.324 56.8164C262.417 56.8602 262.51 56.904 262.603 56.9477C264.716 57.9342 266.898 58.9601 268.487 59.9183C269.175 60.3374 269.895 60.8561 270.594 61.3592L270.612 61.3726ZM258.544 48.2051L201.251 44.5412L201.043 44.5581C200.733 44.575 200.575 44.451 200.558 44.4341L200.53 44.0226L186.579 6.58279C186.635 6.54333 186.708 6.50387 186.804 6.48132L256.605 11.1993L256.819 11.1824C257.118 11.1655 257.287 11.2895 257.304 11.3064C257.62 15.4044 259.722 19.9421 261.577 23.9442C262.4 25.7142 263.172 27.3827 263.713 28.837C264.706 31.5154 265.809 34.2202 266.922 36.9462L267.033 37.2189C269.592 43.4871 272.236 49.9638 273.679 56.2996C272.969 55.7866 272.242 55.2793 271.548 54.8622C269.699 53.7461 267.371 52.6526 265.122 51.5985C262.98 50.5951 260.771 49.5579 259.164 48.5828L258.544 48.2051Z" fill="#E6E7E8"/>
<path d="M226.098 32.0893L203.393 31.1085C201.865 31.0408 200.67 29.7387 200.738 28.2111C200.806 26.6836 202.108 25.4886 203.635 25.5562L226.341 26.5426C227.868 26.6103 229.063 27.9124 228.995 29.44C228.933 30.9619 227.626 32.1569 226.098 32.0893Z" fill="#E6E7E8"/>
<path d="M242.429 22.6871L201.291 20.9002C199.763 20.8326 198.568 19.5305 198.636 18.0029C198.704 16.4753 200.006 15.2803 201.533 15.348L242.671 17.1348C244.198 17.2025 245.394 18.5046 245.326 20.0322C245.264 21.5597 243.956 22.7547 242.429 22.6871Z" fill="#E6E7E8"/>
</g>
<path d="M280.928 110.808L245.664 109.275C243.291 109.173 241.436 107.144 241.538 104.771C241.639 102.398 243.668 100.543 246.041 100.645L281.305 102.178C283.679 102.279 285.533 104.309 285.432 106.682C285.325 109.055 283.301 110.909 280.928 110.808Z" fill="#E6E7E8"/>
<path d="M284.445 128.039L249.181 126.506C246.808 126.405 244.954 124.376 245.055 122.002C245.157 119.629 247.186 117.775 249.559 117.876L284.823 119.41C287.196 119.511 289.051 121.54 288.949 123.913C288.848 126.286 286.818 128.147 284.445 128.039Z" fill="#E6E7E8"/>
<path d="M290.697 145.734L255.433 144.201C253.06 144.099 251.205 142.07 251.307 139.697C251.408 137.324 253.437 135.469 255.811 135.571L291.075 137.104C293.448 137.205 295.302 139.235 295.201 141.608C295.099 143.981 293.07 145.835 290.697 145.734Z" fill="#E6E7E8"/>
<path d="M408.348 28.5886C408.348 28.5886 415.304 44.0448 404.436 53.5597C393.568 63.0747 378.794 55.5439 364.454 64.2584C350.114 72.973 351.658 83.2996 358.237 106.292C366.061 133.642 374.606 132.825 382.289 134.803C389.972 136.787 392.266 158.191 393.134 168.1C394.002 178.01 395.304 184.746 367.926 198.223C340.548 211.701 355.486 232.315 358.231 259.033C361.269 288.587 326.203 305.633 320.12 312.769C314.038 319.905 299.693 321.095 291.869 306.033C284.045 290.972 323.801 279.884 320.329 255.708C316.851 231.531 295.623 215.263 325.611 191.482C355.599 167.7 349.674 148.681 339.68 129.262C329.686 109.843 324.906 102.313 333.158 77.3415C341.411 52.3704 332.724 59.9012 343.587 40.0821C354.46 20.2687 394.008 -1.53457 408.348 28.5886Z" fill="#1A4A67"/>
<path d="M450.759 311.349L449.158 306.253L446.605 319.533L450.759 311.349Z" fill="#8BDEEC"/>
<path d="M439.734 339.601L448.465 294.185L453.944 311.608L439.734 339.601Z" fill="#1A4A67"/>
<path d="M454.807 254.141C448.471 234.254 446.183 226.859 437.384 207.614C428.584 188.37 410.276 176.347 410.276 176.347L393.382 175.439L387.391 175.118C387.391 175.118 384.572 175.293 371.376 186.206C360.21 195.439 349.421 219.153 346.36 226.244C345.802 227.535 345.503 228.273 345.503 228.273L339.872 290.228L379.476 319.443L407.469 329.533L436.267 339.911L446.611 319.528L449.164 306.248L454.108 280.538L463.262 277.9C463.257 277.906 461.143 274.033 454.807 254.141Z" fill="#8BDEEC"/>
<path fill-rule="evenodd" clip-rule="evenodd" d="M378.067 322.081L437.715 343.58L449.429 320.509L456.661 282.894L467.54 279.732L465.866 276.524C465.776 276.355 463.673 272.241 457.625 253.256L457.179 251.858C451.21 233.11 448.735 225.348 440.072 206.397C431.019 186.6 412.677 174.391 411.899 173.884L411.234 173.444L387.384 172.159L387.215 172.17C384.092 172.362 375.857 178.669 369.499 183.928C357.825 193.573 346.76 217.856 343.648 225.072C343.073 226.402 342.763 227.163 342.763 227.163L342.6 227.569L336.777 291.62L378.067 322.081ZM434.813 336.241L380.886 316.805L342.972 288.83L348.412 228.978C348.547 228.645 348.773 228.11 349.077 227.405C352.059 220.5 362.611 197.282 373.265 188.477C383.106 180.344 386.832 178.472 387.757 178.089L409.289 179.25C412.514 181.533 427.248 192.559 434.695 208.843C443.212 227.467 445.484 234.592 451.549 253.639L451.994 255.037C455.647 266.502 457.913 272.72 459.215 275.989L451.543 278.199L443.781 318.558L434.813 336.241Z" fill="#1A4A67"/>
<path d="M438.612 280.082L437.716 277.579L421.189 231.503L408.596 300.684L437.209 318.209L441.713 299.686L438.612 280.082Z" fill="#37C1D3"/>
<path d="M360.976 59.276C360.976 59.276 343.964 71.8235 350.734 100.008C357.504 128.192 378.557 152.261 387.052 150.564C410.541 145.875 418.776 129.274 426.921 115.03C436.91 97.5613 417.079 54.9469 417.079 54.9469L398.348 44.8457L360.976 59.276Z" fill="white"/>
<path fill-rule="evenodd" clip-rule="evenodd" d="M360.977 59.2755C360.977 59.2757 360.976 59.2758 360.976 59.276C360.976 59.2762 360.975 59.2765 360.975 59.2767C360.975 59.2764 360.976 59.2762 360.976 59.2759C360.976 59.2758 360.977 59.2756 360.977 59.2755ZM398.204 46.5633C385.894 50.8756 373.539 55.1786 360.977 59.2755C373.09 53.8305 385.412 48.5997 397.79 43.3858L398.416 43.1208L399.098 43.4647L418.083 53.098L418.68 53.4024L418.99 54.0619C423.071 62.8046 426.572 71.6939 429.142 81.0172C430.427 85.6676 431.47 90.4194 432.09 95.3009C432.676 100.177 432.862 105.239 431.713 110.391L431.2 112.319L430.501 114.229C430.33 114.655 430.121 115.072 429.911 115.491C429.809 115.693 429.708 115.897 429.61 116.101C429.416 116.493 429.239 116.804 429.063 117.112C428.953 117.305 428.843 117.497 428.731 117.707L425.196 123.919C422.761 128.062 420.163 132.233 416.955 136.044C413.771 139.854 410.039 143.327 405.806 146.089C401.584 148.862 396.911 150.908 392.108 152.278L388.472 153.129L387.537 153.332L387.502 153.336C387.044 153.391 386.556 153.45 386.116 153.445C385.209 153.422 384.403 153.27 383.642 153.067C380.716 152.154 378.569 150.638 376.562 149.059C372.599 145.846 369.375 142.137 366.41 138.259C360.57 130.447 356.038 121.811 352.667 112.753C351.038 108.198 349.663 103.565 348.834 98.7789C347.82 94.027 347.69 89.0835 348.096 84.2584C348.536 79.422 349.826 74.6476 352.013 70.3411C354.172 66.0349 357.159 62.1063 360.975 59.2767C354.031 65.821 350.711 75.2623 350.463 84.4049C350.373 85.5548 350.435 86.7047 350.503 87.8602C350.515 88.095 350.526 88.3297 350.536 88.5643C350.578 89.4791 350.619 90.3925 350.785 91.2987L351.258 94.7202L352.019 98.0967C353.045 102.601 354.612 107.014 356.399 111.287C359.961 119.849 364.685 127.961 370.412 135.153C373.27 138.733 376.41 142.132 379.882 144.809C381.595 146.134 383.484 147.261 385.113 147.712C385.502 147.797 385.857 147.853 386.144 147.853C386.205 147.851 386.257 147.842 386.305 147.833C386.369 147.823 386.427 147.813 386.494 147.819L387.289 147.622L390.558 146.81C394.853 145.548 398.934 143.716 402.615 141.258C406.296 138.811 409.56 135.745 412.418 132.273C415.287 128.806 417.801 124.962 420.174 120.954L423.714 114.844C423.81 114.671 423.916 114.489 424.022 114.308C424.222 113.966 424.421 113.624 424.554 113.344C424.636 113.168 424.725 112.996 424.814 112.824C424.95 112.561 425.086 112.297 425.202 112.014L425.737 110.594L426.149 109.089C427.09 104.979 427.051 100.43 426.622 95.9153C426.155 91.3832 425.275 86.8343 424.142 82.3361C421.884 73.5618 418.964 64.7983 415.434 56.4242L416.093 56.8013L415.185 55.8374C415.268 56.0328 415.351 56.2284 415.434 56.4242L398.204 46.5633ZM398.204 46.5633C398.443 46.4793 398.683 46.3952 398.923 46.3112L397.615 46.2266L398.204 46.5633Z" fill="#1A4A67"/>
<path d="M394.876 46.8239C394.876 46.8239 406.697 50.7866 417.085 67.4322C427.474 84.0777 420.659 86.7947 420.659 109.111C420.659 115.633 419.436 122.059 415.902 127.617C413.337 131.653 409.679 134.832 407.024 138.789C403.67 143.783 402.599 149.42 402.869 155.378C403.439 167.976 405.451 178.438 416.64 185.552C428.737 193.24 434.379 203.511 437.558 217.389C441.363 234.006 468.758 243.408 478.318 237.067C487.878 230.725 459.362 234.959 465.015 207.614C470.663 180.264 472.603 168.658 456.087 161.06C439.571 153.461 447.462 151.455 456.154 134.809C464.846 118.164 442.44 118.367 451.284 89.3932C461.492 55.95 452.242 18.6793 402.261 28.9834C352.279 39.2875 394.876 46.8239 394.876 46.8239Z" fill="#1A4A67"/>
<path d="M382.706 78.6494C397.046 69.9292 393.574 63.0692 404.442 53.5599C415.304 44.0449 408.354 28.5888 408.354 28.5888C394.013 -1.53441 354.465 20.2632 343.598 40.0823C332.73 59.9013 341.428 52.3705 333.17 77.3417C327.476 94.5509 327.984 103.48 332.121 113.727L355.497 123.192C346.033 87.285 371.923 85.205 382.706 78.6494Z" fill="#1A4A67"/>
<path d="M440.9 310.289C440.9 310.289 440.9 319.968 437.203 318.209C433.505 316.45 398.833 294.799 394.256 289.698C389.679 284.591 378.94 266.113 378.416 262.416C377.886 258.718 379.651 258.543 372.43 259.597C365.215 260.651 352.188 264.704 354.127 266.987C356.061 269.276 361.517 267.692 361.517 267.692C361.517 267.692 355.125 271.739 358.231 272.269C361.337 272.799 370.491 271.034 370.491 273.853C370.491 276.671 369.961 286.175 372.075 290.927C374.189 295.679 376.827 297.263 383.692 298.846C390.558 300.43 391.77 299.901 397.412 305.712C403.055 311.524 434.559 339.505 438.606 340.914C442.653 342.323 444.412 344.787 449.344 335.807C454.271 326.833 457.794 319.968 458.143 305.887C458.493 291.806 456.909 278.255 456.909 278.255L441.244 281.074C441.256 281.074 442.665 296.913 440.9 310.289Z" fill="white"/>
<path fill-rule="evenodd" clip-rule="evenodd" d="M439.018 344.251C440.489 344.86 441.825 345.243 443.099 345.243C446.053 345.243 448.674 343.191 451.949 337.25C457.417 327.295 460.759 320.227 461.115 305.977C461.47 291.851 459.931 278.492 459.863 277.928L459.497 274.805L438.077 278.655L438.314 281.35C438.33 281.502 439.678 297.014 437.975 309.917L437.947 310.3C437.947 311.935 437.71 313.823 437.395 314.973C430.416 311.061 400.304 292.009 396.466 287.73C391.697 282.409 381.804 264.766 381.353 262.004C381.278 261.441 381.264 260.982 381.253 260.606L381.252 260.561L381.252 260.554C381.224 259.573 381.181 258.095 379.888 257.004C378.396 255.748 376.904 255.966 372.478 256.613L372.464 256.615L372.013 256.683C371.827 256.711 353.288 259.744 351.23 265.178C350.745 266.463 350.988 267.855 351.878 268.909C352.611 269.772 353.53 270.335 354.522 270.685C354.319 271.412 354.426 271.947 354.5 272.308C354.612 272.872 355.187 274.754 357.746 275.189C359.042 275.409 360.726 275.338 362.687 275.256C362.731 275.254 362.775 275.252 362.82 275.251C364.105 275.194 366.247 275.104 367.526 275.222V275.284L367.526 275.316C367.447 279.567 367.3 287.438 369.386 292.133C372.103 298.243 375.953 300.098 383.039 301.732C384.053 301.963 384.95 302.155 385.756 302.324C390.186 303.26 391.105 303.457 395.299 307.775C399.696 312.301 432.508 341.923 437.643 343.71C438.133 343.884 438.59 344.071 439.018 344.251ZM372.199 270.91C370.773 269.552 368.552 269.242 365.897 269.242C365.681 269.242 365.463 269.245 365.243 269.248C365.02 269.25 364.796 269.253 364.572 269.253L375.44 262.348C375.455 262.479 375.473 262.614 375.493 262.754C375.496 262.776 375.499 262.799 375.502 262.822C376.156 267.41 387.356 286.4 392.069 291.66C397.102 297.274 432.085 319.032 435.946 320.87C437.456 321.591 439.085 321.529 440.41 320.689C443.353 318.829 443.849 313.576 443.865 310.475C445.201 300.143 444.728 288.627 444.407 283.497L454.305 281.716C454.745 286.496 455.449 296.073 455.207 305.802C454.874 318.976 451.785 325.244 446.768 334.375C443.787 339.802 443.313 339.607 441.296 338.773L441.295 338.772C440.765 338.552 440.207 338.321 439.643 338.13C435.923 336.523 406.138 310.43 399.549 303.643C394.363 298.305 392.272 297.646 386.984 296.53L386.895 296.511C386.14 296.352 385.307 296.177 384.369 295.96C377.785 294.439 376.336 293.198 374.792 289.721C373.232 286.218 373.377 278.647 373.439 275.401L373.439 275.392C373.441 275.287 373.443 275.186 373.445 275.087C373.454 274.599 373.462 274.181 373.462 273.853C373.462 272.737 373.011 271.688 372.199 270.91Z" fill="#1A4A67"/>
<path fill-rule="evenodd" clip-rule="evenodd" d="M249.395 257.85L330.937 328.237L295.121 259.851L249.395 257.85ZM323.92 319.387L255.382 260.228L293.813 261.908L323.92 319.387Z" fill="#231F20"/>
<path d="M200.811 262.528L227.558 259.231L270.403 322.594L200.811 262.528Z" fill="white"/>
<path fill-rule="evenodd" clip-rule="evenodd" d="M193.833 260.409L285.319 339.375L228.996 256.074L193.833 260.409ZM255.489 305.813L207.796 264.648L226.127 262.387L255.489 305.813Z" fill="#1A4A67"/>
<path d="M348.835 272.5L202.852 262.635C198.907 262.94 195.485 260.285 195.209 256.694L165.79 177.767C165.514 174.182 168.485 171.026 172.425 170.721L318.407 180.586C322.353 180.281 325.775 182.936 326.051 186.527L355.469 265.454C355.751 269.039 352.781 272.195 348.835 272.5Z" fill="white"/>
<path fill-rule="evenodd" clip-rule="evenodd" d="M202.852 265.6L348.851 275.465L349.066 275.448C354.629 275.019 358.823 270.431 358.423 265.228L358.395 264.811L328.959 185.845C328.322 180.941 323.762 177.328 318.413 177.626L172.413 167.762L172.199 167.779C166.635 168.207 162.442 172.796 162.842 177.998L162.87 178.416L192.306 257.382C192.942 262.286 197.497 265.905 202.852 265.6ZM348.795 269.535L202.835 259.676L202.621 259.693C200.298 259.868 198.303 258.43 198.151 256.475L198.123 256.057L168.726 177.198C168.794 175.44 170.384 173.934 172.464 173.692L318.424 183.551L318.638 183.534C320.955 183.354 322.956 184.797 323.108 186.753L323.136 187.17L352.532 266.029C352.464 267.788 350.875 269.293 348.795 269.535Z" fill="#1A4A67"/>
<path d="M275.595 224.012C277.33 216.033 271.189 207.924 261.88 205.9C252.571 203.877 243.619 208.705 241.885 216.685C240.15 224.665 246.291 232.774 255.6 234.797C264.909 236.82 273.861 231.992 275.595 224.012Z" fill="#4FD7E1"/>
<path d="M353.936 269.974L370.497 273.858L374.172 294.359L395.58 303.902L417.688 326.45L377.96 309.477L338.637 273.272L353.936 269.974Z" fill="#D1D3D4"/>
<path fill-rule="evenodd" clip-rule="evenodd" d="M376.331 311.997L430.241 335.029L397.3 301.428L376.804 292.296L373.067 271.418L353.964 266.942L332.442 271.587L376.331 311.997ZM405.135 317.871L379.589 306.958L344.832 274.957L353.902 273.001L367.926 276.288L371.534 296.422L393.861 306.371L405.135 317.871Z" fill="#1A4A67"/>
<path d="M279.146 180.462C279.146 180.462 174.245 172.367 171.956 173.072C169.668 173.776 166.675 173.776 170.198 181.347C173.721 188.917 181.33 211.346 181.33 211.346L279.146 180.462Z" fill="#D8D8D8"/>
<path fill-rule="evenodd" clip-rule="evenodd" d="M490.054 140.384C490.776 140.858 491.514 141.06 492.275 141.06C494.434 141.06 496.728 139.409 499.118 137.678C500.099 136.968 501.119 136.235 502.032 135.683C504.184 134.386 507.111 133.012 509.946 131.682L510.02 131.647C512.799 130.345 515.668 128.998 518.024 127.634L592.751 122.859C594.6 122.949 596.443 122.391 597.898 121.264C599.363 120.125 600.293 118.547 600.553 116.783L619.323 66.4233L619.47 66.0343L619.498 65.6228C619.65 63.6669 618.974 61.7842 617.587 60.313C616.279 58.9207 614.481 58.0695 612.52 57.9173L612.305 57.9004L518.52 64.2362C514.495 64.0445 510.972 66.9362 510.674 70.7862C510.347 75.0316 507.811 80.5054 505.572 85.3388L505.555 85.3743L505.543 85.4015C504.392 87.8829 503.303 90.2299 502.489 92.4203C501.191 95.9089 499.716 99.5219 498.284 103.031C498.224 103.179 498.164 103.326 498.103 103.474L498.09 103.507C494.464 112.397 490.717 121.585 488.69 130.863C487.833 134.781 487.41 138.648 490.054 140.384ZM494.107 133.986C494.186 133.479 494.298 132.865 494.462 132.126C496.373 123.362 500.017 114.424 503.542 105.777L503.571 105.706L503.577 105.691C505.08 102.004 506.634 98.1929 508.018 94.4835C508.733 92.5635 509.738 90.3901 510.803 88.0859C510.839 88.0089 510.874 87.9319 510.91 87.8546C513.368 82.5616 516.147 76.5584 516.558 71.2372C516.614 70.5777 517.421 70.0761 518.294 70.1437L518.508 70.1606L612.226 63.8305C612.643 63.8925 613.021 64.0841 613.28 64.3603C613.399 64.4843 613.523 64.6647 613.579 64.8845L594.882 115.047L594.735 115.436L594.707 115.853C594.679 116.202 594.453 116.45 594.267 116.591C593.924 116.856 593.444 116.986 592.971 116.946L592.762 116.929L516.209 121.822L515.589 122.2C513.396 123.536 510.403 124.939 507.505 126.298C504.512 127.701 501.418 129.156 498.977 130.627C497.887 131.284 496.802 132.064 495.748 132.821L495.657 132.887C495.195 133.22 494.642 133.614 494.107 133.986Z" fill="#E6E7E8"/>
<path d="M559.432 99.2184L589.899 97.8937C591.95 97.8036 593.551 96.0561 593.461 94.0043C593.371 91.9525 591.624 90.3517 589.572 90.4419L559.105 91.7665C557.053 91.8567 555.452 93.6041 555.542 95.6559C555.632 97.7021 557.38 99.303 559.432 99.2184Z" fill="#E6E7E8"/>
<path d="M537.521 86.5975L592.717 84.2019C594.769 84.1117 596.37 82.3642 596.28 80.3124C596.19 78.2606 594.442 76.6598 592.39 76.75L537.195 79.1456C535.143 79.2358 533.542 80.9832 533.632 83.035C533.722 85.0812 535.47 86.6877 537.521 86.5975Z" fill="#E6E7E8"/>
<path fill-rule="evenodd" clip-rule="evenodd" d="M208.646 149.817C211.343 151.758 213.926 153.619 216.29 153.619C217.08 153.619 217.852 153.411 218.602 152.932C221.431 151.077 220.935 146.771 219.983 142.396C217.649 131.681 213.309 121.044 209.109 110.762L208.895 110.238C207.237 106.175 205.533 101.998 204.03 97.9612C203.089 95.4303 201.826 92.7077 200.49 89.8273L200.469 89.7802C197.864 84.1549 194.914 77.7844 194.527 72.7872C194.363 70.6565 193.315 68.7399 191.573 67.3871C189.978 66.147 187.994 65.5269 185.902 65.634L77.3483 58.3005L77.1341 58.3174C72.5795 58.6726 69.1467 62.4436 69.4793 66.7332L69.5075 67.1504L91.4009 125.88C91.9702 129.86 95.6454 132.791 99.9858 132.566L186.618 138.101C189.346 139.691 192.695 141.263 195.941 142.785L196.001 142.813C199.303 144.36 202.71 145.957 205.231 147.481C206.302 148.129 207.491 148.98 208.636 149.809L208.646 149.817ZM188.422 132.29L99.9572 126.636L99.7487 126.647C98.4804 126.749 97.3192 125.971 97.2403 124.95L97.2121 124.539L75.3807 65.9723C75.4934 65.1268 76.3389 64.3884 77.4099 64.2362L185.908 71.5641L186.122 71.5471C186.815 71.4908 187.452 71.6712 187.942 72.0545C188.23 72.2743 188.585 72.6632 188.63 73.2382C189.097 79.3042 192.289 86.1903 195.109 92.276L195.124 92.3076L195.175 92.4186C196.441 95.1509 197.638 97.733 198.489 100.019C200.09 104.314 201.888 108.722 203.63 112.989L203.67 113.087C207.755 123.107 211.979 133.467 214.199 143.648C214.509 145.068 214.672 146.111 214.751 146.861C213.899 146.313 212.91 145.602 212.133 145.042L212.091 145.012L211.931 144.897C210.74 144.042 209.51 143.158 208.28 142.419C205.514 140.749 201.996 139.096 198.581 137.492L198.449 137.43L198.389 137.402C195.043 135.833 191.591 134.214 189.042 132.667L188.422 132.29Z" fill="#E6E7E8"/>
<path d="M138.542 105.655L103.278 104.122C100.904 104.021 99.05 101.992 99.1514 99.6184C99.2529 97.2453 101.282 95.3908 103.655 95.4923L138.919 97.0255C141.292 97.1269 143.147 99.1562 143.045 101.529C142.938 103.902 140.915 105.757 138.542 105.655Z" fill="#E6E7E8"/>
<path d="M163.901 91.0506L100.013 88.2773C97.6403 88.1758 95.7858 86.1465 95.8873 83.7734C95.9887 81.4003 98.018 79.5458 100.391 79.6473L164.285 82.4206C166.658 82.5221 168.512 84.5513 168.411 86.9244C168.304 89.2919 166.274 91.152 163.901 91.0506Z" fill="#E6E7E8"/>
<g opacity="0.72">
<path fill-rule="evenodd" clip-rule="evenodd" d="M270.612 61.3726C272.439 62.6916 274.31 64.0388 276.159 64.0388C276.852 64.0388 277.54 63.8528 278.222 63.4075C280.9 61.6545 280.032 57.6636 279.564 55.5216C278.041 48.5523 275.24 41.6839 272.53 35.0393L272.506 34.981L272.391 34.6992C271.303 32.0326 270.223 29.3872 269.248 26.7682C268.645 25.1459 267.851 23.4277 267.009 21.6084L266.937 21.4526L266.925 21.4256C265.282 17.8811 263.425 13.8747 263.189 10.8441C262.935 7.58605 260.015 5.13403 256.599 5.26931L186.686 0.545654L186.472 0.562565C184.826 0.692212 183.309 1.40809 182.204 2.58055C181.043 3.81501 180.451 5.4666 180.581 7.11255L180.609 7.52404L194.718 45.3753C195.209 48.391 198.072 50.6063 201.257 50.4654L256.735 54.0109C258.407 54.9736 260.388 55.9055 262.324 56.8164C262.417 56.8602 262.51 56.904 262.603 56.9477C264.716 57.9342 266.898 58.9601 268.487 59.9183C269.175 60.3374 269.895 60.8561 270.594 61.3592L270.612 61.3726ZM258.544 48.2051L201.251 44.5412L201.043 44.5581C200.733 44.575 200.575 44.451 200.558 44.4341L200.53 44.0226L186.579 6.58279C186.635 6.54333 186.708 6.50387 186.804 6.48132L256.605 11.1993L256.819 11.1824C257.118 11.1655 257.287 11.2895 257.304 11.3064C257.62 15.4044 259.722 19.9421 261.577 23.9442C262.4 25.7142 263.172 27.3827 263.713 28.837C264.706 31.5154 265.809 34.2202 266.922 36.9462L267.033 37.2189C269.592 43.4871 272.236 49.9638 273.679 56.2996C272.969 55.7866 272.242 55.2793 271.548 54.8622C269.699 53.7461 267.371 52.6526 265.122 51.5985C262.98 50.5951 260.771 49.5579 259.164 48.5828L258.544 48.2051Z" fill="#E6E7E8"/>
<path d="M226.098 32.0893L203.393 31.1085C201.865 31.0408 200.67 29.7387 200.738 28.2111C200.806 26.6836 202.108 25.4886 203.635 25.5562L226.341 26.5426C227.868 26.6103 229.063 27.9124 228.995 29.44C228.933 30.9619 227.626 32.1569 226.098 32.0893Z" fill="#E6E7E8"/>
<path d="M242.429 22.6871L201.291 20.9002C199.763 20.8326 198.568 19.5305 198.636 18.0029C198.704 16.4753 200.006 15.2803 201.533 15.348L242.671 17.1348C244.198 17.2025 245.394 18.5046 245.326 20.0322C245.264 21.5597 243.956 22.7547 242.429 22.6871Z" fill="#E6E7E8"/>
</g>
<path d="M280.928 110.808L245.664 109.275C243.291 109.173 241.436 107.144 241.538 104.771C241.639 102.398 243.668 100.543 246.041 100.645L281.305 102.178C283.679 102.279 285.533 104.309 285.432 106.682C285.325 109.055 283.301 110.909 280.928 110.808Z" fill="#E6E7E8"/>
<path d="M284.445 128.039L249.181 126.506C246.808 126.405 244.954 124.376 245.055 122.002C245.157 119.629 247.186 117.775 249.559 117.876L284.823 119.41C287.196 119.511 289.051 121.54 288.949 123.913C288.848 126.286 286.818 128.147 284.445 128.039Z" fill="#E6E7E8"/>
<path d="M290.697 145.734L255.433 144.201C253.06 144.099 251.205 142.07 251.307 139.697C251.408 137.324 253.437 135.469 255.811 135.571L291.075 137.104C293.448 137.205 295.302 139.235 295.201 141.608C295.099 143.981 293.07 145.835 290.697 145.734Z" fill="#E6E7E8"/>
<path d="M129.843 399.948L88.5649 460.403L107.358 476.282L146.681 410.647C146.675 410.641 137.662 400.501 129.843 399.948Z" fill="white"/>
<path fill-rule="evenodd" clip-rule="evenodd" d="M84.6138 460.933L108.102 480.78L150.322 410.292L148.885 408.668C147.876 407.541 138.817 397.609 130.047 396.989L128.356 396.871L84.6138 460.933ZM106.608 471.778L92.5108 459.868L131.225 403.173C135.43 404.289 140.243 408.347 142.983 411.058L106.608 471.778Z" fill="#1A4A67"/>
<path d="M4.95962 494.123C4.95962 494.123 20.8386 499.545 51.2661 501.8C81.6937 504.06 115.656 505.188 121.828 500.673C128 496.158 131.969 457.765 121.828 457.765C111.687 457.765 107.741 472.443 89.8559 459.343C74.535 448.12 62.2918 469.281 35.6127 474.924C8.93358 480.566 -1.87221 482.832 4.95962 494.123Z" fill="#A7A9AC"/>
<path fill-rule="evenodd" clip-rule="evenodd" d="M51.0466 504.748C68.9717 506.079 83.6782 506.744 95.1209 506.744C110.69 506.744 120.222 505.515 123.57 503.052C130.013 498.339 132.899 472.32 129.455 461.784C127.465 455.708 123.818 454.8 121.823 454.8C117.579 454.8 114.288 456.818 111.379 458.601L111.355 458.616L111.351 458.619C106.037 461.881 101.838 464.46 91.5923 456.954C81.0176 449.214 71.7112 454.603 60.9392 460.854L60.9312 460.859C53.7011 465.052 45.5016 469.806 34.8125 472.066C13.945 476.48 3.47177 478.7 0.658994 485.188C-0.620565 488.148 -0.0399723 491.569 2.42896 495.65L2.987 496.569L4.00163 496.919C4.66678 497.144 20.5852 502.488 51.0466 504.748ZM51.4861 498.852C26.1486 496.969 10.9179 492.838 6.95519 491.648C5.9913 489.833 5.70382 488.452 6.09276 487.545C7.68602 483.863 19.5525 481.35 36.1603 477.834L36.2216 477.821C47.6643 475.397 56.6776 470.172 63.9153 465.972C74.9071 459.592 80.978 456.508 88.1086 461.728C101.565 471.584 108.712 467.193 114.455 463.665L114.461 463.661L114.463 463.66C117.032 462.082 119.253 460.719 121.834 460.719C122.612 460.719 123.378 462.218 123.84 463.628C127.245 474.05 122.995 496.152 120.086 498.283C116.687 500.769 96.8907 502.223 51.4861 498.852Z" fill="#1A4A67"/>
<path d="M386.781 334.578C383.134 327.718 363.394 331.585 339.736 322.786C316.073 313.987 300.792 295.503 273.91 274.208C247.028 252.912 248.865 256.604 237.265 255.724C225.664 254.845 211.301 286.175 203.196 302.724C186.133 337.571 164.538 368.709 132.279 388.968C122.476 395.123 79.2869 418.538 72.0718 428.347C56.8749 448.989 131.591 449.163 151.128 451.548C170.468 453.904 181.313 442.918 189.137 425.556C198.066 405.754 207.835 386.375 217.592 366.995C222.474 357.3 227.378 347.61 232.163 337.864C234.226 333.665 238.691 318.423 243.668 316.523C258.978 310.695 279.186 357.362 283.481 367.847C292.133 388.968 323.807 413.612 346.822 416.075C369.837 418.538 387.148 403.229 394.695 380.873C402.249 358.518 386.781 334.578 386.781 334.578Z" fill="white"/>
<path fill-rule="evenodd" clip-rule="evenodd" d="M150.774 454.479C152.628 454.704 154.398 454.811 156.095 454.811C176.663 454.811 186.291 439.068 191.832 426.774C200.632 407.253 210.429 387.799 219.906 368.981L219.92 368.951L222.384 364.064L222.585 363.665C226.626 355.644 230.799 347.361 234.824 339.166C235.381 338.025 236.02 336.361 236.829 334.256L236.859 334.178L236.879 334.125C238.36 330.275 242.22 320.239 244.728 319.285C254.035 315.745 269.93 342.554 280.753 368.968C290.054 391.668 322.629 416.453 346.518 419.012C369.415 421.458 388.935 407.208 397.509 381.815C405.248 358.89 390.598 335.057 389.335 333.073C386.709 328.321 379.973 327.521 370.683 326.421L370.65 326.418C362.358 325.432 352.05 324.206 340.774 320.012C324.743 314.049 312.731 303.553 297.528 290.261L297.353 290.108C290.705 284.299 283.827 278.289 275.748 271.891C252.98 253.853 250.139 253.126 241.78 252.957C241.678 252.954 241.574 252.952 241.469 252.95C240.318 252.924 239.025 252.895 237.49 252.776C225.653 251.874 214.058 273.621 202.249 297.922L200.541 301.422C180.671 341.996 158.479 369.019 130.706 386.459C128.548 387.812 124.743 390.022 119.923 392.818C97.5224 405.805 75.1893 419.113 69.6878 426.588C66.3057 431.188 66.8412 434.851 67.8953 437.112C73.0417 448.194 102.877 451.08 135.639 453.273L136.033 453.299C142.122 453.711 147.369 454.065 150.774 454.479ZM207.57 300.509C214.193 286.874 227.902 258.667 236.735 258.667C236.836 258.667 236.943 258.667 237.033 258.678C238.78 258.815 240.231 258.845 241.524 258.873L241.65 258.876C248.222 259.005 249.992 259.045 272.066 276.53C280.104 282.9 286.981 288.909 293.627 294.72C308.666 307.871 321.653 319.223 338.699 325.565C350.655 330.012 361.821 331.337 369.972 332.301L369.983 332.302C376.698 333.096 383.039 333.846 384.166 335.97L384.295 336.185L384.296 336.186C384.486 336.485 398.895 359.197 391.894 379.926C384.256 402.547 367.12 415.275 347.137 413.133C325.43 410.811 294.687 387.389 286.22 366.725C278.808 348.625 259.705 307.251 242.619 313.756C238.003 315.514 234.779 323.085 231.335 332.058C230.602 333.981 229.965 335.643 229.514 336.557C225.433 344.86 221.2 353.27 217.102 361.398L214.638 366.285C205.129 385.169 195.298 404.695 186.443 424.339C177.897 443.29 167.464 450.55 151.483 448.605C147.848 448.16 142.369 447.794 136.033 447.371C116.986 446.097 77.3534 443.442 73.2555 434.62L73.2543 434.618C73.0501 434.175 72.4308 432.834 74.4505 430.094C79.6814 422.986 107.787 406.69 122.888 397.936L122.92 397.917C127.775 395.102 131.613 392.877 133.851 391.471C162.605 373.421 185.479 345.632 205.856 304.026L207.57 300.509Z" fill="#1A4A67"/>
<path d="M83.7008 498.705C83.7008 498.705 99.5798 504.128 130.007 506.383C160.435 508.637 194.397 509.77 200.569 505.255C206.741 500.74 210.71 462.348 200.569 462.348C190.428 462.348 186.483 477.026 168.597 463.926C153.276 452.703 141.033 473.864 114.354 479.506C87.6748 485.149 76.869 487.415 83.7008 498.705Z" fill="#D1D3D4"/>
<path fill-rule="evenodd" clip-rule="evenodd" d="M129.787 509.331C147.712 510.661 162.419 511.326 173.861 511.326C189.43 511.326 198.962 510.098 202.311 507.634C208.748 502.922 211.634 476.908 208.195 466.373C206.211 460.291 202.559 459.383 200.563 459.383C196.319 459.383 193.028 461.401 190.12 463.184L190.096 463.199C184.786 466.469 180.586 469.045 170.338 461.536C159.764 453.791 150.457 459.186 139.685 465.437L139.677 465.442C132.447 469.634 124.248 474.389 113.564 476.649C92.6969 481.062 82.218 483.283 79.4052 489.771C78.12 492.731 78.7006 496.152 81.1695 500.233L81.7276 501.152L82.7422 501.501C83.4074 501.727 99.3258 507.071 129.787 509.331ZM130.227 503.435C104.895 501.558 89.6589 497.42 85.6962 496.231C84.7266 494.416 84.4392 493.035 84.845 492.127C86.4383 488.446 98.3047 485.933 114.913 482.417L114.974 482.404C126.411 479.98 135.424 474.755 142.662 470.555C153.654 464.18 159.725 461.085 166.855 466.311C180.312 476.166 187.459 471.776 193.202 468.248L193.207 468.244L193.212 468.242C195.774 466.664 197.989 465.302 200.575 465.302C201.353 465.302 202.119 466.801 202.581 468.21C205.986 478.633 201.736 500.735 198.827 502.866C195.428 505.351 175.632 506.806 130.227 503.435Z" fill="#1A4A67"/>
<path d="M208.579 404.531L167.301 464.986L186.094 480.865L225.416 415.23C225.416 415.224 216.403 405.083 208.579 404.531Z" fill="white"/>
<path fill-rule="evenodd" clip-rule="evenodd" d="M163.36 465.521L186.843 485.369L229.069 414.88L227.631 413.257C226.622 412.129 217.564 402.197 208.793 401.577L207.102 401.459L163.36 465.521ZM185.344 476.361L171.247 464.45L209.96 407.755C214.165 408.871 218.979 412.93 221.719 415.641L185.344 476.361Z" fill="#1A4A67"/>
<path d="M446.538 333.648C443.054 326.788 424.182 330.655 401.567 321.856C378.952 313.056 364.342 294.573 338.643 273.277C312.945 251.981 314.704 255.674 303.616 254.794C292.528 253.915 278.797 285.244 271.052 301.794C247.22 352.7 198.19 386.865 153.564 418.29C150.79 420.241 147.679 422.952 148.254 426.295C148.547 427.997 149.765 429.372 151.01 430.573C167.566 446.553 198.579 453.74 220.867 452.698C243.308 451.649 255.489 432.924 263.967 414.407C279.13 381.279 293.943 347.142 312.364 315.7C319.286 303.897 341.349 351.55 343.265 355.987C354.691 382.48 377.374 411.673 408.348 415.139C430.349 417.603 446.893 402.293 454.114 379.937C461.317 357.582 446.538 333.648 446.538 333.648Z" fill="white"/>
<path fill-rule="evenodd" clip-rule="evenodd" d="M148.953 432.698C164.967 448.16 194.2 455.753 216.651 455.753C218.134 455.753 219.588 455.719 220.997 455.651C245.748 454.496 258.398 433.662 266.644 415.635C268.826 410.872 271.001 406.087 273.177 401.295L273.22 401.201C286.008 373.058 299.231 343.956 314.907 317.194C314.996 317.044 315.071 316.941 315.119 316.875C315.156 316.824 315.177 316.795 315.177 316.782C319.754 316.867 333.689 341.274 340.543 357.153C346.219 370.31 367.859 413.578 408.01 418.076C429.971 420.54 448.708 406.273 456.915 380.845C464.299 357.971 450.309 334.172 449.108 332.194C446.58 327.407 440.114 326.603 431.193 325.495L431.166 325.491C423.252 324.511 413.399 323.287 402.633 319.099C387.348 313.156 375.882 302.668 361.373 289.398L361.348 289.376C354.939 283.514 348.316 277.46 340.526 271C318.712 252.923 315.983 252.196 307.928 252.027L307.795 252.023C306.656 251.996 305.376 251.966 303.842 251.846C292.427 250.939 281.3 272.708 269.998 297.042L268.369 300.537C245.125 350.199 196.328 384.559 153.271 414.878L153.259 414.886L151.862 415.872C149.81 417.315 144.37 421.143 145.334 426.791C145.768 429.339 147.408 431.204 148.953 432.698ZM275.372 299.515C281.706 285.884 294.786 257.731 303.097 257.731C303.193 257.731 303.283 257.731 303.385 257.737C305.053 257.873 306.447 257.904 307.684 257.931L307.809 257.934L307.812 257.934C314.033 258.069 315.704 258.106 336.755 275.549C344.438 281.913 351.01 287.922 357.363 293.733L357.37 293.741C371.752 306.894 384.174 318.255 400.496 324.606C411.946 329.061 422.625 330.388 430.43 331.357L430.45 331.359C437.096 332.182 442.845 332.898 443.905 334.984L444.023 335.198C444.164 335.429 457.997 358.275 451.295 379.03C444.001 401.617 427.677 414.328 408.675 412.203C379.284 408.911 357.013 380.4 345.976 354.814C345.79 354.38 327.195 311.602 315.509 310.881C314.173 310.802 311.62 311.117 309.811 314.206C293.971 341.253 280.678 370.514 267.819 398.818L267.805 398.849L267.651 399.187C265.527 403.865 263.408 408.532 261.277 413.178C253.73 429.677 242.293 448.746 220.732 449.75C199.109 450.759 168.929 443.763 153.067 428.448C152.211 427.625 151.314 426.661 151.168 425.799C150.942 424.491 152.323 422.783 155.266 420.709L156.669 419.722C200.332 388.979 249.818 354.132 273.729 303.046L275.364 299.534L275.372 299.515Z" fill="#1A4A67"/>
</svg>
